<ttFont>
    <TTGlyph name="A" xMin="26" yMin="-15" xMax="489" yMax="769">
      <contour>
        <pt x="26" y="26" on="1"/>
        <pt x="29" y="40" on="0"/>
        <pt x="33" y="84" on="0"/>
        <pt x="40" y="156" on="0"/>
        <pt x="49" y="262" on="0"/>
        <pt x="65" y="414" on="0"/>
        <pt x="86" y="619" on="0"/>
        <pt x="103" y="755" on="1"/>
        <pt x="104" y="765" on="0"/>
        <pt x="121" y="769" on="0"/>
        <pt x="128" y="769" on="1"/>
        <pt x="139" y="769" on="0"/>
        <pt x="153" y="753" on="0"/>
        <pt x="164" y="733" on="0"/>
        <pt x="174" y="711" on="0"/>
        <pt x="180" y="704" on="1"/>
        <pt x="190" y="681" on="0"/>
        <pt x="211" y="621" on="0"/>
        <pt x="235" y="553" on="0"/>
        <pt x="259" y="484" on="0"/>
        <pt x="283" y="419" on="0"/>
        <pt x="304" y="364" on="0"/>
        <pt x="313" y="346" on="1"/>
        <pt x="324" y="347" on="0"/>
        <pt x="364" y="362" on="0"/>
        <pt x="410" y="376" on="0"/>
        <pt x="454" y="384" on="0"/>
        <pt x="484" y="377" on="0"/>
        <pt x="493" y="349" on="0"/>
        <pt x="481" y="319" on="1"/>
        <pt x="474" y="319" on="0"/>
        <pt x="462" y="324" on="0"/>
        <pt x="450" y="329" on="0"/>
        <pt x="437" y="334" on="0"/>
        <pt x="429" y="334" on="1"/>
        <pt x="424" y="334" on="0"/>
        <pt x="389" y="323" on="0"/>
        <pt x="349" y="310" on="0"/>
        <pt x="319" y="297" on="0"/>
        <pt x="319" y="294" on="1"/>
        <pt x="388" y="23" on="1"/>
        <pt x="362" y="-15" on="1"/>
        <pt x="345" y="14" on="0"/>
        <pt x="322" y="89" on="0"/>
        <pt x="302" y="164" on="0"/>
        <pt x="281" y="229" on="0"/>
        <pt x="265" y="251" on="1"/>
        <pt x="244" y="241" on="0"/>
        <pt x="186" y="227" on="0"/>
        <pt x="132" y="206" on="0"/>
        <pt x="93" y="171" on="0"/>
        <pt x="89" y="141" on="1"/>
        <pt x="87" y="129" on="0"/>
        <pt x="84" y="89" on="0"/>
        <pt x="82" y="71" on="1"/>
        <pt x="79" y="49" on="0"/>
        <pt x="77" y="26" on="1"/>
      </contour>
      <contour>
        <pt x="141" y="615" on="1"/>
        <pt x="139" y="598" on="1"/>
        <pt x="138" y="581" on="0"/>
        <pt x="134" y="536" on="0"/>
        <pt x="129" y="489" on="0"/>
        <pt x="128" y="473" on="1"/>
        <pt x="123" y="417" on="0"/>
        <pt x="112" y="308" on="0"/>
        <pt x="112" y="251" on="1"/>
        <pt x="131" y="251" on="0"/>
        <pt x="174" y="261" on="0"/>
        <pt x="214" y="278" on="0"/>
        <pt x="247" y="303" on="0"/>
        <pt x="256" y="319" on="1"/>
        <pt x="248" y="354" on="0"/>
        <pt x="229" y="429" on="0"/>
        <pt x="207" y="506" on="0"/>
        <pt x="181" y="580" on="0"/>
        <pt x="166" y="615" on="1"/>
        <pt x="165" y="616" on="0"/>
        <pt x="153" y="623" on="0"/>
      </contour>
    </TTGlyph>
    <TTGlyph name="AE" xMin="26" yMin="23" xMax="713" yMax="769">
      <contour>
        <pt x="316" y="111" on="1"/>
        <pt x="305" y="153" on="0"/>
        <pt x="283" y="228" on="0"/>
        <pt x="265" y="251" on="1"/>
        <pt x="244" y="241" on="0"/>
        <pt x="186" y="227" on="0"/>
        <pt x="132" y="206" on="0"/>
        <pt x="93" y="171" on="0"/>
        <pt x="89" y="141" on="1"/>
        <pt x="87" y="129" on="0"/>
        <pt x="84" y="89" on="0"/>
        <pt x="82" y="71" on="1"/>
        <pt x="79" y="49" on="0"/>
        <pt x="77" y="26" on="1"/>
        <pt x="26" y="26" on="1"/>
        <pt x="29" y="40" on="0"/>
        <pt x="33" y="84" on="0"/>
        <pt x="40" y="156" on="0"/>
        <pt x="49" y="262" on="0"/>
        <pt x="65" y="414" on="0"/>
        <pt x="86" y="619" on="0"/>
        <pt x="103" y="755" on="1"/>
        <pt x="104" y="765" on="0"/>
        <pt x="121" y="769" on="0"/>
        <pt x="128" y="769" on="1"/>
        <pt x="139" y="769" on="0"/>
        <pt x="153" y="753" on="0"/>
        <pt x="164" y="733" on="0"/>
        <pt x="174" y="711" on="0"/>
        <pt x="180" y="704" on="1"/>
        <pt x="190" y="681" on="0"/>
        <pt x="211" y="621" on="0"/>
        <pt x="235" y="553" on="0"/>
        <pt x="259" y="484" on="0"/>
        <pt x="283" y="419" on="0"/>
        <pt x="304" y="364" on="0"/>
        <pt x="313" y="346" on="1"/>
        <pt x="316" y="346" on="1"/>
        <pt x="314" y="423" on="0"/>
        <pt x="302" y="576" on="0"/>
        <pt x="290" y="656" on="1"/>
        <pt x="290" y="658" on="0"/>
        <pt x="285" y="670" on="0"/>
        <pt x="281" y="682" on="0"/>
        <pt x="277" y="693" on="0"/>
        <pt x="277" y="695" on="1"/>
        <pt x="277" y="699" on="0"/>
        <pt x="284" y="714" on="0"/>
        <pt x="295" y="726" on="0"/>
        <pt x="309" y="734" on="0"/>
        <pt x="316" y="733" on="1"/>
        <pt x="328" y="731" on="0"/>
        <pt x="343" y="706" on="0"/>
        <pt x="351" y="678" on="0"/>
        <pt x="354" y="650" on="0"/>
        <pt x="354" y="643" on="1"/>
        <pt x="384" y="660" on="0"/>
        <pt x="459" y="697" on="0"/>
        <pt x="538" y="728" on="0"/>
        <pt x="616" y="749" on="0"/>
        <pt x="652" y="749" on="1"/>
        <pt x="652" y="740" on="0"/>
        <pt x="645" y="725" on="0"/>
        <pt x="635" y="721" on="1"/>
        <pt x="354" y="580" on="1"/>
        <pt x="354" y="541" on="1"/>
        <pt x="355" y="531" on="0"/>
        <pt x="357" y="485" on="0"/>
        <pt x="361" y="431" on="0"/>
        <pt x="364" y="378" on="0"/>
        <pt x="365" y="362" on="1"/>
        <pt x="372" y="364" on="0"/>
        <pt x="389" y="371" on="0"/>
        <pt x="430" y="391" on="0"/>
        <pt x="507" y="430" on="0"/>
        <pt x="571" y="464" on="1"/>
        <pt x="577" y="471" on="1"/>
        <pt x="582" y="477" on="0"/>
        <pt x="598" y="487" on="0"/>
        <pt x="615" y="488" on="0"/>
        <pt x="623" y="477" on="1"/>
        <pt x="625" y="470" on="0"/>
        <pt x="590" y="441" on="0"/>
        <pt x="537" y="406" on="0"/>
        <pt x="473" y="368" on="0"/>
        <pt x="418" y="337" on="0"/>
        <pt x="382" y="313" on="0"/>
        <pt x="382" y="310" on="1"/>
        <pt x="380" y="93" on="1"/>
        <pt x="393" y="87" on="0"/>
        <pt x="440" y="106" on="0"/>
        <pt x="498" y="140" on="0"/>
        <pt x="560" y="185" on="0"/>
        <pt x="619" y="226" on="0"/>
        <pt x="670" y="257" on="0"/>
        <pt x="687" y="261" on="1"/>
        <pt x="697" y="261" on="0"/>
        <pt x="713" y="253" on="0"/>
        <pt x="713" y="240" on="1"/>
        <pt x="713" y="229" on="0"/>
        <pt x="699" y="221" on="1"/>
        <pt x="668" y="203" on="0"/>
        <pt x="589" y="148" on="0"/>
        <pt x="505" y="91" on="0"/>
        <pt x="422" y="39" on="0"/>
        <pt x="388" y="23" on="1"/>
        <pt x="316" y="30" on="1"/>
      </contour>
      <contour>
        <pt x="141" y="615" on="1"/>
        <pt x="139" y="598" on="1"/>
        <pt x="138" y="581" on="0"/>
        <pt x="134" y="536" on="0"/>
        <pt x="129" y="489" on="0"/>
        <pt x="128" y="473" on="1"/>
        <pt x="123" y="417" on="0"/>
        <pt x="112" y="308" on="0"/>
        <pt x="112" y="251" on="1"/>
        <pt x="131" y="251" on="0"/>
        <pt x="174" y="261" on="0"/>
        <pt x="214" y="278" on="0"/>
        <pt x="247" y="303" on="0"/>
        <pt x="256" y="319" on="1"/>
        <pt x="248" y="354" on="0"/>
        <pt x="229" y="429" on="0"/>
        <pt x="207" y="506" on="0"/>
        <pt x="181" y="580" on="0"/>
        <pt x="166" y="615" on="1"/>
        <pt x="165" y="616" on="0"/>
        <pt x="153" y="623" on="0"/>
      </contour>
    </TTGlyph>
    <TTGlyph name="AEacute" xMin="26" yMin="23" xMax="713" yMax="971">
      <component glyphName="AE" x="0" y="0" flags="0x1204"/>
      <component glyphName="acute" x="222" y="229" flags="0x1004"/>
    </TTGlyph>
    <TTGlyph name="Aacute" xMin="26" yMin="-15" xMax="489" yMax="952">
      <component glyphName="A" x="0" y="0" flags="0x1204"/>
      <component glyphName="acute" x="48" y="210" flags="0x1004"/>
    </TTGlyph>
    <TTGlyph name="Abreve" xMin="26" yMin="-15" xMax="489" yMax="987">
      <component glyphName="A" x="0" y="0" flags="0x1204"/>
      <component glyphName="breve" x="-14" y="229" flags="0x1004"/>
    </TTGlyph>
    <TTGlyph name="Acircumflex" xMin="-30" yMin="-15" xMax="489" yMax="1048">
      <component glyphName="A" x="0" y="0" flags="0x1204"/>
      <component glyphName="circumflex" x="-58" y="93" flags="0x1004"/>
    </TTGlyph>
    <TTGlyph name="Adieresis" xMin="26" yMin="-15" xMax="489" yMax="908">
      <component glyphName="A" x="0" y="0" flags="0x1204"/>
      <component glyphName="dieresis" x="-10" y="143" flags="0x1004"/>
    </TTGlyph>
    <TTGlyph name="Agrave" xMin="41" yMin="-41" xMax="504" yMax="909">
      <component glyphName="A" x="15" y="-26" flags="0x1204"/>
      <component glyphName="grave" x="104" y="152" flags="0x1004"/>
    </TTGlyph>
    <TTGlyph name="Amacron" xMin="0" yMin="-15" xMax="489" yMax="893">
      <component glyphName="A" x="0" y="0" flags="0x1204"/>
      <component glyphName="macron" x="-13" y="132" flags="0x1004"/>
    </TTGlyph>
    <TTGlyph name="Aogonek" xMin="26" yMin="-248" xMax="491" yMax="769">
      <contour>
        <pt x="477" y="-159" on="1"/>
        <pt x="497" y="-174" on="0"/>
        <pt x="485" y="-210" on="0"/>
        <pt x="439" y="-239" on="0"/>
        <pt x="368" y="-255" on="0"/>
        <pt x="328" y="-248" on="1"/>
        <pt x="291" y="-237" on="0"/>
        <pt x="251" y="-171" on="0"/>
        <pt x="253" y="-89" on="0"/>
        <pt x="298" y="-7" on="0"/>
        <pt x="345" y="19" on="1"/>
        <pt x="338" y="34" on="0"/>
        <pt x="333" y="51" on="1"/>
        <pt x="322" y="89" on="0"/>
        <pt x="302" y="164" on="0"/>
        <pt x="281" y="229" on="0"/>
        <pt x="265" y="251" on="1"/>
        <pt x="244" y="241" on="0"/>
        <pt x="186" y="227" on="0"/>
        <pt x="132" y="206" on="0"/>
        <pt x="93" y="171" on="0"/>
        <pt x="89" y="141" on="1"/>
        <pt x="87" y="129" on="0"/>
        <pt x="84" y="89" on="0"/>
        <pt x="82" y="71" on="1"/>
        <pt x="79" y="49" on="0"/>
        <pt x="77" y="26" on="1"/>
        <pt x="26" y="26" on="1"/>
        <pt x="29" y="40" on="0"/>
        <pt x="33" y="84" on="0"/>
        <pt x="40" y="156" on="0"/>
        <pt x="49" y="262" on="0"/>
        <pt x="65" y="414" on="0"/>
        <pt x="86" y="619" on="0"/>
        <pt x="103" y="755" on="1"/>
        <pt x="104" y="765" on="0"/>
        <pt x="121" y="769" on="0"/>
        <pt x="128" y="769" on="1"/>
        <pt x="139" y="769" on="0"/>
        <pt x="153" y="753" on="0"/>
        <pt x="164" y="733" on="0"/>
        <pt x="174" y="711" on="0"/>
        <pt x="180" y="704" on="1"/>
        <pt x="190" y="681" on="0"/>
        <pt x="211" y="621" on="0"/>
        <pt x="235" y="553" on="0"/>
        <pt x="259" y="484" on="0"/>
        <pt x="283" y="419" on="0"/>
        <pt x="304" y="364" on="0"/>
        <pt x="313" y="346" on="1"/>
        <pt x="324" y="347" on="0"/>
        <pt x="364" y="362" on="0"/>
        <pt x="410" y="376" on="0"/>
        <pt x="454" y="384" on="0"/>
        <pt x="484" y="377" on="0"/>
        <pt x="493" y="349" on="0"/>
        <pt x="481" y="319" on="1"/>
        <pt x="474" y="319" on="0"/>
        <pt x="462" y="324" on="0"/>
        <pt x="450" y="329" on="0"/>
        <pt x="437" y="334" on="0"/>
        <pt x="429" y="334" on="1"/>
        <pt x="424" y="334" on="0"/>
        <pt x="389" y="323" on="0"/>
        <pt x="349" y="310" on="0"/>
        <pt x="319" y="297" on="0"/>
        <pt x="319" y="294" on="1"/>
        <pt x="388" y="23" on="1"/>
        <pt x="377" y="8" on="1"/>
        <pt x="379" y="4" on="0"/>
        <pt x="379" y="-4" on="1"/>
        <pt x="379" y="-15" on="0"/>
        <pt x="361" y="-37" on="0"/>
        <pt x="348" y="-37" on="1"/>
        <pt x="328" y="-63" on="0"/>
        <pt x="305" y="-116" on="0"/>
        <pt x="304" y="-160" on="0"/>
        <pt x="326" y="-191" on="0"/>
        <pt x="349" y="-194" on="1"/>
        <pt x="365" y="-194" on="0"/>
        <pt x="397" y="-184" on="0"/>
        <pt x="428" y="-170" on="0"/>
        <pt x="460" y="-159" on="0"/>
      </contour>
      <contour>
        <pt x="141" y="615" on="1"/>
        <pt x="139" y="598" on="1"/>
        <pt x="138" y="581" on="0"/>
        <pt x="134" y="536" on="0"/>
        <pt x="129" y="489" on="0"/>
        <pt x="128" y="473" on="1"/>
        <pt x="123" y="417" on="0"/>
        <pt x="112" y="308" on="0"/>
        <pt x="112" y="251" on="1"/>
        <pt x="131" y="251" on="0"/>
        <pt x="174" y="261" on="0"/>
        <pt x="214" y="278" on="0"/>
        <pt x="247" y="303" on="0"/>
        <pt x="256" y="319" on="1"/>
        <pt x="248" y="354" on="0"/>
        <pt x="229" y="429" on="0"/>
        <pt x="207" y="506" on="0"/>
        <pt x="181" y="580" on="0"/>
        <pt x="166" y="615" on="1"/>
        <pt x="165" y="616" on="0"/>
        <pt x="153" y="623" on="0"/>
      </contour>
    </TTGlyph>
    <TTGlyph name="Aring" xMin="5" yMin="-15" xMax="489" yMax="905">
      <contour>
        <pt x="7" y="803" on="1"/>
        <pt x="-1" y="822" on="0"/>
        <pt x="11" y="858" on="0"/>
        <pt x="46" y="887" on="0"/>
        <pt x="100" y="905" on="0"/>
        <pt x="133" y="905" on="1"/>
        <pt x="156" y="905" on="0"/>
        <pt x="186" y="899" on="0"/>
        <pt x="208" y="888" on="0"/>
        <pt x="223" y="873" on="0"/>
        <pt x="230" y="864" on="1"/>
        <pt x="241" y="832" on="0"/>
        <pt x="242" y="781" on="0"/>
        <pt x="211" y="746" on="0"/>
        <pt x="176" y="737" on="1"/>
        <pt x="170" y="735" on="0"/>
        <pt x="163" y="733" on="1"/>
        <pt x="166" y="728" on="0"/>
        <pt x="168" y="722" on="1"/>
        <pt x="174" y="711" on="0"/>
        <pt x="180" y="704" on="1"/>
        <pt x="190" y="681" on="0"/>
        <pt x="211" y="621" on="0"/>
        <pt x="235" y="553" on="0"/>
        <pt x="259" y="484" on="0"/>
        <pt x="283" y="419" on="0"/>
        <pt x="304" y="364" on="0"/>
        <pt x="313" y="346" on="1"/>
        <pt x="324" y="347" on="0"/>
        <pt x="364" y="362" on="0"/>
        <pt x="410" y="376" on="0"/>
        <pt x="454" y="384" on="0"/>
        <pt x="484" y="377" on="0"/>
        <pt x="493" y="349" on="0"/>
        <pt x="481" y="319" on="1"/>
        <pt x="474" y="319" on="0"/>
        <pt x="462" y="324" on="0"/>
        <pt x="450" y="329" on="0"/>
        <pt x="437" y="334" on="0"/>
        <pt x="429" y="334" on="1"/>
        <pt x="424" y="334" on="0"/>
        <pt x="389" y="323" on="0"/>
        <pt x="349" y="310" on="0"/>
        <pt x="319" y="297" on="0"/>
        <pt x="319" y="294" on="1"/>
        <pt x="388" y="23" on="1"/>
        <pt x="362" y="-15" on="1"/>
        <pt x="345" y="14" on="0"/>
        <pt x="322" y="89" on="0"/>
        <pt x="302" y="164" on="0"/>
        <pt x="281" y="229" on="0"/>
        <pt x="265" y="251" on="1"/>
        <pt x="244" y="241" on="0"/>
        <pt x="186" y="227" on="0"/>
        <pt x="132" y="206" on="0"/>
        <pt x="93" y="171" on="0"/>
        <pt x="89" y="141" on="1"/>
        <pt x="87" y="129" on="0"/>
        <pt x="84" y="89" on="0"/>
        <pt x="82" y="71" on="1"/>
        <pt x="79" y="49" on="0"/>
        <pt x="77" y="26" on="1"/>
        <pt x="26" y="26" on="1"/>
        <pt x="29" y="40" on="0"/>
        <pt x="33" y="84" on="0"/>
        <pt x="40" y="156" on="0"/>
        <pt x="49" y="262" on="0"/>
        <pt x="65" y="414" on="0"/>
        <pt x="76" y="517" on="1"/>
        <pt x="85" y="609" on="0"/>
        <pt x="99" y="730" on="1"/>
        <pt x="92" y="730" on="0"/>
        <pt x="83" y="731" on="1"/>
        <pt x="60" y="731" on="0"/>
        <pt x="31" y="747" on="0"/>
        <pt x="13" y="770" on="0"/>
        <pt x="7" y="795" on="0"/>
      </contour>
      <contour>
        <pt x="141" y="615" on="1"/>
        <pt x="139" y="598" on="1"/>
        <pt x="138" y="581" on="0"/>
        <pt x="134" y="536" on="0"/>
        <pt x="129" y="489" on="0"/>
        <pt x="128" y="473" on="1"/>
        <pt x="123" y="417" on="0"/>
        <pt x="112" y="308" on="0"/>
        <pt x="112" y="251" on="1"/>
        <pt x="131" y="251" on="0"/>
        <pt x="174" y="261" on="0"/>
        <pt x="214" y="278" on="0"/>
        <pt x="247" y="303" on="0"/>
        <pt x="256" y="319" on="1"/>
        <pt x="248" y="354" on="0"/>
        <pt x="229" y="429" on="0"/>
        <pt x="207" y="506" on="0"/>
        <pt x="181" y="580" on="0"/>
        <pt x="166" y="615" on="1"/>
        <pt x="165" y="616" on="0"/>
        <pt x="153" y="623" on="0"/>
      </contour>
      <contour>
        <pt x="58" y="805" on="1"/>
        <pt x="58" y="794" on="0"/>
        <pt x="79" y="780" on="0"/>
        <pt x="91" y="770" on="1"/>
        <pt x="106" y="769" on="0"/>
        <pt x="117" y="768" on="1"/>
        <pt x="123" y="769" on="0"/>
        <pt x="128" y="769" on="1"/>
        <pt x="132" y="769" on="0"/>
        <pt x="136" y="767" on="1"/>
        <pt x="148" y="767" on="0"/>
        <pt x="156" y="769" on="1"/>
        <pt x="165" y="773" on="0"/>
        <pt x="177" y="791" on="0"/>
        <pt x="188" y="807" on="1"/>
        <pt x="190" y="824" on="0"/>
        <pt x="172" y="848" on="0"/>
        <pt x="142" y="859" on="0"/>
        <pt x="107" y="859" on="0"/>
        <pt x="77" y="848" on="0"/>
        <pt x="58" y="823" on="0"/>
      </contour>
    </TTGlyph>
    <TTGlyph name="Atilde" xMin="-12" yMin="-15" xMax="489" yMax="1030">
      <component glyphName="A" x="0" y="0" flags="0x1204"/>
      <component glyphName="tilde" x="-50" y="299" flags="0x1004"/>
    </TTGlyph>
    <TTGlyph name="B" xMin="25" yMin="11" xMax="527" yMax="742">
      <contour>
        <pt x="39" y="615" on="1"/>
        <pt x="31" y="630" on="0"/>
        <pt x="25" y="652" on="0"/>
        <pt x="25" y="667" on="1"/>
        <pt x="25" y="672" on="0"/>
        <pt x="26" y="682" on="0"/>
        <pt x="31" y="690" on="0"/>
        <pt x="42" y="694" on="0"/>
        <pt x="51" y="691" on="1"/>
        <pt x="57" y="689" on="0"/>
        <pt x="69" y="678" on="0"/>
        <pt x="80" y="661" on="0"/>
        <pt x="87" y="645" on="0"/>
        <pt x="89" y="640" on="1"/>
        <pt x="112" y="658" on="0"/>
        <pt x="166" y="695" on="0"/>
        <pt x="227" y="724" on="0"/>
        <pt x="290" y="742" on="0"/>
        <pt x="319" y="742" on="1"/>
        <pt x="329" y="742" on="0"/>
        <pt x="357" y="738" on="0"/>
        <pt x="382" y="728" on="0"/>
        <pt x="399" y="711" on="0"/>
        <pt x="399" y="698" on="1"/>
        <pt x="402" y="674" on="0"/>
        <pt x="385" y="625" on="0"/>
        <pt x="356" y="579" on="0"/>
        <pt x="319" y="535" on="0"/>
        <pt x="282" y="495" on="0"/>
        <pt x="251" y="461" on="0"/>
        <pt x="243" y="448" on="1"/>
        <pt x="284" y="475" on="0"/>
        <pt x="379" y="500" on="0"/>
        <pt x="427" y="500" on="1"/>
        <pt x="442" y="500" on="0"/>
        <pt x="477" y="497" on="0"/>
        <pt x="507" y="485" on="0"/>
        <pt x="527" y="463" on="0"/>
        <pt x="527" y="443" on="1"/>
        <pt x="527" y="423" on="0"/>
        <pt x="490" y="352" on="0"/>
        <pt x="431" y="267" on="0"/>
        <pt x="360" y="180" on="0"/>
        <pt x="294" y="109" on="0"/>
        <pt x="241" y="64" on="0"/>
        <pt x="230" y="64" on="1"/>
        <pt x="204" y="76" on="1"/>
        <pt x="209" y="95" on="0"/>
        <pt x="249" y="147" on="0"/>
        <pt x="304" y="203" on="0"/>
        <pt x="367" y="265" on="0"/>
        <pt x="423" y="323" on="0"/>
        <pt x="465" y="378" on="0"/>
        <pt x="478" y="423" on="0"/>
        <pt x="454" y="454" on="0"/>
        <pt x="417" y="462" on="1"/>
        <pt x="378" y="462" on="0"/>
        <pt x="292" y="435" on="0"/>
        <pt x="214" y="385" on="0"/>
        <pt x="153" y="316" on="0"/>
        <pt x="139" y="273" on="1"/>
        <pt x="139" y="245" on="0"/>
        <pt x="148" y="191" on="0"/>
        <pt x="158" y="138" on="0"/>
        <pt x="167" y="84" on="0"/>
        <pt x="167" y="57" on="1"/>
        <pt x="167" y="37" on="0"/>
        <pt x="161" y="11" on="0"/>
        <pt x="139" y="11" on="1"/>
        <pt x="137" y="11" on="0"/>
        <pt x="128" y="12" on="0"/>
        <pt x="128" y="13" on="1"/>
      </contour>
      <contour>
        <pt x="103" y="552" on="1"/>
        <pt x="103" y="515" on="0"/>
        <pt x="113" y="432" on="0"/>
        <pt x="128" y="397" on="1"/>
        <pt x="143" y="410" on="0"/>
        <pt x="188" y="453" on="0"/>
        <pt x="237" y="503" on="0"/>
        <pt x="284" y="559" on="0"/>
        <pt x="323" y="611" on="0"/>
        <pt x="346" y="656" on="0"/>
        <pt x="346" y="671" on="1"/>
        <pt x="346" y="683" on="0"/>
        <pt x="331" y="691" on="0"/>
        <pt x="321" y="691" on="1"/>
        <pt x="297" y="691" on="0"/>
        <pt x="222" y="671" on="0"/>
        <pt x="153" y="635" on="0"/>
        <pt x="103" y="584" on="0"/>
      </contour>
    </TTGlyph>
    <TTGlyph name="C" xMin="25" yMin="-2" xMax="474" yMax="746">
      <contour>
        <pt x="25" y="179" on="1"/>
        <pt x="25" y="211" on="0"/>
        <pt x="38" y="321" on="0"/>
        <pt x="65" y="447" on="0"/>
        <pt x="105" y="576" on="0"/>
        <pt x="160" y="680" on="0"/>
        <pt x="231" y="746" on="0"/>
        <pt x="274" y="746" on="1"/>
        <pt x="299" y="746" on="0"/>
        <pt x="334" y="728" on="0"/>
        <pt x="357" y="697" on="0"/>
        <pt x="368" y="658" on="0"/>
        <pt x="368" y="635" on="1"/>
        <pt x="350" y="635" on="0"/>
        <pt x="328" y="654" on="0"/>
        <pt x="310" y="676" on="0"/>
        <pt x="291" y="695" on="0"/>
        <pt x="275" y="695" on="1"/>
        <pt x="243" y="695" on="0"/>
        <pt x="189" y="634" on="0"/>
        <pt x="145" y="540" on="0"/>
        <pt x="111" y="425" on="0"/>
        <pt x="88" y="316" on="0"/>
        <pt x="76" y="227" on="0"/>
        <pt x="76" y="205" on="1"/>
        <pt x="76" y="176" on="0"/>
        <pt x="82" y="121" on="0"/>
        <pt x="102" y="77" on="0"/>
        <pt x="140" y="50" on="0"/>
        <pt x="175" y="50" on="1"/>
        <pt x="215" y="50" on="0"/>
        <pt x="294" y="102" on="0"/>
        <pt x="362" y="177" on="0"/>
        <pt x="412" y="262" on="0"/>
        <pt x="423" y="294" on="1"/>
        <pt x="425" y="295" on="0"/>
        <pt x="439" y="296" on="0"/>
        <pt x="441" y="296" on="1"/>
        <pt x="453" y="296" on="0"/>
        <pt x="474" y="291" on="0"/>
        <pt x="474" y="275" on="1"/>
        <pt x="468" y="243" on="0"/>
        <pt x="424" y="172" on="0"/>
        <pt x="364" y="104" on="0"/>
        <pt x="292" y="46" on="0"/>
        <pt x="224" y="6" on="0"/>
        <pt x="166" y="-9" on="0"/>
        <pt x="148" y="0" on="1"/>
        <pt x="115" y="0" on="0"/>
        <pt x="68" y="37" on="0"/>
        <pt x="39" y="91" on="0"/>
        <pt x="25" y="153" on="0"/>
      </contour>
    </TTGlyph>
    <TTGlyph name="Cacute" xMin="25" yMin="-2" xMax="474" yMax="905">
      <component glyphName="C" x="0" y="0" flags="0x1204"/>
      <component glyphName="acute" x="175" y="163" flags="0x1004"/>
    </TTGlyph>
    <TTGlyph name="Ccaron" xMin="25" yMin="-2" xMax="474" yMax="959">
      <component glyphName="C" x="0" y="0" flags="0x1204"/>
      <component glyphName="caron" x="28" y="139" flags="0x1004"/>
    </TTGlyph>
    <TTGlyph name="Ccedilla" xMin="25" yMin="-326" xMax="474" yMax="746">
      <contour>
        <pt x="155" y="-286" on="1"/>
        <pt x="155" y="-283" on="0"/>
        <pt x="196" y="-275" on="0"/>
        <pt x="249" y="-263" on="0"/>
        <pt x="299" y="-246" on="0"/>
        <pt x="315" y="-221" on="0"/>
        <pt x="283" y="-189" on="0"/>
        <pt x="229" y="-167" on="1"/>
        <pt x="184" y="-167" on="0"/>
        <pt x="152" y="-112" on="0"/>
        <pt x="152" y="-64" on="1"/>
        <pt x="156" y="-25" on="0"/>
        <pt x="161" y="-5" on="1"/>
        <pt x="154" y="-3" on="0"/>
        <pt x="148" y="0" on="1"/>
        <pt x="115" y="0" on="0"/>
        <pt x="68" y="37" on="0"/>
        <pt x="39" y="91" on="0"/>
        <pt x="25" y="153" on="0"/>
        <pt x="25" y="179" on="1"/>
        <pt x="25" y="211" on="0"/>
        <pt x="38" y="321" on="0"/>
        <pt x="65" y="447" on="0"/>
        <pt x="105" y="576" on="0"/>
        <pt x="160" y="680" on="0"/>
        <pt x="231" y="746" on="0"/>
        <pt x="274" y="746" on="1"/>
        <pt x="299" y="746" on="0"/>
        <pt x="334" y="728" on="0"/>
        <pt x="357" y="697" on="0"/>
        <pt x="368" y="658" on="0"/>
        <pt x="368" y="635" on="1"/>
        <pt x="350" y="635" on="0"/>
        <pt x="328" y="654" on="0"/>
        <pt x="310" y="676" on="0"/>
        <pt x="291" y="695" on="0"/>
        <pt x="275" y="695" on="1"/>
        <pt x="243" y="695" on="0"/>
        <pt x="189" y="634" on="0"/>
        <pt x="145" y="540" on="0"/>
        <pt x="111" y="425" on="0"/>
        <pt x="88" y="316" on="0"/>
        <pt x="76" y="227" on="0"/>
        <pt x="76" y="205" on="1"/>
        <pt x="76" y="176" on="0"/>
        <pt x="82" y="121" on="0"/>
        <pt x="102" y="77" on="0"/>
        <pt x="140" y="50" on="0"/>
        <pt x="175" y="50" on="1"/>
        <pt x="215" y="50" on="0"/>
        <pt x="294" y="102" on="0"/>
        <pt x="362" y="177" on="0"/>
        <pt x="412" y="262" on="0"/>
        <pt x="423" y="294" on="1"/>
        <pt x="425" y="295" on="0"/>
        <pt x="439" y="296" on="0"/>
        <pt x="441" y="296" on="1"/>
        <pt x="453" y="296" on="0"/>
        <pt x="474" y="291" on="0"/>
        <pt x="474" y="275" on="1"/>
        <pt x="468" y="243" on="0"/>
        <pt x="424" y="172" on="0"/>
        <pt x="364" y="104" on="0"/>
        <pt x="292" y="46" on="0"/>
        <pt x="258" y="26" on="1"/>
        <pt x="229" y="9" on="0"/>
        <pt x="202" y="1" on="1"/>
        <pt x="207" y="-14" on="0"/>
        <pt x="208" y="-55" on="0"/>
        <pt x="202" y="-73" on="1"/>
        <pt x="248" y="-105" on="0"/>
        <pt x="317" y="-139" on="0"/>
        <pt x="364" y="-171" on="0"/>
        <pt x="387" y="-216" on="0"/>
        <pt x="387" y="-259" on="1"/>
        <pt x="380" y="-280" on="0"/>
        <pt x="332" y="-306" on="0"/>
        <pt x="270" y="-321" on="0"/>
        <pt x="205" y="-327" on="0"/>
        <pt x="182" y="-326" on="1"/>
        <pt x="161" y="-326" on="0"/>
        <pt x="155" y="-302" on="0"/>
      </contour>
    </TTGlyph>
    <TTGlyph name="Ccircumflex" xMin="25" yMin="-2" xMax="474" yMax="1025">
      <component glyphName="C" x="0" y="0" flags="0x1204"/>
      <component glyphName="circumflex" x="40" y="70" flags="0x1004"/>
    </TTGlyph>
    <TTGlyph name="Cdotaccent" xMin="25" yMin="-2" xMax="474" yMax="897">
      <component glyphName="C" x="0" y="0" flags="0x1204"/>
      <component glyphName="dotaccent" x="182" y="272" flags="0x1004"/>
    </TTGlyph>
    <TTGlyph name="D" xMin="22" yMin="-1" xMax="545" yMax="760">
      <contour>
        <pt x="161" y="20" on="1"/>
        <pt x="161" y="40" on="0"/>
        <pt x="211" y="103" on="0"/>
        <pt x="285" y="183" on="0"/>
        <pt x="373" y="277" on="0"/>
        <pt x="447" y="378" on="0"/>
        <pt x="497" y="483" on="0"/>
        <pt x="497" y="534" on="1"/>
        <pt x="497" y="561" on="0"/>
        <pt x="467" y="600" on="0"/>
        <pt x="420" y="628" on="0"/>
        <pt x="361" y="644" on="0"/>
        <pt x="301" y="653" on="0"/>
        <pt x="247" y="656" on="0"/>
        <pt x="228" y="656" on="1"/>
        <pt x="223" y="656" on="0"/>
        <pt x="207" y="655" on="0"/>
        <pt x="190" y="654" on="0"/>
        <pt x="176" y="652" on="0"/>
        <pt x="175" y="652" on="1"/>
        <pt x="162" y="640" on="1"/>
        <pt x="162" y="638" on="0"/>
        <pt x="161" y="608" on="0"/>
        <pt x="160" y="570" on="0"/>
        <pt x="160" y="550" on="1"/>
        <pt x="160" y="519" on="1"/>
        <pt x="160" y="418" on="0"/>
        <pt x="175" y="219" on="0"/>
        <pt x="175" y="118" on="1"/>
        <pt x="175" y="112" on="0"/>
        <pt x="176" y="98" on="0"/>
        <pt x="174" y="85" on="0"/>
        <pt x="165" y="76" on="0"/>
        <pt x="156" y="76" on="1"/>
        <pt x="150" y="76" on="0"/>
        <pt x="138" y="82" on="0"/>
        <pt x="137" y="89" on="1"/>
        <pt x="98" y="615" on="1"/>
        <pt x="95" y="613" on="0"/>
        <pt x="80" y="606" on="0"/>
        <pt x="64" y="598" on="0"/>
        <pt x="49" y="589" on="0"/>
        <pt x="47" y="589" on="1"/>
        <pt x="46" y="589" on="0"/>
        <pt x="41" y="588" on="0"/>
        <pt x="40" y="588" on="1"/>
        <pt x="35" y="588" on="0"/>
        <pt x="22" y="593" on="0"/>
        <pt x="22" y="602" on="1"/>
        <pt x="22" y="617" on="0"/>
        <pt x="35" y="636" on="0"/>
        <pt x="56" y="652" on="0"/>
        <pt x="80" y="668" on="0"/>
        <pt x="101" y="693" on="0"/>
        <pt x="114" y="731" on="0"/>
        <pt x="114" y="760" on="1"/>
        <pt x="134" y="760" on="0"/>
        <pt x="144" y="746" on="0"/>
        <pt x="146" y="727" on="0"/>
        <pt x="149" y="708" on="0"/>
        <pt x="162" y="704" on="1"/>
        <pt x="190" y="705" on="0"/>
        <pt x="269" y="703" on="0"/>
        <pt x="356" y="692" on="0"/>
        <pt x="441" y="670" on="0"/>
        <pt x="508" y="630" on="0"/>
        <pt x="547" y="569" on="0"/>
        <pt x="545" y="525" on="1"/>
        <pt x="532" y="448" on="0"/>
        <pt x="459" y="306" on="0"/>
        <pt x="360" y="175" on="0"/>
        <pt x="245" y="55" on="0"/>
        <pt x="188" y="0" on="1"/>
        <pt x="187" y="0" on="0"/>
        <pt x="183" y="-1" on="0"/>
        <pt x="182" y="-1" on="1"/>
        <pt x="173" y="-1" on="0"/>
        <pt x="161" y="11" on="0"/>
      </contour>
    </TTGlyph>
    <TTGlyph name="Dcaron" xMin="22" yMin="-1" xMax="545" yMax="956">
      <component glyphName="D" x="0" y="0" flags="0x1204"/>
      <component glyphName="caron" x="75" y="136" flags="0x1004"/>
    </TTGlyph>
    <TTGlyph name="E" xMin="33" yMin="12" xMax="469" yMax="745">
      <contour>
        <pt x="72" y="26" on="1"/>
        <pt x="72" y="107" on="0"/>
        <pt x="74" y="263" on="0"/>
        <pt x="70" y="417" on="0"/>
        <pt x="58" y="572" on="0"/>
        <pt x="46" y="652" on="1"/>
        <pt x="46" y="654" on="0"/>
        <pt x="41" y="666" on="0"/>
        <pt x="37" y="679" on="0"/>
        <pt x="33" y="689" on="0"/>
        <pt x="33" y="691" on="1"/>
        <pt x="33" y="696" on="0"/>
        <pt x="40" y="710" on="0"/>
        <pt x="51" y="723" on="0"/>
        <pt x="65" y="731" on="0"/>
        <pt x="72" y="730" on="1"/>
        <pt x="84" y="727" on="0"/>
        <pt x="99" y="703" on="0"/>
        <pt x="107" y="674" on="0"/>
        <pt x="110" y="646" on="0"/>
        <pt x="110" y="640" on="1"/>
        <pt x="140" y="656" on="0"/>
        <pt x="215" y="693" on="0"/>
        <pt x="294" y="724" on="0"/>
        <pt x="373" y="745" on="0"/>
        <pt x="408" y="745" on="1"/>
        <pt x="408" y="736" on="0"/>
        <pt x="401" y="722" on="0"/>
        <pt x="391" y="717" on="1"/>
        <pt x="110" y="576" on="1"/>
        <pt x="110" y="537" on="1"/>
        <pt x="111" y="526" on="0"/>
        <pt x="114" y="472" on="0"/>
        <pt x="118" y="411" on="0"/>
        <pt x="121" y="356" on="0"/>
        <pt x="122" y="346" on="1"/>
        <pt x="328" y="461" on="1"/>
        <pt x="333" y="467" on="1"/>
        <pt x="338" y="473" on="0"/>
        <pt x="354" y="483" on="0"/>
        <pt x="371" y="484" on="0"/>
        <pt x="379" y="473" on="1"/>
        <pt x="379" y="455" on="0"/>
        <pt x="343" y="421" on="0"/>
        <pt x="289" y="387" on="0"/>
        <pt x="226" y="355" on="0"/>
        <pt x="172" y="325" on="0"/>
        <pt x="136" y="295" on="0"/>
        <pt x="136" y="282" on="1"/>
        <pt x="136" y="89" on="1"/>
        <pt x="149" y="84" on="0"/>
        <pt x="196" y="103" on="0"/>
        <pt x="254" y="137" on="0"/>
        <pt x="316" y="182" on="0"/>
        <pt x="375" y="222" on="0"/>
        <pt x="426" y="254" on="0"/>
        <pt x="443" y="257" on="1"/>
        <pt x="453" y="257" on="0"/>
        <pt x="469" y="249" on="0"/>
        <pt x="469" y="237" on="1"/>
        <pt x="469" y="225" on="0"/>
        <pt x="455" y="218" on="1"/>
        <pt x="420" y="197" on="0"/>
        <pt x="329" y="134" on="0"/>
        <pt x="235" y="71" on="0"/>
        <pt x="144" y="20" on="0"/>
        <pt x="111" y="12" on="1"/>
        <pt x="98" y="12" on="0"/>
        <pt x="82" y="16" on="0"/>
      </contour>
    </TTGlyph>
    <TTGlyph name="Eacute" xMin="33" yMin="12" xMax="469" yMax="893">
      <component glyphName="E" x="0" y="0" flags="0x1204"/>
      <component glyphName="acute" x="160" y="151" flags="0x1004"/>
    </TTGlyph>
    <TTGlyph name="Ebreve" xMin="33" yMin="12" xMax="469" yMax="941">
      <component glyphName="E" x="0" y="0" flags="0x1204"/>
      <component glyphName="breve" x="55" y="183" flags="0x1004"/>
    </TTGlyph>
    <TTGlyph name="Ecaron" xMin="33" yMin="12" xMax="469" yMax="940">
      <component glyphName="E" x="0" y="0" flags="0x1204"/>
      <component glyphName="caron" x="1" y="120" flags="0x1004"/>
    </TTGlyph>
    <TTGlyph name="Ecircumflex" xMin="33" yMin="12" xMax="469" yMax="1075">
      <component glyphName="E" x="0" y="0" flags="0x1204"/>
      <component glyphName="circumflex" x="49" y="120" flags="0x1004"/>
    </TTGlyph>
    <TTGlyph name="Edieresis" xMin="33" yMin="12" xMax="469" yMax="913">
      <component glyphName="E" x="0" y="0" flags="0x1204"/>
      <component glyphName="dieresis" x="58" y="148" flags="0x1004"/>
    </TTGlyph>
    <TTGlyph name="Edotaccent" xMin="33" yMin="12" xMax="469" yMax="819">
      <component glyphName="E" x="0" y="0" flags="0x1204"/>
      <component glyphName="dotaccent" x="144" y="194" flags="0x1004"/>
    </TTGlyph>
    <TTGlyph name="Egrave" xMin="33" yMin="12" xMax="469" yMax="928">
      <component glyphName="E" x="0" y="0" flags="0x1204"/>
      <component glyphName="grave" x="114" y="171" flags="0x1004"/>
    </TTGlyph>
    <TTGlyph name="Emacron" xMin="30" yMin="12" xMax="469" yMax="877">
      <component glyphName="E" x="0" y="0" flags="0x1204"/>
      <component glyphName="macron" x="17" y="116" flags="0x1004"/>
    </TTGlyph>
    <TTGlyph name="Eogonek" xMin="33" yMin="-95" xMax="469" yMax="745">
      <contour>
        <pt x="435" y="-7" on="1"/>
        <pt x="454" y="-22" on="0"/>
        <pt x="443" y="-58" on="0"/>
        <pt x="397" y="-87" on="0"/>
        <pt x="326" y="-103" on="0"/>
        <pt x="286" y="-95" on="1"/>
        <pt x="248" y="-85" on="0"/>
        <pt x="209" y="-19" on="0"/>
        <pt x="210" y="22" on="1"/>
        <pt x="210" y="40" on="0"/>
        <pt x="215" y="59" on="1"/>
        <pt x="202" y="52" on="0"/>
        <pt x="189" y="45" on="1"/>
        <pt x="144" y="20" on="0"/>
        <pt x="111" y="12" on="1"/>
        <pt x="98" y="12" on="0"/>
        <pt x="82" y="16" on="0"/>
        <pt x="72" y="26" on="1"/>
        <pt x="72" y="107" on="0"/>
        <pt x="74" y="263" on="0"/>
        <pt x="70" y="417" on="0"/>
        <pt x="58" y="572" on="0"/>
        <pt x="46" y="652" on="1"/>
        <pt x="46" y="654" on="0"/>
        <pt x="41" y="666" on="0"/>
        <pt x="37" y="679" on="0"/>
        <pt x="33" y="689" on="0"/>
        <pt x="33" y="691" on="1"/>
        <pt x="33" y="696" on="0"/>
        <pt x="40" y="710" on="0"/>
        <pt x="51" y="723" on="0"/>
        <pt x="65" y="731" on="0"/>
        <pt x="72" y="730" on="1"/>
        <pt x="84" y="727" on="0"/>
        <pt x="99" y="703" on="0"/>
        <pt x="107" y="674" on="0"/>
        <pt x="110" y="646" on="0"/>
        <pt x="110" y="640" on="1"/>
        <pt x="140" y="656" on="0"/>
        <pt x="215" y="693" on="0"/>
        <pt x="294" y="724" on="0"/>
        <pt x="373" y="745" on="0"/>
        <pt x="408" y="745" on="1"/>
        <pt x="408" y="736" on="0"/>
        <pt x="401" y="722" on="0"/>
        <pt x="391" y="717" on="1"/>
        <pt x="110" y="576" on="1"/>
        <pt x="110" y="537" on="1"/>
        <pt x="111" y="526" on="0"/>
        <pt x="114" y="472" on="0"/>
        <pt x="118" y="411" on="0"/>
        <pt x="121" y="356" on="0"/>
        <pt x="122" y="346" on="1"/>
        <pt x="328" y="461" on="1"/>
        <pt x="333" y="467" on="1"/>
        <pt x="338" y="473" on="0"/>
        <pt x="354" y="483" on="0"/>
        <pt x="371" y="484" on="0"/>
        <pt x="379" y="473" on="1"/>
        <pt x="379" y="455" on="0"/>
        <pt x="343" y="421" on="0"/>
        <pt x="289" y="387" on="0"/>
        <pt x="226" y="355" on="0"/>
        <pt x="172" y="325" on="0"/>
        <pt x="136" y="295" on="0"/>
        <pt x="136" y="282" on="1"/>
        <pt x="136" y="89" on="1"/>
        <pt x="149" y="84" on="0"/>
        <pt x="196" y="103" on="0"/>
        <pt x="225" y="120" on="1"/>
        <pt x="245" y="131" on="0"/>
        <pt x="267" y="146" on="1"/>
        <pt x="280" y="157" on="0"/>
        <pt x="294" y="166" on="1"/>
        <pt x="320" y="184" on="0"/>
        <pt x="346" y="202" on="1"/>
        <pt x="375" y="222" on="0"/>
        <pt x="426" y="254" on="0"/>
        <pt x="443" y="257" on="1"/>
        <pt x="453" y="257" on="0"/>
        <pt x="469" y="249" on="0"/>
        <pt x="469" y="237" on="1"/>
        <pt x="469" y="225" on="0"/>
        <pt x="455" y="218" on="1"/>
        <pt x="420" y="197" on="0"/>
        <pt x="374" y="166" on="1"/>
        <pt x="355" y="152" on="0"/>
        <pt x="335" y="138" on="1"/>
        <pt x="332" y="131" on="0"/>
        <pt x="328" y="126" on="1"/>
        <pt x="319" y="115" on="0"/>
        <pt x="306" y="115" on="1"/>
        <pt x="285" y="89" on="0"/>
        <pt x="263" y="36" on="0"/>
        <pt x="262" y="-8" on="0"/>
        <pt x="283" y="-39" on="0"/>
        <pt x="307" y="-42" on="1"/>
        <pt x="323" y="-42" on="0"/>
        <pt x="355" y="-32" on="0"/>
        <pt x="386" y="-18" on="0"/>
        <pt x="418" y="-7" on="0"/>
      </contour>
    </TTGlyph>
    <TTGlyph name="Eth" xMin="18" yMin="-1" xMax="545" yMax="760">
      <contour>
        <pt x="18" y="214" on="1"/>
        <pt x="18" y="218" on="0"/>
        <pt x="29" y="238" on="0"/>
        <pt x="31" y="240" on="1"/>
        <pt x="62" y="242" on="0"/>
        <pt x="106" y="248" on="0"/>
        <pt x="124" y="253" on="1"/>
        <pt x="98" y="615" on="1"/>
        <pt x="95" y="613" on="0"/>
        <pt x="80" y="606" on="0"/>
        <pt x="64" y="598" on="0"/>
        <pt x="49" y="589" on="0"/>
        <pt x="47" y="589" on="1"/>
        <pt x="46" y="589" on="0"/>
        <pt x="41" y="588" on="0"/>
        <pt x="40" y="588" on="1"/>
        <pt x="35" y="588" on="0"/>
        <pt x="22" y="593" on="0"/>
        <pt x="22" y="602" on="1"/>
        <pt x="22" y="617" on="0"/>
        <pt x="35" y="636" on="0"/>
        <pt x="56" y="652" on="0"/>
        <pt x="80" y="668" on="0"/>
        <pt x="101" y="693" on="0"/>
        <pt x="114" y="731" on="0"/>
        <pt x="114" y="760" on="1"/>
        <pt x="134" y="760" on="0"/>
        <pt x="144" y="746" on="0"/>
        <pt x="146" y="727" on="0"/>
        <pt x="149" y="708" on="0"/>
        <pt x="162" y="704" on="1"/>
        <pt x="190" y="705" on="0"/>
        <pt x="269" y="703" on="0"/>
        <pt x="356" y="692" on="0"/>
        <pt x="441" y="670" on="0"/>
        <pt x="508" y="630" on="0"/>
        <pt x="547" y="569" on="0"/>
        <pt x="545" y="525" on="1"/>
        <pt x="532" y="448" on="0"/>
        <pt x="459" y="306" on="0"/>
        <pt x="360" y="175" on="0"/>
        <pt x="245" y="55" on="0"/>
        <pt x="188" y="0" on="1"/>
        <pt x="187" y="0" on="0"/>
        <pt x="183" y="-1" on="0"/>
        <pt x="182" y="-1" on="1"/>
        <pt x="173" y="-1" on="0"/>
        <pt x="161" y="11" on="0"/>
        <pt x="161" y="20" on="1"/>
        <pt x="161" y="40" on="0"/>
        <pt x="211" y="103" on="0"/>
        <pt x="285" y="183" on="0"/>
        <pt x="373" y="277" on="0"/>
        <pt x="447" y="378" on="0"/>
        <pt x="497" y="483" on="0"/>
        <pt x="497" y="534" on="1"/>
        <pt x="497" y="561" on="0"/>
        <pt x="467" y="600" on="0"/>
        <pt x="420" y="628" on="0"/>
        <pt x="361" y="644" on="0"/>
        <pt x="301" y="653" on="0"/>
        <pt x="247" y="656" on="0"/>
        <pt x="228" y="656" on="1"/>
        <pt x="223" y="656" on="0"/>
        <pt x="207" y="655" on="0"/>
        <pt x="190" y="654" on="0"/>
        <pt x="176" y="652" on="0"/>
        <pt x="175" y="652" on="1"/>
        <pt x="162" y="640" on="1"/>
        <pt x="162" y="638" on="0"/>
        <pt x="161" y="608" on="0"/>
        <pt x="160" y="570" on="0"/>
        <pt x="160" y="550" on="1"/>
        <pt x="160" y="519" on="1"/>
        <pt x="160" y="454" on="0"/>
        <pt x="167" y="328" on="0"/>
        <pt x="171" y="265" on="1"/>
        <pt x="191" y="269" on="0"/>
        <pt x="236" y="276" on="0"/>
        <pt x="269" y="276" on="1"/>
        <pt x="274" y="276" on="0"/>
        <pt x="281" y="266" on="0"/>
        <pt x="283" y="254" on="0"/>
        <pt x="283" y="247" on="1"/>
        <pt x="283" y="240" on="1"/>
        <pt x="283" y="237" on="0"/>
        <pt x="282" y="225" on="0"/>
        <pt x="282" y="224" on="1"/>
        <pt x="174" y="192" on="1"/>
        <pt x="175" y="174" on="0"/>
        <pt x="175" y="136" on="0"/>
        <pt x="175" y="118" on="1"/>
        <pt x="175" y="112" on="0"/>
        <pt x="176" y="98" on="0"/>
        <pt x="174" y="85" on="0"/>
        <pt x="165" y="76" on="0"/>
        <pt x="156" y="76" on="1"/>
        <pt x="150" y="76" on="0"/>
        <pt x="138" y="82" on="0"/>
        <pt x="137" y="89" on="1"/>
        <pt x="137" y="140" on="0"/>
        <pt x="122" y="187" on="0"/>
        <pt x="101" y="203" on="0"/>
        <pt x="76" y="200" on="0"/>
        <pt x="66" y="200" on="1"/>
        <pt x="58" y="199" on="1"/>
        <pt x="50" y="199" on="0"/>
        <pt x="32" y="201" on="0"/>
        <pt x="18" y="207" on="0"/>
      </contour>
    </TTGlyph>
    <TTGlyph name="Euro" xMin="9" yMin="-10" xMax="579" yMax="746">
      <contour>
        <pt x="32" y="378" on="1"/>
        <pt x="32" y="380" on="0"/>
        <pt x="34" y="394" on="0"/>
        <pt x="35" y="397" on="1"/>
        <pt x="50" y="399" on="0"/>
        <pt x="120" y="409" on="0"/>
        <pt x="162" y="414" on="1"/>
        <pt x="176" y="474" on="0"/>
        <pt x="217" y="593" on="0"/>
        <pt x="271" y="688" on="0"/>
        <pt x="338" y="746" on="0"/>
        <pt x="379" y="746" on="1"/>
        <pt x="403" y="746" on="0"/>
        <pt x="438" y="728" on="0"/>
        <pt x="462" y="697" on="0"/>
        <pt x="472" y="658" on="0"/>
        <pt x="472" y="635" on="1"/>
        <pt x="454" y="635" on="0"/>
        <pt x="433" y="654" on="0"/>
        <pt x="415" y="676" on="0"/>
        <pt x="395" y="695" on="0"/>
        <pt x="380" y="695" on="1"/>
        <pt x="351" y="695" on="0"/>
        <pt x="301" y="646" on="0"/>
        <pt x="261" y="569" on="0"/>
        <pt x="228" y="470" on="0"/>
        <pt x="215" y="420" on="1"/>
        <pt x="253" y="425" on="0"/>
        <pt x="316" y="433" on="0"/>
        <pt x="329" y="435" on="1"/>
        <pt x="331" y="435" on="0"/>
        <pt x="347" y="436" on="0"/>
        <pt x="365" y="436" on="0"/>
        <pt x="382" y="437" on="0"/>
        <pt x="383" y="437" on="1"/>
        <pt x="383" y="426" on="0"/>
        <pt x="351" y="404" on="0"/>
        <pt x="300" y="385" on="0"/>
        <pt x="235" y="370" on="0"/>
        <pt x="202" y="364" on="1"/>
        <pt x="190" y="302" on="0"/>
        <pt x="184" y="258" on="1"/>
        <pt x="242" y="276" on="0"/>
        <pt x="356" y="311" on="0"/>
        <pt x="418" y="311" on="1"/>
        <pt x="418" y="283" on="0"/>
        <pt x="372" y="255" on="0"/>
        <pt x="311" y="241" on="0"/>
        <pt x="252" y="237" on="0"/>
        <pt x="239" y="233" on="1"/>
        <pt x="232" y="231" on="0"/>
        <pt x="200" y="221" on="0"/>
        <pt x="181" y="215" on="1"/>
        <pt x="181" y="205" on="1"/>
        <pt x="181" y="176" on="0"/>
        <pt x="186" y="121" on="0"/>
        <pt x="206" y="77" on="0"/>
        <pt x="245" y="50" on="0"/>
        <pt x="279" y="50" on="1"/>
        <pt x="319" y="50" on="0"/>
        <pt x="399" y="68" on="0"/>
        <pt x="466" y="103" on="0"/>
        <pt x="517" y="154" on="0"/>
        <pt x="527" y="186" on="1"/>
        <pt x="529" y="187" on="0"/>
        <pt x="544" y="188" on="0"/>
        <pt x="545" y="188" on="1"/>
        <pt x="557" y="188" on="0"/>
        <pt x="579" y="183" on="0"/>
        <pt x="579" y="167" on="1"/>
        <pt x="572" y="135" on="0"/>
        <pt x="528" y="80" on="0"/>
        <pt x="468" y="37" on="0"/>
        <pt x="397" y="6" on="0"/>
        <pt x="328" y="-10" on="0"/>
        <pt x="270" y="-9" on="0"/>
        <pt x="252" y="0" on="1"/>
        <pt x="220" y="0" on="0"/>
        <pt x="173" y="37" on="0"/>
        <pt x="143" y="91" on="0"/>
        <pt x="130" y="153" on="0"/>
        <pt x="130" y="179" on="1"/>
        <pt x="130" y="199" on="1"/>
        <pt x="103" y="189" on="0"/>
        <pt x="58" y="174" on="0"/>
        <pt x="48" y="169" on="1"/>
        <pt x="37" y="174" on="0"/>
        <pt x="28" y="178" on="1"/>
        <pt x="21" y="183" on="0"/>
        <pt x="9" y="191" on="0"/>
        <pt x="9" y="195" on="1"/>
        <pt x="9" y="199" on="0"/>
        <pt x="19" y="219" on="0"/>
        <pt x="22" y="221" on="1"/>
        <pt x="50" y="223" on="0"/>
        <pt x="106" y="235" on="0"/>
        <pt x="133" y="242" on="1"/>
        <pt x="135" y="266" on="0"/>
        <pt x="144" y="323" on="0"/>
        <pt x="149" y="355" on="1"/>
        <pt x="121" y="350" on="0"/>
        <pt x="76" y="346" on="0"/>
        <pt x="67" y="346" on="1"/>
        <pt x="32" y="346" on="0"/>
      </contour>
    </TTGlyph>
    <TTGlyph name="F" xMin="30" yMin="-1" xMax="427" yMax="717">
      <contour>
        <pt x="30" y="660" on="1"/>
        <pt x="30" y="670" on="0"/>
        <pt x="42" y="679" on="0"/>
        <pt x="60" y="683" on="0"/>
        <pt x="80" y="683" on="0"/>
        <pt x="87" y="684" on="1"/>
        <pt x="87" y="589" on="1"/>
        <pt x="153" y="608" on="0"/>
        <pt x="237" y="647" on="0"/>
        <pt x="303" y="680" on="0"/>
        <pt x="368" y="707" on="0"/>
        <pt x="414" y="717" on="1"/>
        <pt x="421" y="717" on="0"/>
        <pt x="427" y="703" on="0"/>
        <pt x="427" y="697" on="1"/>
        <pt x="427" y="686" on="0"/>
        <pt x="414" y="679" on="1"/>
        <pt x="93" y="525" on="1"/>
        <pt x="106" y="243" on="1"/>
        <pt x="180" y="284" on="0"/>
        <pt x="282" y="342" on="0"/>
        <pt x="348" y="380" on="0"/>
        <pt x="385" y="400" on="0"/>
        <pt x="394" y="404" on="1"/>
        <pt x="405" y="409" on="1"/>
        <pt x="407" y="410" on="0"/>
        <pt x="408" y="410" on="1"/>
        <pt x="410" y="410" on="0"/>
        <pt x="412" y="403" on="0"/>
        <pt x="412" y="398" on="1"/>
        <pt x="412" y="386" on="1"/>
        <pt x="412" y="381" on="0"/>
        <pt x="414" y="377" on="1"/>
        <pt x="409" y="371" on="0"/>
        <pt x="360" y="339" on="0"/>
        <pt x="292" y="298" on="0"/>
        <pt x="215" y="253" on="0"/>
        <pt x="149" y="213" on="0"/>
        <pt x="106" y="184" on="0"/>
        <pt x="106" y="179" on="1"/>
        <pt x="106" y="26" on="1"/>
        <pt x="106" y="13" on="0"/>
        <pt x="97" y="-1" on="0"/>
        <pt x="87" y="-1" on="1"/>
        <pt x="76" y="-1" on="0"/>
        <pt x="59" y="49" on="0"/>
        <pt x="48" y="132" on="0"/>
        <pt x="40" y="240" on="0"/>
        <pt x="34" y="356" on="0"/>
        <pt x="31" y="472" on="0"/>
        <pt x="30" y="571" on="0"/>
        <pt x="30" y="607" on="1"/>
      </contour>
    </TTGlyph>
    <TTGlyph name="G" xMin="22" yMin="-115" xMax="587" yMax="667">
      <contour>
        <pt x="456" y="179" on="1"/>
        <pt x="427" y="154" on="0"/>
        <pt x="364" y="95" on="0"/>
        <pt x="293" y="45" on="0"/>
        <pt x="217" y="12" on="0"/>
        <pt x="175" y="12" on="1"/>
        <pt x="153" y="12" on="0"/>
        <pt x="101" y="23" on="0"/>
        <pt x="56" y="49" on="0"/>
        <pt x="23" y="88" on="0"/>
        <pt x="22" y="115" on="1"/>
        <pt x="18" y="153" on="0"/>
        <pt x="43" y="264" on="0"/>
        <pt x="93" y="387" on="0"/>
        <pt x="162" y="508" on="0"/>
        <pt x="244" y="607" on="0"/>
        <pt x="335" y="667" on="0"/>
        <pt x="382" y="667" on="1"/>
        <pt x="389" y="667" on="0"/>
        <pt x="406" y="664" on="0"/>
        <pt x="421" y="658" on="0"/>
        <pt x="431" y="645" on="0"/>
        <pt x="431" y="634" on="1"/>
        <pt x="431" y="629" on="0"/>
        <pt x="386" y="613" on="0"/>
        <pt x="328" y="594" on="0"/>
        <pt x="274" y="573" on="0"/>
        <pt x="265" y="563" on="1"/>
        <pt x="229" y="517" on="0"/>
        <pt x="164" y="421" on="0"/>
        <pt x="113" y="319" on="0"/>
        <pt x="78" y="211" on="0"/>
        <pt x="72" y="154" on="1"/>
        <pt x="72" y="126" on="0"/>
        <pt x="94" y="95" on="0"/>
        <pt x="129" y="80" on="0"/>
        <pt x="175" y="77" on="0"/>
        <pt x="198" y="77" on="1"/>
        <pt x="238" y="81" on="0"/>
        <pt x="318" y="128" on="0"/>
        <pt x="389" y="198" on="0"/>
        <pt x="447" y="287" on="0"/>
        <pt x="467" y="333" on="1"/>
        <pt x="311" y="333" on="1"/>
        <pt x="311" y="345" on="0"/>
        <pt x="340" y="365" on="0"/>
        <pt x="385" y="382" on="0"/>
        <pt x="441" y="396" on="0"/>
        <pt x="495" y="406" on="0"/>
        <pt x="541" y="410" on="0"/>
        <pt x="554" y="410" on="1"/>
        <pt x="565" y="410" on="1"/>
        <pt x="572" y="410" on="0"/>
        <pt x="584" y="406" on="0"/>
        <pt x="589" y="395" on="0"/>
        <pt x="584" y="384" on="1"/>
        <pt x="583" y="382" on="0"/>
        <pt x="572" y="374" on="0"/>
        <pt x="559" y="366" on="0"/>
        <pt x="547" y="359" on="0"/>
        <pt x="545" y="358" on="1"/>
        <pt x="524" y="316" on="0"/>
        <pt x="506" y="202" on="0"/>
        <pt x="504" y="80" on="0"/>
        <pt x="514" y="-41" on="0"/>
        <pt x="521" y="-89" on="1"/>
        <pt x="482" y="-115" on="1"/>
        <pt x="470" y="-103" on="0"/>
        <pt x="455" y="-59" on="0"/>
        <pt x="449" y="-5" on="0"/>
        <pt x="449" y="55" on="0"/>
        <pt x="452" y="112" on="0"/>
        <pt x="455" y="162" on="0"/>
      </contour>
    </TTGlyph>
    <TTGlyph name="Gbreve" xMin="22" yMin="-115" xMax="587" yMax="839">
      <component glyphName="G" x="0" y="0" flags="0x1204"/>
      <component glyphName="breve" x="139" y="81" flags="0x1004"/>
    </TTGlyph>
    <TTGlyph name="Gcircumflex" xMin="22" yMin="-115" xMax="587" yMax="955">
      <component glyphName="G" x="0" y="0" flags="0x1204"/>
      <component glyphName="circumflex" x="96" y="0" flags="0x1004"/>
    </TTGlyph>
    <TTGlyph name="Gcommaaccent" xMin="22" yMin="-332" xMax="587" yMax="667">
      <component glyphName="G" x="0" y="0" flags="0x1204"/>
      <component glyphName="commaaccent" x="85" y="0" flags="0x1004"/>
    </TTGlyph>
    <TTGlyph name="Gdotaccent" xMin="41" yMin="-103" xMax="606" yMax="827">
      <component glyphName="G" x="19" y="12" flags="0x1204"/>
      <component glyphName="dotaccent" x="258" y="202" flags="0x1004"/>
    </TTGlyph>
    <TTGlyph name="H" xMin="30" yMin="-3" xMax="401" yMax="680">
      <contour>
        <pt x="326" y="346" on="1"/>
        <pt x="315" y="338" on="0"/>
        <pt x="260" y="307" on="0"/>
        <pt x="198" y="271" on="0"/>
        <pt x="142" y="238" on="0"/>
        <pt x="131" y="230" on="1"/>
        <pt x="109" y="213" on="0"/>
        <pt x="93" y="169" on="0"/>
        <pt x="93" y="118" on="0"/>
        <pt x="103" y="63" on="0"/>
        <pt x="105" y="35" on="1"/>
        <pt x="105" y="21" on="0"/>
        <pt x="87" y="-3" on="0"/>
        <pt x="73" y="-3" on="1"/>
        <pt x="67" y="-3" on="0"/>
        <pt x="53" y="4" on="0"/>
        <pt x="53" y="11" on="1"/>
        <pt x="30" y="652" on="1"/>
        <pt x="30" y="658" on="0"/>
        <pt x="39" y="678" on="0"/>
        <pt x="42" y="679" on="1"/>
        <pt x="45" y="679" on="0"/>
        <pt x="56" y="677" on="0"/>
        <pt x="68" y="672" on="0"/>
        <pt x="79" y="667" on="0"/>
        <pt x="81" y="665" on="1"/>
        <pt x="85" y="625" on="0"/>
        <pt x="87" y="521" on="0"/>
        <pt x="90" y="415" on="0"/>
        <pt x="97" y="316" on="0"/>
        <pt x="106" y="282" on="1"/>
        <pt x="149" y="300" on="0"/>
        <pt x="225" y="332" on="0"/>
        <pt x="281" y="374" on="0"/>
        <pt x="313" y="435" on="0"/>
        <pt x="312" y="481" on="1"/>
        <pt x="312" y="506" on="0"/>
        <pt x="310" y="544" on="0"/>
        <pt x="304" y="581" on="0"/>
        <pt x="293" y="624" on="0"/>
        <pt x="285" y="652" on="1"/>
        <pt x="283" y="670" on="0"/>
        <pt x="299" y="680" on="0"/>
        <pt x="310" y="680" on="1"/>
        <pt x="323" y="680" on="0"/>
        <pt x="337" y="668" on="0"/>
        <pt x="346" y="648" on="0"/>
        <pt x="348" y="625" on="0"/>
        <pt x="349" y="615" on="1"/>
        <pt x="351" y="599" on="0"/>
        <pt x="357" y="535" on="0"/>
        <pt x="364" y="454" on="0"/>
        <pt x="373" y="364" on="0"/>
        <pt x="381" y="284" on="0"/>
        <pt x="386" y="220" on="0"/>
        <pt x="388" y="204" on="1"/>
        <pt x="391" y="166" on="0"/>
        <pt x="401" y="92" on="0"/>
        <pt x="401" y="53" on="1"/>
        <pt x="401" y="37" on="1"/>
        <pt x="401" y="29" on="0"/>
        <pt x="398" y="14" on="0"/>
        <pt x="387" y="3" on="0"/>
        <pt x="375" y="0" on="1"/>
        <pt x="357" y="13" on="0"/>
        <pt x="351" y="45" on="0"/>
        <pt x="349" y="64" on="1"/>
        <pt x="348" y="75" on="0"/>
        <pt x="346" y="120" on="0"/>
        <pt x="341" y="175" on="0"/>
        <pt x="336" y="236" on="0"/>
        <pt x="331" y="291" on="0"/>
        <pt x="327" y="335" on="0"/>
      </contour>
    </TTGlyph>
    <TTGlyph name="Hbar" xMin="15" yMin="-3" xMax="401" yMax="680">
      <contour>
        <pt x="15" y="460" on="1"/>
        <pt x="15" y="463" on="0"/>
        <pt x="26" y="483" on="0"/>
        <pt x="29" y="486" on="1"/>
        <pt x="35" y="486" on="1"/>
        <pt x="30" y="652" on="1"/>
        <pt x="30" y="658" on="0"/>
        <pt x="39" y="678" on="0"/>
        <pt x="42" y="679" on="1"/>
        <pt x="45" y="679" on="0"/>
        <pt x="56" y="677" on="0"/>
        <pt x="68" y="672" on="0"/>
        <pt x="79" y="667" on="0"/>
        <pt x="81" y="665" on="1"/>
        <pt x="85" y="625" on="0"/>
        <pt x="85" y="573" on="1"/>
        <pt x="86" y="532" on="0"/>
        <pt x="88" y="490" on="1"/>
        <pt x="117" y="494" on="1"/>
        <pt x="161" y="499" on="0"/>
        <pt x="247" y="512" on="0"/>
        <pt x="289" y="517" on="1"/>
        <pt x="301" y="517" on="0"/>
        <pt x="311" y="518" on="1"/>
        <pt x="311" y="525" on="1"/>
        <pt x="310" y="544" on="0"/>
        <pt x="304" y="581" on="0"/>
        <pt x="293" y="624" on="0"/>
        <pt x="285" y="652" on="1"/>
        <pt x="283" y="670" on="0"/>
        <pt x="299" y="680" on="0"/>
        <pt x="310" y="680" on="1"/>
        <pt x="323" y="680" on="0"/>
        <pt x="337" y="668" on="0"/>
        <pt x="346" y="648" on="0"/>
        <pt x="348" y="625" on="0"/>
        <pt x="349" y="615" on="1"/>
        <pt x="351" y="599" on="0"/>
        <pt x="354" y="567" on="1"/>
        <pt x="356" y="545" on="0"/>
        <pt x="358" y="521" on="1"/>
        <pt x="371" y="521" on="1"/>
        <pt x="376" y="521" on="0"/>
        <pt x="382" y="511" on="0"/>
        <pt x="385" y="499" on="0"/>
        <pt x="385" y="492" on="1"/>
        <pt x="385" y="485" on="1"/>
        <pt x="385" y="481" on="0"/>
        <pt x="383" y="470" on="0"/>
        <pt x="383" y="469" on="1"/>
        <pt x="363" y="467" on="1"/>
        <pt x="365" y="439" on="0"/>
        <pt x="369" y="409" on="1"/>
        <pt x="373" y="364" on="0"/>
        <pt x="381" y="284" on="0"/>
        <pt x="386" y="220" on="0"/>
        <pt x="388" y="204" on="1"/>
        <pt x="391" y="166" on="0"/>
        <pt x="401" y="92" on="0"/>
        <pt x="401" y="53" on="1"/>
        <pt x="401" y="37" on="1"/>
        <pt x="401" y="29" on="0"/>
        <pt x="398" y="14" on="0"/>
        <pt x="387" y="3" on="0"/>
        <pt x="375" y="0" on="1"/>
        <pt x="357" y="13" on="0"/>
        <pt x="351" y="45" on="0"/>
        <pt x="349" y="64" on="1"/>
        <pt x="348" y="75" on="0"/>
        <pt x="346" y="120" on="0"/>
        <pt x="341" y="175" on="0"/>
        <pt x="336" y="236" on="0"/>
        <pt x="331" y="291" on="0"/>
        <pt x="327" y="335" on="0"/>
        <pt x="326" y="346" on="1"/>
        <pt x="315" y="338" on="0"/>
        <pt x="260" y="307" on="0"/>
        <pt x="198" y="271" on="0"/>
        <pt x="142" y="238" on="0"/>
        <pt x="131" y="230" on="1"/>
        <pt x="109" y="213" on="0"/>
        <pt x="93" y="169" on="0"/>
        <pt x="93" y="118" on="0"/>
        <pt x="103" y="63" on="0"/>
        <pt x="105" y="35" on="1"/>
        <pt x="105" y="21" on="0"/>
        <pt x="87" y="-3" on="0"/>
        <pt x="73" y="-3" on="1"/>
        <pt x="67" y="-3" on="0"/>
        <pt x="53" y="4" on="0"/>
        <pt x="53" y="11" on="1"/>
        <pt x="37" y="445" on="1"/>
        <pt x="29" y="446" on="0"/>
        <pt x="22" y="449" on="1"/>
        <pt x="15" y="453" on="0"/>
      </contour>
      <contour>
        <pt x="94" y="365" on="1"/>
        <pt x="97" y="316" on="0"/>
        <pt x="106" y="282" on="1"/>
        <pt x="149" y="300" on="0"/>
        <pt x="225" y="332" on="0"/>
        <pt x="281" y="374" on="0"/>
        <pt x="297" y="404" on="1"/>
        <pt x="310" y="428" on="0"/>
        <pt x="311" y="463" on="1"/>
        <pt x="92" y="447" on="1"/>
        <pt x="91" y="446" on="0"/>
        <pt x="89" y="446" on="1"/>
        <pt x="91" y="405" on="0"/>
      </contour>
    </TTGlyph>
    <TTGlyph name="Hcircumflex" xMin="25" yMin="-3" xMax="401" yMax="1049">
      <component glyphName="H" x="0" y="0" flags="0x1204"/>
      <component glyphName="circumflex" x="-3" y="94" flags="0x1004"/>
    </TTGlyph>
    <TTGlyph name="I" xMin="52" yMin="7" xMax="128" yMax="763">
      <contour>
        <pt x="52" y="747" on="1"/>
        <pt x="52" y="755" on="0"/>
        <pt x="63" y="762" on="0"/>
        <pt x="78" y="763" on="0"/>
        <pt x="95" y="761" on="0"/>
        <pt x="101" y="761" on="1"/>
        <pt x="106" y="749" on="0"/>
        <pt x="113" y="678" on="0"/>
        <pt x="120" y="577" on="0"/>
        <pt x="123" y="455" on="0"/>
        <pt x="126" y="330" on="0"/>
        <pt x="127" y="210" on="0"/>
        <pt x="128" y="111" on="0"/>
        <pt x="128" y="76" on="1"/>
        <pt x="128" y="31" on="1"/>
        <pt x="127" y="11" on="0"/>
        <pt x="112" y="4" on="0"/>
        <pt x="85" y="12" on="1"/>
        <pt x="82" y="13" on="0"/>
        <pt x="78" y="71" on="0"/>
        <pt x="76" y="166" on="0"/>
        <pt x="74" y="289" on="0"/>
        <pt x="72" y="419" on="0"/>
        <pt x="69" y="549" on="0"/>
        <pt x="65" y="656" on="0"/>
        <pt x="58" y="733" on="0"/>
      </contour>
    </TTGlyph>
    <TTGlyph name="Iacute" xMin="34" yMin="7" xMax="156" yMax="956">
      <component glyphName="I" x="0" y="0" flags="0x1204"/>
      <component glyphName="acute" x="15" y="214" flags="0x1004"/>
    </TTGlyph>
    <TTGlyph name="Ibreve" xMin="-36" yMin="7" xMax="214" yMax="995">
      <component glyphName="I" x="0" y="0" flags="0x1204"/>
      <component glyphName="breve" x="-104" y="237" flags="0x1004"/>
    </TTGlyph>
    <TTGlyph name="Icircumflex" xMin="-77" yMin="7" xMax="279" yMax="1049">
      <component glyphName="I" x="0" y="0" flags="0x1204"/>
      <component glyphName="circumflex" x="-105" y="94" flags="0x1004"/>
    </TTGlyph>
    <TTGlyph name="Idieresis" xMin="-14" yMin="7" xMax="196" yMax="905">
      <component glyphName="I" x="0" y="0" flags="0x1204"/>
      <component glyphName="dieresis" x="-76" y="140" flags="0x1004"/>
    </TTGlyph>
    <TTGlyph name="Idotaccent" xMin="41" yMin="11" xMax="119" yMax="908">
      <component glyphName="I" x="-11" y="4" flags="0x1204"/>
      <component glyphName="dotaccent" x="22" y="283" flags="0x1004"/>
    </TTGlyph>
    <TTGlyph name="Igrave" xMin="17" yMin="7" xMax="128" yMax="959">
      <component glyphName="I" x="0" y="0" flags="0x1204"/>
      <component glyphName="grave" x="0" y="202" flags="0x1004"/>
    </TTGlyph>
    <TTGlyph name="Iogonek" xMin="10" yMin="-197" xMax="249" yMax="763">
      <contour>
        <pt x="235" y="-109" on="1"/>
        <pt x="255" y="-123" on="0"/>
        <pt x="243" y="-159" on="0"/>
        <pt x="197" y="-189" on="0"/>
        <pt x="126" y="-204" on="0"/>
        <pt x="86" y="-197" on="1"/>
        <pt x="49" y="-186" on="0"/>
        <pt x="9" y="-121" on="0"/>
        <pt x="11" y="-39" on="0"/>
        <pt x="33" y="2" on="1"/>
        <pt x="49" y="32" on="0"/>
        <pt x="79" y="54" on="1"/>
        <pt x="77" y="81" on="0"/>
        <pt x="76" y="119" on="1"/>
        <pt x="76" y="166" on="0"/>
        <pt x="74" y="289" on="0"/>
        <pt x="72" y="419" on="0"/>
        <pt x="69" y="549" on="0"/>
        <pt x="65" y="656" on="0"/>
        <pt x="58" y="733" on="0"/>
        <pt x="52" y="747" on="1"/>
        <pt x="52" y="755" on="0"/>
        <pt x="63" y="762" on="0"/>
        <pt x="78" y="763" on="0"/>
        <pt x="95" y="761" on="0"/>
        <pt x="101" y="761" on="1"/>
        <pt x="106" y="749" on="0"/>
        <pt x="113" y="678" on="0"/>
        <pt x="120" y="577" on="0"/>
        <pt x="123" y="455" on="0"/>
        <pt x="126" y="330" on="0"/>
        <pt x="127" y="210" on="0"/>
        <pt x="128" y="111" on="0"/>
        <pt x="128" y="76" on="1"/>
        <pt x="128" y="67" on="1"/>
        <pt x="137" y="63" on="0"/>
        <pt x="137" y="47" on="1"/>
        <pt x="137" y="35" on="0"/>
        <pt x="128" y="24" on="1"/>
        <pt x="127" y="23" on="1"/>
        <pt x="125" y="10" on="0"/>
        <pt x="119" y="7" on="1"/>
        <pt x="114" y="4" on="0"/>
        <pt x="101" y="7" on="1"/>
        <pt x="84" y="-15" on="0"/>
        <pt x="74" y="-39" on="1"/>
        <pt x="63" y="-66" on="0"/>
        <pt x="62" y="-110" on="0"/>
        <pt x="84" y="-140" on="0"/>
        <pt x="107" y="-144" on="1"/>
        <pt x="123" y="-144" on="0"/>
        <pt x="155" y="-133" on="0"/>
        <pt x="186" y="-120" on="0"/>
        <pt x="218" y="-109" on="0"/>
      </contour>
    </TTGlyph>
    <TTGlyph name="Itilde" xMin="-106" yMin="7" xMax="277" yMax="1007">
      <component glyphName="I" x="0" y="0" flags="0x1204"/>
      <component glyphName="tilde" x="-144" y="276" flags="0x1004"/>
    </TTGlyph>
    <TTGlyph name="J" xMin="13" yMin="-65" xMax="347" yMax="731">
      <contour>
        <pt x="13" y="141" on="1"/>
        <pt x="13" y="144" on="0"/>
        <pt x="23" y="154" on="0"/>
        <pt x="26" y="154" on="1"/>
        <pt x="39" y="125" on="0"/>
        <pt x="71" y="61" on="0"/>
        <pt x="114" y="7" on="0"/>
        <pt x="170" y="-28" on="0"/>
        <pt x="206" y="-28" on="1"/>
        <pt x="238" y="-28" on="0"/>
        <pt x="286" y="6" on="0"/>
        <pt x="295" y="39" on="1"/>
        <pt x="301" y="121" on="0"/>
        <pt x="287" y="283" on="0"/>
        <pt x="265" y="444" on="0"/>
        <pt x="243" y="605" on="0"/>
        <pt x="242" y="687" on="1"/>
        <pt x="242" y="692" on="0"/>
        <pt x="241" y="707" on="0"/>
        <pt x="245" y="721" on="0"/>
        <pt x="253" y="731" on="0"/>
        <pt x="263" y="731" on="1"/>
        <pt x="274" y="731" on="0"/>
        <pt x="282" y="717" on="1"/>
        <pt x="307" y="571" on="0"/>
        <pt x="347" y="269" on="0"/>
        <pt x="347" y="121" on="1"/>
        <pt x="347" y="81" on="0"/>
        <pt x="336" y="13" on="0"/>
        <pt x="304" y="-36" on="0"/>
        <pt x="248" y="-65" on="0"/>
        <pt x="204" y="-65" on="1"/>
        <pt x="166" y="-65" on="0"/>
        <pt x="97" y="-30" on="0"/>
        <pt x="44" y="29" on="0"/>
        <pt x="13" y="103" on="0"/>
      </contour>
    </TTGlyph>
    <TTGlyph name="Jcircumflex" xMin="13" yMin="-65" xMax="430" yMax="1005">
      <component glyphName="J" x="0" y="0" flags="0x1204"/>
      <component glyphName="circumflex" x="46" y="50" flags="0x1004"/>
    </TTGlyph>
    <TTGlyph name="K" xMin="26" yMin="12" xMax="534" yMax="692">
      <contour>
        <pt x="26" y="665" on="1"/>
        <pt x="28" y="676" on="0"/>
        <pt x="47" y="692" on="0"/>
        <pt x="58" y="692" on="1"/>
        <pt x="64" y="692" on="0"/>
        <pt x="75" y="683" on="0"/>
        <pt x="83" y="670" on="0"/>
        <pt x="89" y="657" on="0"/>
        <pt x="89" y="652" on="1"/>
        <pt x="128" y="307" on="1"/>
        <pt x="134" y="313" on="0"/>
        <pt x="173" y="378" on="0"/>
        <pt x="226" y="465" on="0"/>
        <pt x="287" y="559" on="0"/>
        <pt x="345" y="628" on="0"/>
        <pt x="391" y="657" on="0"/>
        <pt x="404" y="637" on="1"/>
        <pt x="359" y="565" on="0"/>
        <pt x="291" y="466" on="0"/>
        <pt x="240" y="395" on="0"/>
        <pt x="205" y="344" on="0"/>
        <pt x="179" y="297" on="0"/>
        <pt x="161" y="246" on="0"/>
        <pt x="153" y="211" on="1"/>
        <pt x="153" y="207" on="0"/>
        <pt x="158" y="202" on="0"/>
        <pt x="181" y="195" on="0"/>
        <pt x="229" y="191" on="0"/>
        <pt x="313" y="187" on="0"/>
        <pt x="441" y="185" on="0"/>
        <pt x="534" y="185" on="1"/>
        <pt x="534" y="170" on="0"/>
        <pt x="519" y="141" on="0"/>
        <pt x="499" y="141" on="1"/>
        <pt x="141" y="141" on="1"/>
        <pt x="149" y="113" on="0"/>
        <pt x="156" y="58" on="0"/>
        <pt x="156" y="31" on="1"/>
        <pt x="156" y="13" on="0"/>
        <pt x="143" y="12" on="0"/>
        <pt x="121" y="12" on="1"/>
        <pt x="121" y="12" on="0"/>
        <pt x="116" y="13" on="0"/>
        <pt x="115" y="13" on="1"/>
        <pt x="113" y="20" on="0"/>
        <pt x="105" y="56" on="0"/>
        <pt x="97" y="96" on="0"/>
        <pt x="90" y="133" on="0"/>
        <pt x="89" y="141" on="1"/>
        <pt x="88" y="151" on="0"/>
        <pt x="82" y="217" on="0"/>
        <pt x="74" y="303" on="0"/>
        <pt x="66" y="401" on="0"/>
        <pt x="58" y="488" on="0"/>
        <pt x="55" y="520" on="1"/>
        <pt x="51" y="563" on="1"/>
        <pt x="51" y="566" on="0"/>
        <pt x="48" y="583" on="0"/>
        <pt x="43" y="603" on="0"/>
        <pt x="40" y="623" on="0"/>
        <pt x="39" y="627" on="1"/>
        <pt x="39" y="628" on="0"/>
        <pt x="34" y="640" on="0"/>
        <pt x="30" y="652" on="0"/>
        <pt x="26" y="663" on="0"/>
      </contour>
    </TTGlyph>
    <TTGlyph name="Kcommaaccent" xMin="26" yMin="-332" xMax="534" yMax="692">
      <component glyphName="K" x="0" y="0" flags="0x1204"/>
      <component glyphName="commaaccent" x="50" y="0" flags="0x1004"/>
    </TTGlyph>
    <TTGlyph name="L" xMin="29" yMin="0" xMax="542" yMax="642">
      <contour>
        <pt x="49" y="39" on="1"/>
        <pt x="47" y="166" on="0"/>
        <pt x="42" y="347" on="0"/>
        <pt x="38" y="471" on="0"/>
        <pt x="33" y="544" on="0"/>
        <pt x="31" y="588" on="0"/>
        <pt x="29" y="607" on="0"/>
        <pt x="29" y="616" on="1"/>
        <pt x="29" y="633" on="0"/>
        <pt x="49" y="642" on="0"/>
        <pt x="64" y="642" on="1"/>
        <pt x="81" y="642" on="0"/>
        <pt x="100" y="629" on="0"/>
        <pt x="100" y="602" on="1"/>
        <pt x="119" y="64" on="1"/>
        <pt x="120" y="64" on="0"/>
        <pt x="138" y="68" on="0"/>
        <pt x="162" y="76" on="0"/>
        <pt x="188" y="85" on="0"/>
        <pt x="196" y="89" on="1"/>
        <pt x="208" y="94" on="0"/>
        <pt x="256" y="116" on="0"/>
        <pt x="316" y="144" on="0"/>
        <pt x="383" y="175" on="0"/>
        <pt x="444" y="202" on="0"/>
        <pt x="491" y="225" on="0"/>
        <pt x="503" y="230" on="1"/>
        <pt x="515" y="230" on="1"/>
        <pt x="521" y="230" on="0"/>
        <pt x="533" y="228" on="0"/>
        <pt x="541" y="220" on="0"/>
        <pt x="542" y="212" on="1"/>
        <pt x="542" y="202" on="0"/>
        <pt x="535" y="188" on="0"/>
        <pt x="529" y="179" on="1"/>
        <pt x="470" y="168" on="0"/>
        <pt x="357" y="110" on="0"/>
        <pt x="246" y="48" on="0"/>
        <pt x="133" y="0" on="0"/>
        <pt x="74" y="0" on="1"/>
        <pt x="49" y="0" on="0"/>
      </contour>
    </TTGlyph>
    <TTGlyph name="Lacute" xMin="29" yMin="0" xMax="542" yMax="742">
      <component glyphName="L" x="0" y="0" flags="0x1204"/>
      <component glyphName="acute" x="216" y="0" flags="0x1004"/>
    </TTGlyph>
    <TTGlyph name="Lcaron" xMin="29" yMin="0" xMax="542" yMax="940">
      <component glyphName="L" x="0" y="0" flags="0x1204"/>
      <component glyphName="caron" x="1" y="120" flags="0x1004"/>
    </TTGlyph>
    <TTGlyph name="Lcommaaccent" xMin="29" yMin="-332" xMax="542" yMax="642">
      <component glyphName="L" x="0" y="0" flags="0x1204"/>
      <component glyphName="commaaccent" x="57" y="0" flags="0x1004"/>
    </TTGlyph>
    <TTGlyph name="Ldot" xMin="29" yMin="0" xMax="542" yMax="642">
      <component glyphName="L" x="0" y="0" flags="0x1204"/>
      <component glyphName="periodcentered" x="219" y="0" flags="0x1004"/>
    </TTGlyph>
    <TTGlyph name="Lslash" xMin="-36" yMin="0" xMax="542" yMax="642">
      <contour>
        <pt x="-36" y="220" on="1"/>
        <pt x="-36" y="224" on="0"/>
        <pt x="-25" y="244" on="0"/>
        <pt x="-23" y="247" on="1"/>
        <pt x="11" y="248" on="0"/>
        <pt x="44" y="258" on="1"/>
        <pt x="42" y="347" on="0"/>
        <pt x="38" y="471" on="0"/>
        <pt x="33" y="544" on="0"/>
        <pt x="31" y="588" on="0"/>
        <pt x="29" y="607" on="0"/>
        <pt x="29" y="616" on="1"/>
        <pt x="29" y="633" on="0"/>
        <pt x="49" y="642" on="0"/>
        <pt x="64" y="642" on="1"/>
        <pt x="81" y="642" on="0"/>
        <pt x="100" y="629" on="0"/>
        <pt x="100" y="602" on="1"/>
        <pt x="111" y="282" on="1"/>
        <pt x="132" y="291" on="0"/>
        <pt x="155" y="300" on="1"/>
        <pt x="199" y="319" on="0"/>
        <pt x="283" y="349" on="0"/>
        <pt x="323" y="349" on="1"/>
        <pt x="328" y="349" on="0"/>
        <pt x="335" y="339" on="0"/>
        <pt x="337" y="327" on="0"/>
        <pt x="337" y="320" on="1"/>
        <pt x="337" y="313" on="1"/>
        <pt x="337" y="310" on="0"/>
        <pt x="336" y="298" on="0"/>
        <pt x="336" y="297" on="1"/>
        <pt x="112" y="229" on="1"/>
        <pt x="119" y="64" on="1"/>
        <pt x="120" y="64" on="0"/>
        <pt x="138" y="68" on="0"/>
        <pt x="162" y="76" on="0"/>
        <pt x="188" y="85" on="0"/>
        <pt x="196" y="89" on="1"/>
        <pt x="208" y="94" on="0"/>
        <pt x="256" y="116" on="0"/>
        <pt x="316" y="144" on="0"/>
        <pt x="383" y="175" on="0"/>
        <pt x="444" y="202" on="0"/>
        <pt x="491" y="225" on="0"/>
        <pt x="503" y="230" on="1"/>
        <pt x="515" y="230" on="1"/>
        <pt x="521" y="230" on="0"/>
        <pt x="533" y="228" on="0"/>
        <pt x="541" y="220" on="0"/>
        <pt x="542" y="212" on="1"/>
        <pt x="542" y="202" on="0"/>
        <pt x="535" y="188" on="0"/>
        <pt x="529" y="179" on="1"/>
        <pt x="470" y="168" on="0"/>
        <pt x="357" y="110" on="0"/>
        <pt x="246" y="48" on="0"/>
        <pt x="133" y="0" on="0"/>
        <pt x="74" y="0" on="1"/>
        <pt x="49" y="0" on="0"/>
        <pt x="49" y="39" on="1"/>
        <pt x="47" y="134" on="0"/>
        <pt x="46" y="209" on="1"/>
        <pt x="40" y="208" on="1"/>
        <pt x="39" y="207" on="0"/>
        <pt x="17" y="206" on="0"/>
        <pt x="12" y="206" on="1"/>
        <pt x="4" y="205" on="1"/>
        <pt x="-4" y="205" on="0"/>
        <pt x="-22" y="207" on="0"/>
        <pt x="-36" y="213" on="0"/>
      </contour>
    </TTGlyph>
    <TTGlyph name="M" xMin="30" yMin="-2" xMax="669" yMax="782">
      <contour>
        <pt x="542" y="665" on="1"/>
        <pt x="538" y="667" on="0"/>
        <pt x="523" y="618" on="0"/>
        <pt x="499" y="541" on="0"/>
        <pt x="472" y="444" on="0"/>
        <pt x="440" y="348" on="0"/>
        <pt x="408" y="265" on="0"/>
        <pt x="376" y="217" on="0"/>
        <pt x="348" y="212" on="0"/>
        <pt x="337" y="243" on="1"/>
        <pt x="329" y="257" on="0"/>
        <pt x="300" y="318" on="0"/>
        <pt x="262" y="394" on="0"/>
        <pt x="220" y="478" on="0"/>
        <pt x="183" y="553" on="0"/>
        <pt x="152" y="613" on="0"/>
        <pt x="145" y="627" on="1"/>
        <pt x="133" y="649" on="0"/>
        <pt x="114" y="676" on="0"/>
        <pt x="94" y="676" on="1"/>
        <pt x="94" y="606" on="0"/>
        <pt x="110" y="438" on="0"/>
        <pt x="129" y="266" on="0"/>
        <pt x="145" y="99" on="0"/>
        <pt x="145" y="28" on="1"/>
        <pt x="149" y="19" on="0"/>
        <pt x="136" y="3" on="0"/>
        <pt x="113" y="-5" on="0"/>
        <pt x="86" y="2" on="0"/>
        <pt x="77" y="15" on="1"/>
        <pt x="68" y="104" on="0"/>
        <pt x="67" y="289" on="0"/>
        <pt x="65" y="475" on="0"/>
        <pt x="51" y="662" on="0"/>
        <pt x="30" y="755" on="1"/>
        <pt x="29" y="773" on="0"/>
        <pt x="43" y="782" on="0"/>
        <pt x="54" y="782" on="1"/>
        <pt x="78" y="782" on="0"/>
        <pt x="117" y="759" on="0"/>
        <pt x="149" y="724" on="0"/>
        <pt x="174" y="682" on="0"/>
        <pt x="184" y="665" on="1"/>
        <pt x="192" y="652" on="0"/>
        <pt x="206" y="624" on="1"/>
        <pt x="238" y="559" on="1"/>
        <pt x="256" y="523" on="0"/>
        <pt x="295" y="444" on="0"/>
        <pt x="331" y="373" on="0"/>
        <pt x="361" y="318" on="0"/>
        <pt x="369" y="306" on="1"/>
        <pt x="373" y="306" on="0"/>
        <pt x="379" y="312" on="0"/>
        <pt x="390" y="340" on="0"/>
        <pt x="409" y="398" on="0"/>
        <pt x="443" y="500" on="0"/>
        <pt x="493" y="656" on="0"/>
        <pt x="529" y="768" on="1"/>
        <pt x="531" y="773" on="0"/>
        <pt x="553" y="781" on="0"/>
        <pt x="562" y="781" on="1"/>
        <pt x="571" y="781" on="0"/>
        <pt x="578" y="769" on="0"/>
        <pt x="580" y="755" on="1"/>
        <pt x="589" y="670" on="0"/>
        <pt x="600" y="485" on="0"/>
        <pt x="618" y="296" on="0"/>
        <pt x="645" y="110" on="0"/>
        <pt x="669" y="26" on="1"/>
        <pt x="600" y="-1" on="1"/>
      </contour>
    </TTGlyph>
    <TTGlyph name="N" xMin="31" yMin="0" xMax="517" yMax="783">
      <contour>
        <pt x="31" y="615" on="1"/>
        <pt x="31" y="663" on="1"/>
        <pt x="43" y="663" on="0"/>
        <pt x="73" y="647" on="0"/>
        <pt x="101" y="625" on="0"/>
        <pt x="125" y="598" on="0"/>
        <pt x="132" y="589" on="1"/>
        <pt x="427" y="192" on="1"/>
        <pt x="430" y="209" on="0"/>
        <pt x="435" y="301" on="0"/>
        <pt x="434" y="418" on="0"/>
        <pt x="429" y="546" on="0"/>
        <pt x="420" y="657" on="0"/>
        <pt x="409" y="734" on="0"/>
        <pt x="400" y="742" on="1"/>
        <pt x="400" y="757" on="0"/>
        <pt x="411" y="783" on="0"/>
        <pt x="427" y="783" on="1"/>
        <pt x="443" y="783" on="0"/>
        <pt x="463" y="747" on="0"/>
        <pt x="473" y="702" on="0"/>
        <pt x="478" y="659" on="0"/>
        <pt x="478" y="652" on="1"/>
        <pt x="479" y="634" on="0"/>
        <pt x="481" y="561" on="0"/>
        <pt x="483" y="468" on="0"/>
        <pt x="486" y="364" on="0"/>
        <pt x="489" y="272" on="0"/>
        <pt x="490" y="197" on="0"/>
        <pt x="491" y="179" on="1"/>
        <pt x="491" y="166" on="0"/>
        <pt x="500" y="144" on="0"/>
        <pt x="509" y="122" on="0"/>
        <pt x="517" y="100" on="0"/>
        <pt x="517" y="88" on="1"/>
        <pt x="517" y="68" on="0"/>
        <pt x="488" y="49" on="0"/>
        <pt x="470" y="49" on="1"/>
        <pt x="460" y="49" on="0"/>
        <pt x="445" y="54" on="0"/>
        <pt x="436" y="67" on="0"/>
        <pt x="435" y="87" on="0"/>
        <pt x="439" y="103" on="1"/>
        <pt x="428" y="116" on="0"/>
        <pt x="382" y="175" on="0"/>
        <pt x="325" y="248" on="0"/>
        <pt x="261" y="328" on="0"/>
        <pt x="203" y="401" on="0"/>
        <pt x="180" y="430" on="1"/>
        <pt x="146" y="473" on="1"/>
        <pt x="144" y="476" on="0"/>
        <pt x="139" y="481" on="1"/>
        <pt x="115" y="505" on="1"/>
        <pt x="110" y="510" on="0"/>
        <pt x="107" y="512" on="1"/>
        <pt x="103" y="454" on="0"/>
        <pt x="113" y="337" on="0"/>
        <pt x="130" y="221" on="0"/>
        <pt x="147" y="106" on="0"/>
        <pt x="147" y="48" on="1"/>
        <pt x="147" y="32" on="0"/>
        <pt x="141" y="7" on="0"/>
        <pt x="120" y="0" on="1"/>
        <pt x="100" y="7" on="0"/>
        <pt x="86" y="46" on="0"/>
        <pt x="94" y="64" on="1"/>
      </contour>
    </TTGlyph>
    <TTGlyph name="Nacute" xMin="31" yMin="0" xMax="517" yMax="866">
      <component glyphName="N" x="0" y="0" flags="0x1204"/>
      <component glyphName="acute" x="156" y="124" flags="0x1004"/>
    </TTGlyph>
    <TTGlyph name="Ncaron" xMin="31" yMin="0" xMax="517" yMax="917">
      <component glyphName="N" x="0" y="0" flags="0x1204"/>
      <component glyphName="caron" x="40" y="97" flags="0x1004"/>
    </TTGlyph>
    <TTGlyph name="Ncommaaccent" xMin="31" yMin="-332" xMax="517" yMax="783">
      <component glyphName="N" x="0" y="0" flags="0x1204"/>
      <component glyphName="commaaccent" x="58" y="0" flags="0x1004"/>
    </TTGlyph>
    <TTGlyph name="Ntilde" xMin="31" yMin="0" xMax="517" yMax="960">
      <component glyphName="N" x="0" y="0" flags="0x1204"/>
      <component glyphName="tilde" x="5" y="229" flags="0x1004"/>
    </TTGlyph>
    <TTGlyph name="O" xMin="15" yMin="-1" xMax="377" yMax="686">
      <contour>
        <pt x="15" y="214" on="1"/>
        <pt x="27" y="388" on="0"/>
        <pt x="103" y="607" on="0"/>
        <pt x="204" y="701" on="0"/>
        <pt x="313" y="670" on="0"/>
        <pt x="357" y="594" on="1"/>
        <pt x="372" y="544" on="0"/>
        <pt x="381" y="420" on="0"/>
        <pt x="368" y="293" on="0"/>
        <pt x="335" y="171" on="0"/>
        <pt x="277" y="73" on="0"/>
        <pt x="197" y="6" on="0"/>
        <pt x="145" y="-1" on="1"/>
        <pt x="108" y="-1" on="0"/>
        <pt x="58" y="45" on="0"/>
        <pt x="28" y="112" on="0"/>
        <pt x="15" y="185" on="0"/>
      </contour>
      <contour>
        <pt x="68" y="220" on="1"/>
        <pt x="68" y="195" on="0"/>
        <pt x="73" y="141" on="0"/>
        <pt x="91" y="96" on="0"/>
        <pt x="128" y="67" on="0"/>
        <pt x="159" y="67" on="1"/>
        <pt x="194" y="67" on="0"/>
        <pt x="252" y="131" on="0"/>
        <pt x="294" y="233" on="0"/>
        <pt x="319" y="357" on="0"/>
        <pt x="324" y="476" on="0"/>
        <pt x="307" y="576" on="0"/>
        <pt x="265" y="627" on="0"/>
        <pt x="196" y="617" on="0"/>
        <pt x="148" y="567" on="1"/>
        <pt x="134" y="526" on="0"/>
        <pt x="106" y="439" on="0"/>
        <pt x="84" y="350" on="0"/>
        <pt x="68" y="262" on="0"/>
      </contour>
    </TTGlyph>
    <TTGlyph name="OE" xMin="15" yMin="-3" xMax="733" yMax="731">
      <contour>
        <pt x="337" y="12" on="1"/>
        <pt x="337" y="93" on="0"/>
        <pt x="337" y="170" on="1"/>
        <pt x="337" y="188" on="1"/>
        <pt x="324" y="153" on="0"/>
        <pt x="306" y="121" on="1"/>
        <pt x="277" y="73" on="0"/>
        <pt x="197" y="6" on="0"/>
        <pt x="145" y="-1" on="1"/>
        <pt x="108" y="-1" on="0"/>
        <pt x="58" y="45" on="0"/>
        <pt x="28" y="112" on="0"/>
        <pt x="15" y="185" on="0"/>
        <pt x="15" y="214" on="1"/>
        <pt x="27" y="388" on="0"/>
        <pt x="103" y="607" on="0"/>
        <pt x="204" y="701" on="0"/>
        <pt x="258" y="686" on="1"/>
        <pt x="281" y="679" on="0"/>
        <pt x="301" y="662" on="1"/>
        <pt x="300" y="670" on="1"/>
        <pt x="298" y="675" on="0"/>
        <pt x="298" y="677" on="1"/>
        <pt x="298" y="681" on="0"/>
        <pt x="305" y="696" on="0"/>
        <pt x="316" y="708" on="0"/>
        <pt x="329" y="716" on="0"/>
        <pt x="337" y="715" on="1"/>
        <pt x="348" y="713" on="0"/>
        <pt x="364" y="688" on="0"/>
        <pt x="372" y="660" on="0"/>
        <pt x="374" y="632" on="0"/>
        <pt x="374" y="625" on="1"/>
        <pt x="405" y="642" on="0"/>
        <pt x="480" y="679" on="0"/>
        <pt x="559" y="710" on="0"/>
        <pt x="637" y="731" on="0"/>
        <pt x="672" y="731" on="1"/>
        <pt x="672" y="722" on="0"/>
        <pt x="666" y="707" on="0"/>
        <pt x="656" y="703" on="1"/>
        <pt x="374" y="562" on="1"/>
        <pt x="374" y="523" on="1"/>
        <pt x="375" y="512" on="0"/>
        <pt x="379" y="457" on="0"/>
        <pt x="382" y="397" on="0"/>
        <pt x="386" y="342" on="0"/>
        <pt x="387" y="331" on="1"/>
        <pt x="592" y="446" on="1"/>
        <pt x="598" y="453" on="1"/>
        <pt x="603" y="459" on="0"/>
        <pt x="618" y="469" on="0"/>
        <pt x="635" y="470" on="0"/>
        <pt x="643" y="459" on="1"/>
        <pt x="643" y="441" on="0"/>
        <pt x="607" y="407" on="0"/>
        <pt x="553" y="373" on="0"/>
        <pt x="490" y="341" on="0"/>
        <pt x="436" y="310" on="0"/>
        <pt x="400" y="281" on="0"/>
        <pt x="400" y="267" on="1"/>
        <pt x="400" y="75" on="1"/>
        <pt x="414" y="69" on="0"/>
        <pt x="461" y="88" on="0"/>
        <pt x="518" y="122" on="0"/>
        <pt x="580" y="167" on="0"/>
        <pt x="640" y="208" on="0"/>
        <pt x="690" y="239" on="0"/>
        <pt x="707" y="243" on="1"/>
        <pt x="717" y="243" on="0"/>
        <pt x="733" y="235" on="0"/>
        <pt x="733" y="222" on="1"/>
        <pt x="733" y="211" on="0"/>
        <pt x="720" y="203" on="1"/>
        <pt x="685" y="183" on="0"/>
        <pt x="594" y="120" on="0"/>
        <pt x="499" y="57" on="0"/>
        <pt x="409" y="5" on="0"/>
        <pt x="375" y="-3" on="1"/>
        <pt x="363" y="-3" on="0"/>
        <pt x="346" y="2" on="0"/>
      </contour>
      <contour>
        <pt x="68" y="220" on="1"/>
        <pt x="68" y="195" on="0"/>
        <pt x="73" y="141" on="0"/>
        <pt x="91" y="96" on="0"/>
        <pt x="128" y="67" on="0"/>
        <pt x="159" y="67" on="1"/>
        <pt x="194" y="67" on="0"/>
        <pt x="252" y="131" on="0"/>
        <pt x="294" y="233" on="0"/>
        <pt x="319" y="357" on="0"/>
        <pt x="324" y="476" on="0"/>
        <pt x="307" y="576" on="0"/>
        <pt x="265" y="627" on="0"/>
        <pt x="196" y="617" on="0"/>
        <pt x="148" y="567" on="1"/>
        <pt x="134" y="526" on="0"/>
        <pt x="106" y="439" on="0"/>
        <pt x="84" y="350" on="0"/>
        <pt x="68" y="262" on="0"/>
      </contour>
    </TTGlyph>
    <TTGlyph name="Oacute" xMin="15" yMin="-1" xMax="377" yMax="870">
      <component glyphName="O" x="0" y="0" flags="0x1204"/>
      <component glyphName="acute" x="106" y="128" flags="0x1004"/>
    </TTGlyph>
    <TTGlyph name="Obreve" xMin="15" yMin="-1" xMax="377" yMax="879">
      <component glyphName="O" x="0" y="0" flags="0x1204"/>
      <component glyphName="breve" x="8" y="121" flags="0x1004"/>
    </TTGlyph>
    <TTGlyph name="Ocircumflex" xMin="15" yMin="-1" xMax="377" yMax="955">
      <component glyphName="O" x="0" y="0" flags="0x1204"/>
      <component glyphName="circumflex" x="-8" y="0" flags="0x1004"/>
    </TTGlyph>
    <TTGlyph name="Odieresis" xMin="15" yMin="-1" xMax="377" yMax="823">
      <component glyphName="O" x="0" y="0" flags="0x1204"/>
      <component glyphName="dieresis" x="85" y="58" flags="0x1004"/>
    </TTGlyph>
    <TTGlyph name="Ograve" xMin="15" yMin="-1" xMax="377" yMax="901">
      <component glyphName="O" x="0" y="0" flags="0x1204"/>
      <component glyphName="grave" x="199" y="144" flags="0x1004"/>
    </TTGlyph>
    <TTGlyph name="Ohungarumlaut" xMin="15" yMin="-1" xMax="401" yMax="891">
      <component glyphName="O" x="0" y="0" flags="0x1204"/>
      <component glyphName="hungarumlaut" x="167" y="260" flags="0x1004"/>
    </TTGlyph>
    <TTGlyph name="Omacron" xMin="15" yMin="-1" xMax="431" yMax="819">
      <component glyphName="O" x="0" y="0" flags="0x1204"/>
      <component glyphName="macron" x="48" y="58" flags="0x1004"/>
    </TTGlyph>
    <TTGlyph name="Oslash" xMin="15" yMin="-86" xMax="377" yMax="715">
      <contour>
        <pt x="56" y="-46" on="1"/>
        <pt x="77" y="27" on="1"/>
        <pt x="57" y="49" on="0"/>
        <pt x="43" y="78" on="1"/>
        <pt x="28" y="112" on="0"/>
        <pt x="15" y="185" on="0"/>
        <pt x="15" y="214" on="1"/>
        <pt x="27" y="388" on="0"/>
        <pt x="103" y="607" on="0"/>
        <pt x="204" y="701" on="0"/>
        <pt x="258" y="686" on="1"/>
        <pt x="268" y="683" on="0"/>
        <pt x="277" y="679" on="1"/>
        <pt x="288" y="715" on="1"/>
        <pt x="337" y="715" on="1"/>
        <pt x="316" y="649" on="1"/>
        <pt x="337" y="627" on="0"/>
        <pt x="357" y="594" on="1"/>
        <pt x="372" y="544" on="0"/>
        <pt x="381" y="420" on="0"/>
        <pt x="368" y="293" on="0"/>
        <pt x="335" y="171" on="0"/>
        <pt x="277" y="73" on="0"/>
        <pt x="197" y="6" on="0"/>
        <pt x="145" y="-1" on="1"/>
        <pt x="129" y="-1" on="0"/>
        <pt x="115" y="3" on="1"/>
        <pt x="88" y="-86" on="1"/>
        <pt x="76" y="-86" on="0"/>
        <pt x="56" y="-66" on="0"/>
        <pt x="56" y="-53" on="1"/>
      </contour>
      <contour>
        <pt x="68" y="220" on="1"/>
        <pt x="68" y="195" on="0"/>
        <pt x="73" y="141" on="0"/>
        <pt x="82" y="119" on="1"/>
        <pt x="87" y="103" on="0"/>
        <pt x="97" y="92" on="1"/>
        <pt x="259" y="620" on="1"/>
        <pt x="247" y="625" on="0"/>
        <pt x="230" y="622" on="1"/>
        <pt x="196" y="617" on="0"/>
        <pt x="148" y="567" on="1"/>
        <pt x="134" y="526" on="0"/>
        <pt x="106" y="439" on="0"/>
        <pt x="84" y="350" on="0"/>
        <pt x="68" y="262" on="0"/>
      </contour>
      <contour>
        <pt x="159" y="67" on="1"/>
        <pt x="194" y="67" on="0"/>
        <pt x="252" y="131" on="0"/>
        <pt x="294" y="233" on="0"/>
        <pt x="319" y="357" on="0"/>
        <pt x="324" y="476" on="0"/>
        <pt x="315" y="526" on="1"/>
        <pt x="309" y="562" on="0"/>
        <pt x="296" y="586" on="1"/>
        <pt x="136" y="68" on="1"/>
        <pt x="147" y="67" on="0"/>
      </contour>
    </TTGlyph>
    <TTGlyph name="Oslashacute" xMin="15" yMin="-86" xMax="377" yMax="905">
      <component glyphName="Oslash" x="0" y="0" flags="0x1204"/>
      <component glyphName="acute" x="160" y="163" flags="0x1004"/>
    </TTGlyph>
    <TTGlyph name="Otilde" xMin="15" yMin="-1" xMax="432" yMax="906">
      <component glyphName="O" x="0" y="0" flags="0x1204"/>
      <component glyphName="tilde" x="11" y="175" flags="0x1004"/>
    </TTGlyph>
    <TTGlyph name="P" xMin="25" yMin="-1" xMax="500" yMax="819">
      <contour>
        <pt x="103" y="13" on="1"/>
        <pt x="82" y="171" on="0"/>
        <pt x="72" y="508" on="0"/>
        <pt x="77" y="665" on="1"/>
        <pt x="68" y="660" on="0"/>
        <pt x="54" y="652" on="0"/>
        <pt x="44" y="652" on="1"/>
        <pt x="37" y="652" on="0"/>
        <pt x="25" y="664" on="0"/>
        <pt x="25" y="673" on="1"/>
        <pt x="25" y="676" on="1"/>
        <pt x="25" y="677" on="0"/>
        <pt x="26" y="679" on="1"/>
        <pt x="34" y="688" on="0"/>
        <pt x="57" y="732" on="0"/>
        <pt x="83" y="775" on="0"/>
        <pt x="107" y="808" on="0"/>
        <pt x="116" y="808" on="1"/>
        <pt x="125" y="808" on="0"/>
        <pt x="134" y="799" on="0"/>
        <pt x="140" y="787" on="0"/>
        <pt x="147" y="772" on="0"/>
        <pt x="154" y="768" on="1"/>
        <pt x="184" y="786" on="0"/>
        <pt x="256" y="812" on="0"/>
        <pt x="329" y="822" on="0"/>
        <pt x="398" y="815" on="0"/>
        <pt x="454" y="788" on="0"/>
        <pt x="494" y="738" on="0"/>
        <pt x="500" y="700" on="1"/>
        <pt x="499" y="651" on="0"/>
        <pt x="444" y="564" on="0"/>
        <pt x="363" y="493" on="0"/>
        <pt x="269" y="438" on="0"/>
        <pt x="190" y="398" on="0"/>
        <pt x="139" y="374" on="0"/>
        <pt x="141" y="372" on="1"/>
        <pt x="141" y="13" on="1"/>
        <pt x="141" y="5" on="0"/>
        <pt x="127" y="-1" on="0"/>
        <pt x="121" y="-1" on="1"/>
        <pt x="110" y="-1" on="0"/>
      </contour>
      <contour>
        <pt x="141" y="704" on="1"/>
        <pt x="138" y="675" on="0"/>
        <pt x="129" y="606" on="0"/>
        <pt x="125" y="533" on="0"/>
        <pt x="130" y="463" on="0"/>
        <pt x="141" y="435" on="1"/>
        <pt x="184" y="454" on="0"/>
        <pt x="278" y="501" on="0"/>
        <pt x="364" y="561" on="0"/>
        <pt x="433" y="634" on="0"/>
        <pt x="450" y="679" on="1"/>
        <pt x="450" y="703" on="0"/>
        <pt x="415" y="737" on="0"/>
        <pt x="365" y="759" on="0"/>
        <pt x="312" y="768" on="0"/>
        <pt x="295" y="768" on="1"/>
        <pt x="285" y="768" on="0"/>
        <pt x="240" y="757" on="0"/>
        <pt x="191" y="740" on="0"/>
        <pt x="148" y="716" on="0"/>
      </contour>
    </TTGlyph>
    <TTGlyph name="Q" xMin="29" yMin="-1" xMax="491" yMax="769">
      <contour>
        <pt x="29" y="335" on="1"/>
        <pt x="29" y="351" on="0"/>
        <pt x="35" y="428" on="0"/>
        <pt x="50" y="526" on="0"/>
        <pt x="76" y="629" on="0"/>
        <pt x="111" y="715" on="0"/>
        <pt x="158" y="769" on="0"/>
        <pt x="189" y="769" on="1"/>
        <pt x="193" y="769" on="0"/>
        <pt x="208" y="768" on="0"/>
        <pt x="220" y="761" on="0"/>
        <pt x="225" y="751" on="0"/>
        <pt x="221" y="742" on="1"/>
        <pt x="238" y="751" on="0"/>
        <pt x="263" y="760" on="0"/>
        <pt x="285" y="767" on="0"/>
        <pt x="308" y="769" on="0"/>
        <pt x="323" y="769" on="1"/>
        <pt x="358" y="769" on="0"/>
        <pt x="409" y="726" on="0"/>
        <pt x="444" y="656" on="0"/>
        <pt x="464" y="564" on="0"/>
        <pt x="472" y="463" on="0"/>
        <pt x="469" y="361" on="0"/>
        <pt x="457" y="269" on="0"/>
        <pt x="437" y="194" on="0"/>
        <pt x="426" y="172" on="1"/>
        <pt x="426" y="168" on="1"/>
        <pt x="426" y="167" on="0"/>
        <pt x="427" y="166" on="1"/>
        <pt x="490" y="51" on="1"/>
        <pt x="490" y="50" on="0"/>
        <pt x="491" y="41" on="0"/>
        <pt x="491" y="40" on="1"/>
        <pt x="491" y="12" on="0"/>
        <pt x="464" y="12" on="1"/>
        <pt x="458" y="12" on="1"/>
        <pt x="454" y="12" on="0"/>
        <pt x="452" y="13" on="1"/>
        <pt x="449" y="17" on="0"/>
        <pt x="435" y="40" on="0"/>
        <pt x="418" y="64" on="0"/>
        <pt x="404" y="85" on="0"/>
        <pt x="400" y="89" on="1"/>
        <pt x="399" y="91" on="0"/>
        <pt x="390" y="101" on="0"/>
        <pt x="388" y="103" on="1"/>
        <pt x="374" y="85" on="0"/>
        <pt x="342" y="49" on="0"/>
        <pt x="303" y="19" on="0"/>
        <pt x="260" y="-1" on="0"/>
        <pt x="236" y="-1" on="1"/>
        <pt x="193" y="-1" on="0"/>
        <pt x="130" y="31" on="0"/>
        <pt x="84" y="84" on="0"/>
        <pt x="54" y="153" on="0"/>
        <pt x="36" y="228" on="0"/>
        <pt x="29" y="302" on="0"/>
      </contour>
      <contour>
        <pt x="79" y="326" on="1"/>
        <pt x="79" y="305" on="0"/>
        <pt x="84" y="248" on="0"/>
        <pt x="95" y="187" on="0"/>
        <pt x="116" y="127" on="0"/>
        <pt x="148" y="80" on="0"/>
        <pt x="195" y="50" on="0"/>
        <pt x="228" y="50" on="1"/>
        <pt x="250" y="50" on="0"/>
        <pt x="299" y="68" on="0"/>
        <pt x="337" y="99" on="0"/>
        <pt x="363" y="142" on="0"/>
        <pt x="363" y="166" on="1"/>
        <pt x="363" y="174" on="1"/>
        <pt x="363" y="179" on="0"/>
        <pt x="362" y="179" on="1"/>
        <pt x="273" y="372" on="1"/>
        <pt x="323" y="397" on="1"/>
        <pt x="388" y="243" on="1"/>
        <pt x="388" y="242" on="0"/>
        <pt x="392" y="240" on="0"/>
        <pt x="393" y="240" on="1"/>
        <pt x="403" y="240" on="0"/>
        <pt x="416" y="269" on="0"/>
        <pt x="424" y="313" on="0"/>
        <pt x="427" y="364" on="0"/>
        <pt x="427" y="410" on="0"/>
        <pt x="427" y="426" on="1"/>
        <pt x="427" y="444" on="1"/>
        <pt x="427" y="465" on="0"/>
        <pt x="427" y="523" on="0"/>
        <pt x="420" y="584" on="0"/>
        <pt x="407" y="643" on="0"/>
        <pt x="381" y="690" on="0"/>
        <pt x="340" y="719" on="0"/>
        <pt x="311" y="719" on="1"/>
        <pt x="264" y="721" on="0"/>
        <pt x="197" y="693" on="0"/>
        <pt x="151" y="644" on="0"/>
        <pt x="121" y="580" on="0"/>
        <pt x="102" y="510" on="0"/>
        <pt x="88" y="440" on="0"/>
        <pt x="81" y="409" on="1"/>
        <pt x="81" y="405" on="0"/>
        <pt x="80" y="382" on="0"/>
        <pt x="79" y="355" on="0"/>
        <pt x="79" y="343" on="1"/>
      </contour>
    </TTGlyph>
    <TTGlyph name="R" xMin="40" yMin="13" xMax="512" yMax="812">
      <contour>
        <pt x="40" y="812" on="1"/>
        <pt x="41" y="812" on="0"/>
        <pt x="53" y="810" on="0"/>
        <pt x="67" y="809" on="0"/>
        <pt x="80" y="807" on="0"/>
        <pt x="81" y="807" on="1"/>
        <pt x="86" y="807" on="0"/>
        <pt x="106" y="804" on="0"/>
        <pt x="106" y="794" on="1"/>
        <pt x="106" y="706" on="1"/>
        <pt x="123" y="710" on="0"/>
        <pt x="167" y="739" on="0"/>
        <pt x="227" y="769" on="0"/>
        <pt x="301" y="789" on="0"/>
        <pt x="349" y="784" on="1"/>
        <pt x="423" y="769" on="0"/>
        <pt x="489" y="728" on="0"/>
        <pt x="493" y="679" on="0"/>
        <pt x="448" y="623" on="0"/>
        <pt x="374" y="564" on="0"/>
        <pt x="283" y="506" on="0"/>
        <pt x="196" y="451" on="0"/>
        <pt x="124" y="403" on="0"/>
        <pt x="106" y="384" on="1"/>
        <pt x="122" y="377" on="0"/>
        <pt x="183" y="346" on="0"/>
        <pt x="256" y="309" on="0"/>
        <pt x="335" y="267" on="0"/>
        <pt x="405" y="232" on="0"/>
        <pt x="461" y="205" on="0"/>
        <pt x="473" y="201" on="1"/>
        <pt x="483" y="196" on="0"/>
        <pt x="492" y="192" on="1"/>
        <pt x="499" y="187" on="0"/>
        <pt x="512" y="179" on="0"/>
        <pt x="512" y="175" on="1"/>
        <pt x="512" y="171" on="0"/>
        <pt x="507" y="157" on="0"/>
        <pt x="497" y="145" on="0"/>
        <pt x="486" y="136" on="0"/>
        <pt x="481" y="136" on="1"/>
        <pt x="479" y="136" on="0"/>
        <pt x="474" y="137" on="0"/>
        <pt x="473" y="137" on="1"/>
        <pt x="471" y="138" on="0"/>
        <pt x="448" y="149" on="0"/>
        <pt x="423" y="163" on="0"/>
        <pt x="400" y="174" on="0"/>
        <pt x="397" y="175" on="1"/>
        <pt x="386" y="179" on="0"/>
        <pt x="337" y="202" on="0"/>
        <pt x="276" y="231" on="0"/>
        <pt x="208" y="265" on="0"/>
        <pt x="147" y="295" on="0"/>
        <pt x="98" y="317" on="0"/>
        <pt x="87" y="319" on="1"/>
        <pt x="87" y="13" on="1"/>
        <pt x="42" y="13" on="1"/>
      </contour>
      <contour>
        <pt x="106" y="640" on="1"/>
        <pt x="104" y="622" on="0"/>
        <pt x="100" y="574" on="0"/>
        <pt x="95" y="522" on="0"/>
        <pt x="92" y="470" on="0"/>
        <pt x="92" y="448" on="1"/>
        <pt x="96" y="453" on="0"/>
        <pt x="144" y="477" on="0"/>
        <pt x="212" y="513" on="0"/>
        <pt x="291" y="557" on="0"/>
        <pt x="361" y="604" on="0"/>
        <pt x="414" y="650" on="0"/>
        <pt x="429" y="689" on="0"/>
        <pt x="398" y="721" on="0"/>
        <pt x="349" y="730" on="1"/>
        <pt x="322" y="732" on="0"/>
        <pt x="253" y="722" on="0"/>
        <pt x="184" y="698" on="0"/>
        <pt x="124" y="663" on="0"/>
      </contour>
    </TTGlyph>
    <TTGlyph name="Racute" xMin="40" yMin="13" xMax="512" yMax="963">
      <component glyphName="R" x="0" y="0" flags="0x1204"/>
      <component glyphName="acute" x="219" y="221" flags="0x1004"/>
    </TTGlyph>
    <TTGlyph name="Rcaron" xMin="40" yMin="13" xMax="512" yMax="1038">
      <component glyphName="R" x="0" y="0" flags="0x1204"/>
      <component glyphName="caron" x="52" y="218" flags="0x1004"/>
    </TTGlyph>
    <TTGlyph name="Rcommaaccent" xMin="40" yMin="-332" xMax="512" yMax="812">
      <component glyphName="R" x="0" y="0" flags="0x1204"/>
      <component glyphName="commaaccent" x="40" y="0" flags="0x1004"/>
    </TTGlyph>
    <TTGlyph name="S" xMin="12" yMin="20" xMax="526" yMax="744">
      <contour>
        <pt x="121" y="47" on="1"/>
        <pt x="123" y="57" on="0"/>
        <pt x="169" y="75" on="0"/>
        <pt x="237" y="95" on="0"/>
        <pt x="319" y="119" on="0"/>
        <pt x="395" y="149" on="0"/>
        <pt x="458" y="187" on="0"/>
        <pt x="473" y="212" on="1"/>
        <pt x="473" y="227" on="0"/>
        <pt x="434" y="243" on="0"/>
        <pt x="369" y="254" on="0"/>
        <pt x="286" y="261" on="0"/>
        <pt x="199" y="274" on="0"/>
        <pt x="116" y="293" on="0"/>
        <pt x="51" y="328" on="0"/>
        <pt x="12" y="382" on="0"/>
        <pt x="12" y="421" on="1"/>
        <pt x="12" y="460" on="0"/>
        <pt x="46" y="537" on="0"/>
        <pt x="103" y="609" on="0"/>
        <pt x="176" y="671" on="0"/>
        <pt x="256" y="717" on="0"/>
        <pt x="335" y="743" on="0"/>
        <pt x="369" y="743" on="1"/>
        <pt x="378" y="743" on="0"/>
        <pt x="398" y="744" on="0"/>
        <pt x="413" y="741" on="0"/>
        <pt x="423" y="729" on="0"/>
        <pt x="423" y="717" on="1"/>
        <pt x="423" y="688" on="0"/>
        <pt x="385" y="663" on="0"/>
        <pt x="358" y="663" on="1"/>
        <pt x="319" y="691" on="1"/>
        <pt x="296" y="691" on="0"/>
        <pt x="241" y="665" on="0"/>
        <pt x="184" y="622" on="0"/>
        <pt x="130" y="566" on="0"/>
        <pt x="89" y="506" on="0"/>
        <pt x="64" y="446" on="0"/>
        <pt x="64" y="422" on="1"/>
        <pt x="64" y="387" on="0"/>
        <pt x="103" y="344" on="0"/>
        <pt x="168" y="319" on="0"/>
        <pt x="252" y="307" on="0"/>
        <pt x="338" y="299" on="0"/>
        <pt x="422" y="292" on="0"/>
        <pt x="487" y="274" on="0"/>
        <pt x="526" y="244" on="0"/>
        <pt x="526" y="218" on="1"/>
        <pt x="537" y="202" on="0"/>
        <pt x="506" y="161" on="0"/>
        <pt x="441" y="120" on="0"/>
        <pt x="352" y="79" on="0"/>
        <pt x="258" y="46" on="0"/>
        <pt x="170" y="23" on="0"/>
        <pt x="139" y="20" on="1"/>
        <pt x="130" y="20" on="0"/>
        <pt x="117" y="32" on="0"/>
      </contour>
    </TTGlyph>
    <TTGlyph name="Sacute" xMin="12" yMin="20" xMax="526" yMax="908">
      <component glyphName="S" x="0" y="0" flags="0x1204"/>
      <component glyphName="acute" x="210" y="166" flags="0x1004"/>
    </TTGlyph>
    <TTGlyph name="Scaron" xMin="12" yMin="20" xMax="526" yMax="944">
      <component glyphName="S" x="0" y="0" flags="0x1204"/>
      <component glyphName="caron" x="51" y="124" flags="0x1004"/>
    </TTGlyph>
    <TTGlyph name="Scedilla" xMin="12" yMin="-276" xMax="563" yMax="744">
      <component glyphName="S" x="0" y="0" flags="0x1204"/>
      <component glyphName="cedilla" x="265" y="31" flags="0x1004"/>
    </TTGlyph>
    <TTGlyph name="Scircumflex" xMin="12" yMin="20" xMax="526" yMax="1052">
      <component glyphName="S" x="0" y="0" flags="0x1204"/>
      <component glyphName="circumflex" x="94" y="97" flags="0x1004"/>
    </TTGlyph>
    <TTGlyph name="Scommaaccent" xMin="12" yMin="-332" xMax="526" yMax="744">
      <component glyphName="S" x="0" y="0" flags="0x1204"/>
      <component glyphName="commaaccent" x="58" y="0" flags="0x1004"/>
    </TTGlyph>
    <TTGlyph name="T" xMin="12" yMin="-1" xMax="715" yMax="730">
      <contour>
        <pt x="301" y="627" on="1"/>
        <pt x="269" y="627" on="0"/>
        <pt x="204" y="615" on="0"/>
        <pt x="140" y="600" on="0"/>
        <pt x="76" y="588" on="0"/>
        <pt x="43" y="588" on="1"/>
        <pt x="33" y="588" on="0"/>
        <pt x="12" y="593" on="0"/>
        <pt x="12" y="608" on="1"/>
        <pt x="12" y="618" on="0"/>
        <pt x="29" y="639" on="0"/>
        <pt x="39" y="640" on="1"/>
        <pt x="307" y="679" on="1"/>
        <pt x="308" y="683" on="0"/>
        <pt x="312" y="700" on="0"/>
        <pt x="319" y="717" on="0"/>
        <pt x="331" y="730" on="0"/>
        <pt x="339" y="730" on="1"/>
        <pt x="351" y="730" on="0"/>
        <pt x="365" y="718" on="0"/>
        <pt x="375" y="703" on="0"/>
        <pt x="383" y="691" on="0"/>
        <pt x="389" y="691" on="1"/>
        <pt x="397" y="691" on="1"/>
        <pt x="407" y="692" on="0"/>
        <pt x="451" y="697" on="0"/>
        <pt x="508" y="703" on="0"/>
        <pt x="572" y="710" on="0"/>
        <pt x="630" y="715" on="0"/>
        <pt x="674" y="720" on="0"/>
        <pt x="684" y="722" on="1"/>
        <pt x="687" y="722" on="0"/>
        <pt x="710" y="723" on="0"/>
        <pt x="715" y="723" on="1"/>
        <pt x="715" y="704" on="0"/>
        <pt x="674" y="679" on="0"/>
        <pt x="611" y="662" on="0"/>
        <pt x="534" y="653" on="0"/>
        <pt x="461" y="647" on="0"/>
        <pt x="400" y="643" on="0"/>
        <pt x="384" y="640" on="1"/>
        <pt x="380" y="569" on="0"/>
        <pt x="395" y="415" on="0"/>
        <pt x="418" y="259" on="0"/>
        <pt x="438" y="105" on="0"/>
        <pt x="438" y="35" on="1"/>
        <pt x="442" y="21" on="0"/>
        <pt x="441" y="5" on="0"/>
        <pt x="431" y="-1" on="0"/>
        <pt x="411" y="-1" on="0"/>
        <pt x="397" y="0" on="1"/>
        <pt x="387" y="36" on="0"/>
        <pt x="372" y="133" on="0"/>
        <pt x="360" y="244" on="0"/>
        <pt x="349" y="362" on="0"/>
        <pt x="339" y="478" on="0"/>
        <pt x="327" y="584" on="0"/>
        <pt x="319" y="627" on="1"/>
      </contour>
    </TTGlyph>
    <TTGlyph name="Tbar" xMin="12" yMin="-1" xMax="715" yMax="730">
      <contour>
        <pt x="163" y="449" on="1"/>
        <pt x="163" y="453" on="0"/>
        <pt x="174" y="472" on="0"/>
        <pt x="176" y="475" on="1"/>
        <pt x="220" y="478" on="0"/>
        <pt x="265" y="483" on="1"/>
        <pt x="337" y="492" on="1"/>
        <pt x="335" y="512" on="0"/>
        <pt x="333" y="531" on="1"/>
        <pt x="327" y="584" on="0"/>
        <pt x="319" y="627" on="1"/>
        <pt x="301" y="627" on="1"/>
        <pt x="269" y="627" on="0"/>
        <pt x="204" y="615" on="0"/>
        <pt x="140" y="600" on="0"/>
        <pt x="76" y="588" on="0"/>
        <pt x="43" y="588" on="1"/>
        <pt x="33" y="588" on="0"/>
        <pt x="12" y="593" on="0"/>
        <pt x="12" y="608" on="1"/>
        <pt x="12" y="618" on="0"/>
        <pt x="29" y="639" on="0"/>
        <pt x="39" y="640" on="1"/>
        <pt x="307" y="679" on="1"/>
        <pt x="308" y="683" on="0"/>
        <pt x="312" y="700" on="0"/>
        <pt x="319" y="717" on="0"/>
        <pt x="331" y="730" on="0"/>
        <pt x="339" y="730" on="1"/>
        <pt x="351" y="730" on="0"/>
        <pt x="365" y="718" on="0"/>
        <pt x="375" y="703" on="0"/>
        <pt x="383" y="691" on="0"/>
        <pt x="389" y="691" on="1"/>
        <pt x="397" y="691" on="1"/>
        <pt x="407" y="692" on="0"/>
        <pt x="451" y="697" on="0"/>
        <pt x="508" y="703" on="0"/>
        <pt x="572" y="710" on="0"/>
        <pt x="630" y="715" on="0"/>
        <pt x="674" y="720" on="0"/>
        <pt x="684" y="722" on="1"/>
        <pt x="687" y="722" on="0"/>
        <pt x="710" y="723" on="0"/>
        <pt x="715" y="723" on="1"/>
        <pt x="715" y="704" on="0"/>
        <pt x="674" y="679" on="0"/>
        <pt x="611" y="662" on="0"/>
        <pt x="534" y="653" on="0"/>
        <pt x="461" y="647" on="0"/>
        <pt x="400" y="643" on="0"/>
        <pt x="384" y="640" on="1"/>
        <pt x="380" y="572" on="0"/>
        <pt x="386" y="499" on="1"/>
        <pt x="411" y="503" on="0"/>
        <pt x="436" y="506" on="1"/>
        <pt x="479" y="510" on="0"/>
        <pt x="518" y="510" on="1"/>
        <pt x="524" y="510" on="0"/>
        <pt x="530" y="500" on="0"/>
        <pt x="533" y="488" on="0"/>
        <pt x="533" y="481" on="1"/>
        <pt x="533" y="474" on="1"/>
        <pt x="533" y="471" on="0"/>
        <pt x="531" y="459" on="0"/>
        <pt x="531" y="458" on="1"/>
        <pt x="391" y="447" on="1"/>
        <pt x="398" y="392" on="0"/>
        <pt x="406" y="337" on="1"/>
        <pt x="418" y="259" on="0"/>
        <pt x="438" y="105" on="0"/>
        <pt x="438" y="35" on="1"/>
        <pt x="442" y="21" on="0"/>
        <pt x="441" y="5" on="0"/>
        <pt x="431" y="-1" on="0"/>
        <pt x="411" y="-1" on="0"/>
        <pt x="397" y="0" on="1"/>
        <pt x="387" y="36" on="0"/>
        <pt x="372" y="133" on="0"/>
        <pt x="360" y="244" on="0"/>
        <pt x="349" y="362" on="0"/>
        <pt x="344" y="419" on="1"/>
        <pt x="343" y="432" on="0"/>
        <pt x="342" y="444" on="1"/>
        <pt x="239" y="436" on="1"/>
        <pt x="238" y="436" on="0"/>
        <pt x="216" y="435" on="0"/>
        <pt x="211" y="435" on="1"/>
        <pt x="202" y="434" on="1"/>
        <pt x="195" y="434" on="0"/>
        <pt x="177" y="436" on="0"/>
        <pt x="163" y="442" on="0"/>
      </contour>
    </TTGlyph>
    <TTGlyph name="Tcaron" xMin="12" yMin="-1" xMax="715" yMax="1010">
      <component glyphName="T" x="0" y="0" flags="0x1204"/>
      <component glyphName="caron" x="168" y="190" flags="0x1004"/>
    </TTGlyph>
    <TTGlyph name="Tcommaaccent" xMin="12" yMin="-328" xMax="715" yMax="730">
      <component glyphName="T" x="0" y="0" flags="0x1204"/>
      <component glyphName="commaaccent" x="226" y="4" flags="0x1004"/>
    </TTGlyph>
    <TTGlyph name="Thorn" xMin="31" yMin="20" xMax="387" yMax="826">
      <contour>
        <pt x="50" y="20" on="1"/>
        <pt x="41" y="18" on="0"/>
        <pt x="32" y="85" on="0"/>
        <pt x="30" y="203" on="0"/>
        <pt x="32" y="362" on="0"/>
        <pt x="39" y="543" on="0"/>
        <pt x="48" y="734" on="0"/>
        <pt x="53" y="826" on="1"/>
        <pt x="83" y="828" on="0"/>
        <pt x="109" y="823" on="0"/>
        <pt x="114" y="805" on="0"/>
        <pt x="105" y="769" on="0"/>
        <pt x="96" y="709" on="0"/>
        <pt x="93" y="624" on="0"/>
        <pt x="102" y="564" on="1"/>
        <pt x="132" y="604" on="0"/>
        <pt x="176" y="643" on="0"/>
        <pt x="217" y="660" on="0"/>
        <pt x="261" y="664" on="0"/>
        <pt x="292" y="670" on="1"/>
        <pt x="323" y="665" on="0"/>
        <pt x="361" y="630" on="0"/>
        <pt x="382" y="582" on="0"/>
        <pt x="388" y="528" on="0"/>
        <pt x="387" y="504" on="1"/>
        <pt x="386" y="474" on="0"/>
        <pt x="375" y="410" on="0"/>
        <pt x="319" y="337" on="0"/>
        <pt x="202" y="247" on="0"/>
        <pt x="93" y="193" on="1"/>
        <pt x="91" y="193" on="0"/>
        <pt x="90" y="168" on="0"/>
        <pt x="91" y="131" on="0"/>
        <pt x="93" y="89" on="0"/>
        <pt x="94" y="52" on="0"/>
        <pt x="94" y="28" on="0"/>
        <pt x="93" y="28" on="1"/>
      </contour>
      <contour>
        <pt x="89" y="253" on="1"/>
        <pt x="94" y="257" on="0"/>
        <pt x="132" y="272" on="0"/>
        <pt x="185" y="296" on="0"/>
        <pt x="245" y="334" on="0"/>
        <pt x="297" y="389" on="0"/>
        <pt x="334" y="463" on="0"/>
        <pt x="337" y="512" on="1"/>
        <pt x="337" y="526" on="0"/>
        <pt x="329" y="558" on="0"/>
        <pt x="312" y="586" on="0"/>
        <pt x="286" y="605" on="0"/>
        <pt x="268" y="605" on="1"/>
        <pt x="231" y="605" on="0"/>
        <pt x="177" y="577" on="0"/>
        <pt x="136" y="532" on="0"/>
        <pt x="105" y="475" on="0"/>
        <pt x="93" y="446" on="1"/>
      </contour>
    </TTGlyph>
    <TTGlyph name="U" xMin="31" yMin="-117" xMax="441" yMax="635">
      <contour>
        <pt x="364" y="268" on="1"/>
        <pt x="354" y="231" on="0"/>
        <pt x="321" y="142" on="0"/>
        <pt x="272" y="64" on="0"/>
        <pt x="204" y="11" on="0"/>
        <pt x="159" y="11" on="1"/>
        <pt x="124" y="11" on="0"/>
        <pt x="81" y="40" on="0"/>
        <pt x="57" y="89" on="0"/>
        <pt x="46" y="148" on="0"/>
        <pt x="44" y="178" on="1"/>
        <pt x="43" y="188" on="0"/>
        <pt x="41" y="249" on="0"/>
        <pt x="39" y="332" on="0"/>
        <pt x="36" y="426" on="0"/>
        <pt x="33" y="508" on="0"/>
        <pt x="31" y="570" on="0"/>
        <pt x="31" y="580" on="1"/>
        <pt x="30" y="590" on="0"/>
        <pt x="34" y="601" on="0"/>
        <pt x="44" y="606" on="0"/>
        <pt x="57" y="607" on="0"/>
        <pt x="62" y="607" on="1"/>
        <pt x="70" y="607" on="1"/>
        <pt x="76" y="607" on="0"/>
        <pt x="86" y="605" on="0"/>
        <pt x="94" y="598" on="0"/>
        <pt x="94" y="592" on="1"/>
        <pt x="94" y="166" on="1"/>
        <pt x="94" y="148" on="0"/>
        <pt x="105" y="112" on="0"/>
        <pt x="125" y="81" on="0"/>
        <pt x="155" y="61" on="0"/>
        <pt x="174" y="61" on="1"/>
        <pt x="212" y="64" on="0"/>
        <pt x="267" y="139" on="0"/>
        <pt x="307" y="253" on="0"/>
        <pt x="333" y="387" on="0"/>
        <pt x="353" y="511" on="0"/>
        <pt x="368" y="607" on="0"/>
        <pt x="377" y="626" on="1"/>
        <pt x="396" y="643" on="0"/>
        <pt x="418" y="626" on="0"/>
        <pt x="429" y="591" on="0"/>
        <pt x="431" y="550" on="0"/>
        <pt x="428" y="541" on="1"/>
        <pt x="428" y="474" on="0"/>
        <pt x="415" y="342" on="0"/>
        <pt x="415" y="274" on="1"/>
        <pt x="415" y="231" on="0"/>
        <pt x="423" y="145" on="0"/>
        <pt x="433" y="59" on="0"/>
        <pt x="441" y="-26" on="0"/>
        <pt x="441" y="-68" on="1"/>
        <pt x="441" y="-76" on="0"/>
        <pt x="439" y="-93" on="0"/>
        <pt x="432" y="-107" on="0"/>
        <pt x="420" y="-117" on="0"/>
        <pt x="409" y="-117" on="1"/>
        <pt x="409" y="-117" on="0"/>
        <pt x="404" y="-116" on="0"/>
        <pt x="402" y="-116" on="1"/>
      </contour>
    </TTGlyph>
    <TTGlyph name="Uacute" xMin="31" yMin="-117" xMax="441" yMax="742">
      <component glyphName="U" x="0" y="0" flags="0x1204"/>
      <component glyphName="acute" x="171" y="0" flags="0x1004"/>
    </TTGlyph>
    <TTGlyph name="Ubreve" xMin="31" yMin="-117" xMax="441" yMax="758">
      <component glyphName="U" x="0" y="0" flags="0x1204"/>
      <component glyphName="breve" x="49" y="0" flags="0x1004"/>
    </TTGlyph>
    <TTGlyph name="Ucircumflex" xMin="31" yMin="-117" xMax="441" yMax="955">
      <component glyphName="U" x="0" y="0" flags="0x1204"/>
      <component glyphName="circumflex" x="24" y="0" flags="0x1004"/>
    </TTGlyph>
    <TTGlyph name="Udieresis" xMin="31" yMin="-117" xMax="441" yMax="765">
      <component glyphName="U" x="0" y="0" flags="0x1204"/>
      <component glyphName="dieresis" x="66" y="0" flags="0x1004"/>
    </TTGlyph>
    <TTGlyph name="Ugrave" xMin="31" yMin="-117" xMax="441" yMax="815">
      <component glyphName="U" x="0" y="0" flags="0x1204"/>
      <component glyphName="grave" x="140" y="58" flags="0x1004"/>
    </TTGlyph>
    <TTGlyph name="Uhungarumlaut" xMin="31" yMin="-117" xMax="441" yMax="860">
      <component glyphName="U" x="0" y="0" flags="0x1204"/>
      <component glyphName="hungarumlaut" x="112" y="229" flags="0x1004"/>
    </TTGlyph>
    <TTGlyph name="Umacron" xMin="31" yMin="-117" xMax="441" yMax="761">
      <component glyphName="U" x="0" y="0" flags="0x1204"/>
      <component glyphName="macron" x="31" y="0" flags="0x1004"/>
    </TTGlyph>
    <TTGlyph name="Uogonek" xMin="31" yMin="-278" xMax="533" yMax="635">
      <contour>
        <pt x="519" y="-190" on="1"/>
        <pt x="539" y="-204" on="0"/>
        <pt x="527" y="-240" on="0"/>
        <pt x="481" y="-270" on="0"/>
        <pt x="410" y="-285" on="0"/>
        <pt x="371" y="-278" on="1"/>
        <pt x="333" y="-267" on="0"/>
        <pt x="293" y="-202" on="0"/>
        <pt x="295" y="-120" on="0"/>
        <pt x="340" y="-38" on="0"/>
        <pt x="387" y="-12" on="1"/>
        <pt x="391" y="-12" on="1"/>
        <pt x="364" y="268" on="1"/>
        <pt x="354" y="231" on="0"/>
        <pt x="321" y="142" on="0"/>
        <pt x="272" y="64" on="0"/>
        <pt x="204" y="11" on="0"/>
        <pt x="159" y="11" on="1"/>
        <pt x="124" y="11" on="0"/>
        <pt x="81" y="40" on="0"/>
        <pt x="57" y="89" on="0"/>
        <pt x="46" y="148" on="0"/>
        <pt x="44" y="178" on="1"/>
        <pt x="43" y="188" on="0"/>
        <pt x="41" y="249" on="0"/>
        <pt x="39" y="332" on="0"/>
        <pt x="36" y="426" on="0"/>
        <pt x="33" y="508" on="0"/>
        <pt x="31" y="570" on="0"/>
        <pt x="31" y="580" on="1"/>
        <pt x="30" y="590" on="0"/>
        <pt x="34" y="601" on="0"/>
        <pt x="44" y="606" on="0"/>
        <pt x="57" y="607" on="0"/>
        <pt x="62" y="607" on="1"/>
        <pt x="70" y="607" on="1"/>
        <pt x="76" y="607" on="0"/>
        <pt x="86" y="605" on="0"/>
        <pt x="94" y="598" on="0"/>
        <pt x="94" y="592" on="1"/>
        <pt x="94" y="166" on="1"/>
        <pt x="94" y="148" on="0"/>
        <pt x="105" y="112" on="0"/>
        <pt x="125" y="81" on="0"/>
        <pt x="155" y="61" on="0"/>
        <pt x="174" y="61" on="1"/>
        <pt x="212" y="64" on="0"/>
        <pt x="267" y="139" on="0"/>
        <pt x="307" y="253" on="0"/>
        <pt x="333" y="387" on="0"/>
        <pt x="353" y="511" on="0"/>
        <pt x="368" y="607" on="0"/>
        <pt x="377" y="626" on="1"/>
        <pt x="396" y="643" on="0"/>
        <pt x="418" y="626" on="0"/>
        <pt x="429" y="591" on="0"/>
        <pt x="431" y="550" on="0"/>
        <pt x="428" y="541" on="1"/>
        <pt x="428" y="474" on="0"/>
        <pt x="415" y="342" on="0"/>
        <pt x="415" y="274" on="1"/>
        <pt x="415" y="231" on="0"/>
        <pt x="423" y="145" on="0"/>
        <pt x="433" y="59" on="0"/>
        <pt x="441" y="-26" on="0"/>
        <pt x="441" y="-68" on="1"/>
        <pt x="441" y="-76" on="0"/>
        <pt x="439" y="-93" on="0"/>
        <pt x="432" y="-107" on="0"/>
        <pt x="420" y="-117" on="0"/>
        <pt x="409" y="-117" on="1"/>
        <pt x="409" y="-117" on="0"/>
        <pt x="404" y="-116" on="0"/>
        <pt x="402" y="-116" on="1"/>
        <pt x="397" y="-67" on="1"/>
        <pt x="394" y="-68" on="0"/>
        <pt x="391" y="-68" on="1"/>
        <pt x="370" y="-94" on="0"/>
        <pt x="347" y="-147" on="0"/>
        <pt x="346" y="-191" on="0"/>
        <pt x="368" y="-221" on="0"/>
        <pt x="391" y="-225" on="1"/>
        <pt x="408" y="-225" on="0"/>
        <pt x="439" y="-214" on="0"/>
        <pt x="471" y="-201" on="0"/>
        <pt x="502" y="-190" on="0"/>
      </contour>
    </TTGlyph>
    <TTGlyph name="Uring" xMin="31" yMin="-117" xMax="441" yMax="830">
      <component glyphName="U" x="0" y="0" flags="0x1204"/>
      <component glyphName="ring" x="86" y="139" flags="0x1004"/>
    </TTGlyph>
    <TTGlyph name="Utilde" xMin="31" yMin="-117" xMax="441" yMax="863">
      <component glyphName="U" x="0" y="0" flags="0x1204"/>
      <component glyphName="tilde" x="14" y="132" flags="0x1004"/>
    </TTGlyph>
    <TTGlyph name="V" xMin="12" yMin="0" xMax="512" yMax="742">
      <contour>
        <pt x="12" y="582" on="1"/>
        <pt x="12" y="595" on="0"/>
        <pt x="35" y="602" on="0"/>
        <pt x="45" y="602" on="1"/>
        <pt x="57" y="602" on="0"/>
        <pt x="72" y="588" on="0"/>
        <pt x="76" y="576" on="1"/>
        <pt x="307" y="89" on="1"/>
        <pt x="461" y="730" on="1"/>
        <pt x="463" y="737" on="0"/>
        <pt x="473" y="742" on="0"/>
        <pt x="481" y="742" on="1"/>
        <pt x="490" y="742" on="0"/>
        <pt x="514" y="727" on="0"/>
        <pt x="512" y="717" on="1"/>
        <pt x="358" y="13" on="1"/>
        <pt x="350" y="-2" on="0"/>
        <pt x="320" y="2" on="0"/>
        <pt x="290" y="21" on="0"/>
        <pt x="263" y="45" on="0"/>
        <pt x="256" y="51" on="1"/>
        <pt x="13" y="576" on="1"/>
        <pt x="12" y="577" on="0"/>
        <pt x="12" y="579" on="1"/>
      </contour>
    </TTGlyph>
    <TTGlyph name="W" xMin="17" yMin="-13" xMax="862" yMax="760">
      <contour>
        <pt x="17" y="589" on="1"/>
        <pt x="19" y="594" on="0"/>
        <pt x="31" y="607" on="0"/>
        <pt x="46" y="621" on="0"/>
        <pt x="61" y="634" on="0"/>
        <pt x="67" y="637" on="1"/>
        <pt x="75" y="631" on="0"/>
        <pt x="86" y="613" on="0"/>
        <pt x="102" y="570" on="0"/>
        <pt x="125" y="496" on="0"/>
        <pt x="163" y="372" on="0"/>
        <pt x="220" y="191" on="0"/>
        <pt x="261" y="64" on="1"/>
        <pt x="265" y="67" on="0"/>
        <pt x="286" y="125" on="0"/>
        <pt x="316" y="212" on="0"/>
        <pt x="351" y="319" on="0"/>
        <pt x="385" y="428" on="0"/>
        <pt x="416" y="527" on="0"/>
        <pt x="427" y="563" on="1"/>
        <pt x="430" y="577" on="0"/>
        <pt x="433" y="604" on="0"/>
        <pt x="439" y="626" on="0"/>
        <pt x="454" y="641" on="0"/>
        <pt x="472" y="641" on="1"/>
        <pt x="486" y="647" on="0"/>
        <pt x="510" y="607" on="0"/>
        <pt x="535" y="531" on="0"/>
        <pt x="563" y="430" on="0"/>
        <pt x="598" y="320" on="0"/>
        <pt x="641" y="211" on="0"/>
        <pt x="670" y="166" on="1"/>
        <pt x="811" y="742" on="1"/>
        <pt x="813" y="750" on="0"/>
        <pt x="824" y="760" on="0"/>
        <pt x="839" y="760" on="0"/>
        <pt x="855" y="746" on="0"/>
        <pt x="862" y="730" on="1"/>
        <pt x="722" y="166" on="1"/>
        <pt x="722" y="153" on="0"/>
        <pt x="716" y="118" on="0"/>
        <pt x="706" y="85" on="0"/>
        <pt x="693" y="61" on="0"/>
        <pt x="676" y="56" on="0"/>
        <pt x="656" y="75" on="0"/>
        <pt x="645" y="103" on="1"/>
        <pt x="589" y="202" on="0"/>
        <pt x="501" y="417" on="0"/>
        <pt x="465" y="537" on="1"/>
        <pt x="337" y="115" on="1"/>
        <pt x="331" y="71" on="0"/>
        <pt x="308" y="18" on="0"/>
        <pt x="281" y="-8" on="0"/>
        <pt x="253" y="-14" on="0"/>
        <pt x="231" y="-11" on="0"/>
        <pt x="220" y="-2" on="0"/>
        <pt x="222" y="0" on="1"/>
        <pt x="199" y="31" on="0"/>
        <pt x="166" y="118" on="0"/>
        <pt x="139" y="221" on="0"/>
        <pt x="113" y="334" on="0"/>
        <pt x="84" y="445" on="0"/>
        <pt x="44" y="547" on="0"/>
      </contour>
    </TTGlyph>
    <TTGlyph name="Wacute" xMin="17" yMin="-13" xMax="862" yMax="933">
      <component glyphName="W" x="0" y="0" flags="0x1204"/>
      <component glyphName="acute" x="340" y="191" flags="0x1004"/>
    </TTGlyph>
    <TTGlyph name="Wcircumflex" xMin="17" yMin="-13" xMax="862" yMax="1056">
      <component glyphName="W" x="0" y="0" flags="0x1204"/>
      <component glyphName="circumflex" x="244" y="101" flags="0x1004"/>
    </TTGlyph>
    <TTGlyph name="Wdieresis" xMin="17" yMin="-13" xMax="862" yMax="858">
      <component glyphName="W" x="0" y="0" flags="0x1204"/>
      <component glyphName="dieresis" x="293" y="93" flags="0x1004"/>
    </TTGlyph>
    <TTGlyph name="Wgrave" xMin="17" yMin="-13" xMax="862" yMax="986">
      <component glyphName="W" x="0" y="0" flags="0x1204"/>
      <component glyphName="grave" x="387" y="229" flags="0x1004"/>
    </TTGlyph>
    <TTGlyph name="X" xMin="22" yMin="0" xMax="445" yMax="718">
      <contour>
        <pt x="354" y="26" on="1"/>
        <pt x="343" y="53" on="0"/>
        <pt x="316" y="117" on="0"/>
        <pt x="283" y="183" on="0"/>
        <pt x="246" y="245" on="0"/>
        <pt x="226" y="269" on="1"/>
        <pt x="216" y="261" on="0"/>
        <pt x="190" y="227" on="0"/>
        <pt x="161" y="184" on="0"/>
        <pt x="132" y="134" on="0"/>
        <pt x="104" y="89" on="0"/>
        <pt x="81" y="50" on="0"/>
        <pt x="73" y="39" on="1"/>
        <pt x="22" y="64" on="1"/>
        <pt x="38" y="94" on="0"/>
        <pt x="89" y="162" on="0"/>
        <pt x="139" y="236" on="0"/>
        <pt x="181" y="310" on="0"/>
        <pt x="188" y="346" on="1"/>
        <pt x="60" y="615" on="1"/>
        <pt x="59" y="616" on="0"/>
        <pt x="58" y="628" on="0"/>
        <pt x="58" y="632" on="1"/>
        <pt x="58" y="649" on="0"/>
        <pt x="69" y="667" on="0"/>
        <pt x="87" y="667" on="1"/>
        <pt x="89" y="667" on="0"/>
        <pt x="98" y="666" on="0"/>
        <pt x="98" y="665" on="1"/>
        <pt x="226" y="397" on="1"/>
        <pt x="231" y="405" on="0"/>
        <pt x="258" y="450" on="0"/>
        <pt x="294" y="511" on="0"/>
        <pt x="334" y="581" on="0"/>
        <pt x="372" y="647" on="0"/>
        <pt x="403" y="703" on="0"/>
        <pt x="412" y="718" on="1"/>
        <pt x="422" y="718" on="0"/>
        <pt x="445" y="713" on="0"/>
        <pt x="445" y="697" on="1"/>
        <pt x="445" y="693" on="1"/>
        <pt x="445" y="691" on="0"/>
        <pt x="444" y="691" on="1"/>
        <pt x="255" y="340" on="1"/>
        <pt x="406" y="51" on="1"/>
        <pt x="407" y="49" on="0"/>
        <pt x="408" y="36" on="0"/>
        <pt x="408" y="32" on="1"/>
        <pt x="408" y="27" on="0"/>
        <pt x="407" y="13" on="0"/>
        <pt x="401" y="3" on="0"/>
        <pt x="390" y="-3" on="0"/>
        <pt x="380" y="0" on="1"/>
        <pt x="375" y="2" on="0"/>
        <pt x="355" y="22" on="0"/>
      </contour>
    </TTGlyph>
    <TTGlyph name="Y" xMin="12" yMin="-1" xMax="473" yMax="796">
      <contour>
        <pt x="192" y="25" on="1"/>
        <pt x="192" y="61" on="0"/>
        <pt x="214" y="130" on="0"/>
        <pt x="240" y="200" on="0"/>
        <pt x="259" y="269" on="0"/>
        <pt x="256" y="307" on="1"/>
        <pt x="227" y="339" on="0"/>
        <pt x="157" y="414" on="0"/>
        <pt x="89" y="495" on="0"/>
        <pt x="31" y="582" on="0"/>
        <pt x="13" y="627" on="1"/>
        <pt x="12" y="628" on="0"/>
        <pt x="12" y="630" on="1"/>
        <pt x="12" y="634" on="1"/>
        <pt x="12" y="646" on="0"/>
        <pt x="30" y="654" on="0"/>
        <pt x="40" y="654" on="1"/>
        <pt x="66" y="623" on="0"/>
        <pt x="125" y="544" on="0"/>
        <pt x="187" y="466" on="0"/>
        <pt x="251" y="395" on="0"/>
        <pt x="282" y="372" on="1"/>
        <pt x="295" y="372" on="1"/>
        <pt x="299" y="379" on="0"/>
        <pt x="319" y="434" on="0"/>
        <pt x="348" y="510" on="0"/>
        <pt x="380" y="602" on="0"/>
        <pt x="409" y="691" on="0"/>
        <pt x="430" y="769" on="0"/>
        <pt x="435" y="794" on="1"/>
        <pt x="436" y="796" on="0"/>
        <pt x="441" y="796" on="1"/>
        <pt x="456" y="796" on="0"/>
        <pt x="475" y="769" on="0"/>
        <pt x="473" y="755" on="1"/>
        <pt x="446" y="660" on="0"/>
        <pt x="411" y="538" on="0"/>
        <pt x="388" y="461" on="0"/>
        <pt x="372" y="414" on="0"/>
        <pt x="355" y="372" on="0"/>
        <pt x="337" y="321" on="0"/>
        <pt x="307" y="236" on="0"/>
        <pt x="263" y="103" on="0"/>
        <pt x="230" y="0" on="1"/>
        <pt x="229" y="0" on="0"/>
        <pt x="220" y="-1" on="0"/>
        <pt x="218" y="-1" on="1"/>
        <pt x="192" y="-1" on="0"/>
      </contour>
    </TTGlyph>
    <TTGlyph name="Yacute" xMin="12" yMin="-1" xMax="473" yMax="968">
      <component glyphName="Y" x="0" y="0" flags="0x1204"/>
      <component glyphName="acute" x="203" y="226" flags="0x1004"/>
    </TTGlyph>
    <TTGlyph name="Ycircumflex" xMin="12" yMin="-1" xMax="473" yMax="1098">
      <component glyphName="Y" x="0" y="0" flags="0x1204"/>
      <component glyphName="circumflex" x="45" y="143" flags="0x1004"/>
    </TTGlyph>
    <TTGlyph name="Ydieresis" xMin="12" yMin="-1" xMax="473" yMax="796">
      <component glyphName="Y" x="0" y="0" flags="0x1204"/>
      <component glyphName="dieresis" x="83" y="0" flags="0x1004"/>
    </TTGlyph>
    <TTGlyph name="Ygrave" xMin="12" yMin="-1" xMax="473" yMax="1006">
      <component glyphName="Y" x="0" y="0" flags="0x1204"/>
      <component glyphName="grave" x="173" y="249" flags="0x1004"/>
    </TTGlyph>
    <TTGlyph name="Z" xMin="22" yMin="-1" xMax="662" yMax="698">
      <contour>
        <pt x="22" y="51" on="1"/>
        <pt x="22" y="52" on="0"/>
        <pt x="27" y="60" on="0"/>
        <pt x="53" y="94" on="0"/>
        <pt x="108" y="165" on="0"/>
        <pt x="208" y="292" on="0"/>
        <pt x="359" y="486" on="0"/>
        <pt x="469" y="627" on="1"/>
        <pt x="469" y="640" on="1"/>
        <pt x="418" y="646" on="0"/>
        <pt x="311" y="653" on="0"/>
        <pt x="203" y="655" on="0"/>
        <pt x="96" y="654" on="0"/>
        <pt x="47" y="652" on="1"/>
        <pt x="40" y="657" on="0"/>
        <pt x="37" y="688" on="0"/>
        <pt x="37" y="695" on="1"/>
        <pt x="37" y="697" on="0"/>
        <pt x="113" y="698" on="0"/>
        <pt x="229" y="698" on="0"/>
        <pt x="364" y="697" on="0"/>
        <pt x="481" y="696" on="0"/>
        <pt x="561" y="695" on="0"/>
        <pt x="563" y="695" on="1"/>
        <pt x="571" y="652" on="1"/>
        <pt x="111" y="76" on="1"/>
        <pt x="148" y="76" on="1"/>
        <pt x="174" y="76" on="0"/>
        <pt x="233" y="76" on="0"/>
        <pt x="259" y="76" on="1"/>
        <pt x="388" y="76" on="1"/>
        <pt x="431" y="76" on="0"/>
        <pt x="516" y="77" on="0"/>
        <pt x="601" y="84" on="0"/>
        <pt x="649" y="89" on="1"/>
        <pt x="659" y="85" on="0"/>
        <pt x="662" y="71" on="0"/>
        <pt x="662" y="64" on="1"/>
        <pt x="662" y="50" on="1"/>
        <pt x="662" y="44" on="0"/>
        <pt x="658" y="32" on="0"/>
        <pt x="649" y="25" on="0"/>
        <pt x="641" y="26" on="1"/>
        <pt x="576" y="18" on="0"/>
        <pt x="427" y="13" on="0"/>
        <pt x="277" y="11" on="0"/>
        <pt x="133" y="6" on="0"/>
        <pt x="73" y="0" on="1"/>
        <pt x="72" y="0" on="0"/>
        <pt x="61" y="-1" on="0"/>
        <pt x="59" y="-1" on="1"/>
        <pt x="40" y="-1" on="0"/>
        <pt x="22" y="34" on="0"/>
      </contour>
    </TTGlyph>
    <TTGlyph name="Zacute" xMin="22" yMin="-1" xMax="662" yMax="936">
      <component glyphName="Z" x="0" y="0" flags="0x1204"/>
      <component glyphName="acute" x="246" y="194" flags="0x1004"/>
    </TTGlyph>
    <TTGlyph name="Zcaron" xMin="22" yMin="-1" xMax="662" yMax="948">
      <component glyphName="Z" x="0" y="0" flags="0x1204"/>
      <component glyphName="caron" x="138" y="128" flags="0x1004"/>
    </TTGlyph>
    <TTGlyph name="Zdotaccent" xMin="22" yMin="-1" xMax="662" yMax="823">
      <component glyphName="Z" x="0" y="0" flags="0x1204"/>
      <component glyphName="dotaccent" x="283" y="198" flags="0x1004"/>
    </TTGlyph>
    <TTGlyph name="a" xMin="1" yMin="13" xMax="349" yMax="552">
      <contour>
        <pt x="310" y="26" on="1"/>
        <pt x="305" y="52" on="0"/>
        <pt x="298" y="125" on="0"/>
        <pt x="290" y="200" on="0"/>
        <pt x="279" y="266" on="0"/>
        <pt x="268" y="287" on="1"/>
        <pt x="217" y="183" on="0"/>
        <pt x="139" y="64" on="0"/>
        <pt x="80" y="13" on="0"/>
        <pt x="40" y="15" on="0"/>
        <pt x="14" y="49" on="0"/>
        <pt x="3" y="102" on="0"/>
        <pt x="1" y="125" on="1"/>
        <pt x="1" y="147" on="0"/>
        <pt x="21" y="227" on="0"/>
        <pt x="55" y="322" on="0"/>
        <pt x="102" y="420" on="0"/>
        <pt x="156" y="500" on="0"/>
        <pt x="214" y="552" on="0"/>
        <pt x="243" y="552" on="1"/>
        <pt x="286" y="559" on="0"/>
        <pt x="327" y="508" on="0"/>
        <pt x="314" y="448" on="1"/>
        <pt x="314" y="382" on="0"/>
        <pt x="325" y="288" on="0"/>
        <pt x="338" y="202" on="0"/>
        <pt x="349" y="108" on="0"/>
        <pt x="349" y="42" on="1"/>
        <pt x="349" y="30" on="0"/>
        <pt x="344" y="13" on="0"/>
        <pt x="322" y="13" on="1"/>
        <pt x="319" y="13" on="0"/>
        <pt x="310" y="23" on="0"/>
      </contour>
      <contour>
        <pt x="256" y="473" on="1"/>
        <pt x="245" y="489" on="0"/>
        <pt x="207" y="463" on="0"/>
        <pt x="165" y="403" on="0"/>
        <pt x="121" y="319" on="0"/>
        <pt x="83" y="233" on="0"/>
        <pt x="55" y="156" on="0"/>
        <pt x="50" y="131" on="1"/>
        <pt x="50" y="95" on="0"/>
        <pt x="72" y="86" on="0"/>
        <pt x="104" y="118" on="0"/>
        <pt x="145" y="178" on="0"/>
        <pt x="184" y="246" on="0"/>
        <pt x="219" y="310" on="0"/>
        <pt x="229" y="330" on="1"/>
        <pt x="238" y="351" on="0"/>
        <pt x="248" y="387" on="0"/>
        <pt x="255" y="420" on="0"/>
        <pt x="256" y="454" on="0"/>
      </contour>
    </TTGlyph>
    <TTGlyph name="aacute" xMin="1" yMin="13" xMax="349" yMax="742">
      <component glyphName="a" x="0" y="0" flags="0x1204"/>
      <component glyphName="acute" x="129" y="0" flags="0x1004"/>
    </TTGlyph>
    <TTGlyph name="abreve" xMin="1" yMin="13" xMax="349" yMax="758">
      <component glyphName="a" x="0" y="0" flags="0x1204"/>
      <component glyphName="breve" x="7" y="0" flags="0x1004"/>
    </TTGlyph>
    <TTGlyph name="acircumflex" xMin="1" yMin="13" xMax="368" yMax="955">
      <component glyphName="a" x="0" y="0" flags="0x1204"/>
      <component glyphName="circumflex" x="-16" y="0" flags="0x1004"/>
    </TTGlyph>
    <TTGlyph name="acute" xMin="19" yMin="601" xMax="141" yMax="742">
      <contour>
        <pt x="49" y="601" on="1"/>
        <pt x="22" y="607" on="0"/>
        <pt x="17" y="637" on="0"/>
        <pt x="43" y="676" on="0"/>
        <pt x="89" y="721" on="0"/>
        <pt x="112" y="742" on="1"/>
        <pt x="129" y="742" on="0"/>
        <pt x="141" y="724" on="0"/>
        <pt x="141" y="712" on="1"/>
        <pt x="141" y="705" on="1"/>
        <pt x="139" y="693" on="0"/>
        <pt x="119" y="665" on="0"/>
        <pt x="91" y="637" on="0"/>
        <pt x="60" y="611" on="0"/>
      </contour>
    </TTGlyph>
    <TTGlyph name="adieresis" xMin="1" yMin="13" xMax="349" yMax="765">
      <component glyphName="a" x="0" y="0" flags="0x1204"/>
      <component glyphName="dieresis" x="23" y="0" flags="0x1004"/>
    </TTGlyph>
    <TTGlyph name="ae" xMin="1" yMin="13" xMax="704" yMax="573">
      <contour>
        <pt x="310" y="26" on="1"/>
        <pt x="305" y="52" on="0"/>
        <pt x="298" y="125" on="0"/>
        <pt x="290" y="200" on="0"/>
        <pt x="284" y="233" on="1"/>
        <pt x="283" y="238" on="0"/>
        <pt x="283" y="243" on="1"/>
        <pt x="278" y="243" on="0"/>
        <pt x="274" y="244" on="1"/>
        <pt x="263" y="245" on="0"/>
        <pt x="254" y="249" on="1"/>
        <pt x="252" y="250" on="0"/>
        <pt x="251" y="252" on="1"/>
        <pt x="210" y="172" on="0"/>
        <pt x="177" y="123" on="1"/>
        <pt x="139" y="64" on="0"/>
        <pt x="80" y="13" on="0"/>
        <pt x="40" y="15" on="0"/>
        <pt x="14" y="49" on="0"/>
        <pt x="3" y="102" on="0"/>
        <pt x="1" y="125" on="1"/>
        <pt x="1" y="147" on="0"/>
        <pt x="21" y="227" on="0"/>
        <pt x="55" y="322" on="0"/>
        <pt x="102" y="420" on="0"/>
        <pt x="156" y="500" on="0"/>
        <pt x="214" y="552" on="0"/>
        <pt x="243" y="552" on="1"/>
        <pt x="286" y="559" on="0"/>
        <pt x="327" y="508" on="0"/>
        <pt x="314" y="448" on="1"/>
        <pt x="314" y="407" on="0"/>
        <pt x="316" y="373" on="1"/>
        <pt x="320" y="382" on="0"/>
        <pt x="324" y="393" on="1"/>
        <pt x="337" y="426" on="0"/>
        <pt x="366" y="490" on="0"/>
        <pt x="405" y="543" on="0"/>
        <pt x="461" y="574" on="0"/>
        <pt x="501" y="573" on="1"/>
        <pt x="518" y="573" on="0"/>
        <pt x="561" y="558" on="0"/>
        <pt x="597" y="530" on="0"/>
        <pt x="621" y="492" on="0"/>
        <pt x="621" y="470" on="1"/>
        <pt x="625" y="462" on="0"/>
        <pt x="597" y="432" on="0"/>
        <pt x="546" y="397" on="0"/>
        <pt x="484" y="360" on="0"/>
        <pt x="426" y="328" on="0"/>
        <pt x="382" y="303" on="0"/>
        <pt x="374" y="298" on="1"/>
        <pt x="370" y="287" on="0"/>
        <pt x="364" y="262" on="0"/>
        <pt x="361" y="238" on="0"/>
        <pt x="360" y="220" on="0"/>
        <pt x="360" y="214" on="1"/>
        <pt x="360" y="195" on="0"/>
        <pt x="356" y="149" on="0"/>
        <pt x="364" y="109" on="0"/>
        <pt x="390" y="82" on="0"/>
        <pt x="420" y="82" on="1"/>
        <pt x="454" y="82" on="0"/>
        <pt x="512" y="114" on="0"/>
        <pt x="562" y="163" on="0"/>
        <pt x="603" y="219" on="0"/>
        <pt x="635" y="267" on="0"/>
        <pt x="661" y="300" on="0"/>
        <pt x="670" y="300" on="1"/>
        <pt x="680" y="300" on="0"/>
        <pt x="704" y="292" on="0"/>
        <pt x="704" y="280" on="1"/>
        <pt x="704" y="262" on="0"/>
        <pt x="675" y="211" on="0"/>
        <pt x="627" y="156" on="0"/>
        <pt x="567" y="101" on="0"/>
        <pt x="505" y="58" on="0"/>
        <pt x="445" y="31" on="0"/>
        <pt x="422" y="31" on="1"/>
        <pt x="377" y="31" on="0"/>
        <pt x="354" y="52" on="1"/>
        <pt x="351" y="55" on="0"/>
        <pt x="349" y="58" on="1"/>
        <pt x="349" y="42" on="1"/>
        <pt x="349" y="30" on="0"/>
        <pt x="344" y="13" on="0"/>
        <pt x="322" y="13" on="1"/>
        <pt x="319" y="13" on="0"/>
        <pt x="310" y="23" on="0"/>
      </contour>
      <contour>
        <pt x="256" y="473" on="1"/>
        <pt x="245" y="489" on="0"/>
        <pt x="207" y="463" on="0"/>
        <pt x="165" y="403" on="0"/>
        <pt x="121" y="319" on="0"/>
        <pt x="83" y="233" on="0"/>
        <pt x="55" y="156" on="0"/>
        <pt x="50" y="131" on="1"/>
        <pt x="50" y="95" on="0"/>
        <pt x="72" y="86" on="0"/>
        <pt x="104" y="118" on="0"/>
        <pt x="145" y="178" on="0"/>
        <pt x="184" y="246" on="0"/>
        <pt x="219" y="310" on="0"/>
        <pt x="229" y="330" on="1"/>
        <pt x="238" y="351" on="0"/>
        <pt x="248" y="387" on="0"/>
        <pt x="255" y="420" on="0"/>
        <pt x="256" y="454" on="0"/>
      </contour>
      <contour>
        <pt x="494" y="517" on="1"/>
        <pt x="477" y="517" on="0"/>
        <pt x="438" y="484" on="0"/>
        <pt x="406" y="437" on="0"/>
        <pt x="384" y="389" on="0"/>
        <pt x="384" y="373" on="1"/>
        <pt x="400" y="373" on="0"/>
        <pt x="456" y="396" on="0"/>
        <pt x="513" y="429" on="0"/>
        <pt x="554" y="468" on="0"/>
        <pt x="554" y="484" on="1"/>
        <pt x="554" y="493" on="0"/>
        <pt x="541" y="506" on="0"/>
        <pt x="522" y="514" on="0"/>
        <pt x="501" y="517" on="0"/>
      </contour>
    </TTGlyph>
    <TTGlyph name="aeacute" xMin="1" yMin="13" xMax="704" yMax="742">
      <component glyphName="ae" x="0" y="0" flags="0x1204"/>
      <component glyphName="acute" x="301" y="0" flags="0x1004"/>
    </TTGlyph>
    <TTGlyph name="agrave" xMin="1" yMin="13" xMax="349" yMax="757">
      <component glyphName="a" x="0" y="0" flags="0x1204"/>
      <component glyphName="grave" x="98" y="0" flags="0x1004"/>
    </TTGlyph>
    <TTGlyph name="amacron" xMin="1" yMin="13" xMax="374" yMax="761">
      <component glyphName="a" x="0" y="0" flags="0x1204"/>
      <component glyphName="macron" x="-9" y="0" flags="0x1004"/>
    </TTGlyph>
    <TTGlyph name="ampersand" xMin="16" yMin="115" xMax="338" yMax="567">
      <contour>
        <pt x="186" y="256" on="1"/>
        <pt x="133" y="199" on="0"/>
        <pt x="67" y="161" on="0"/>
        <pt x="30" y="177" on="0"/>
        <pt x="16" y="236" on="0"/>
        <pt x="16" y="275" on="1"/>
        <pt x="16" y="310" on="0"/>
        <pt x="40" y="356" on="0"/>
        <pt x="76" y="382" on="0"/>
        <pt x="118" y="387" on="0"/>
        <pt x="154" y="376" on="0"/>
        <pt x="166" y="364" on="1"/>
        <pt x="176" y="352" on="0"/>
        <pt x="178" y="337" on="1"/>
        <pt x="178" y="550" on="1"/>
        <pt x="178" y="555" on="0"/>
        <pt x="191" y="562" on="0"/>
        <pt x="207" y="566" on="0"/>
        <pt x="220" y="567" on="0"/>
        <pt x="222" y="567" on="1"/>
        <pt x="219" y="361" on="1"/>
        <pt x="246" y="385" on="0"/>
        <pt x="294" y="415" on="0"/>
        <pt x="328" y="427" on="0"/>
        <pt x="344" y="419" on="0"/>
        <pt x="332" y="391" on="0"/>
        <pt x="287" y="345" on="0"/>
        <pt x="245" y="310" on="1"/>
        <pt x="242" y="309" on="0"/>
        <pt x="238" y="302" on="0"/>
        <pt x="236" y="271" on="0"/>
        <pt x="235" y="204" on="0"/>
        <pt x="235" y="141" on="1"/>
        <pt x="235" y="131" on="0"/>
        <pt x="217" y="118" on="0"/>
        <pt x="195" y="113" on="0"/>
        <pt x="177" y="119" on="0"/>
        <pt x="178" y="128" on="1"/>
      </contour>
      <contour>
        <pt x="94" y="346" on="1"/>
        <pt x="73" y="346" on="0"/>
        <pt x="52" y="305" on="0"/>
        <pt x="49" y="255" on="0"/>
        <pt x="60" y="212" on="0"/>
        <pt x="70" y="210" on="1"/>
        <pt x="69" y="202" on="0"/>
        <pt x="82" y="211" on="0"/>
        <pt x="103" y="231" on="0"/>
        <pt x="129" y="258" on="0"/>
        <pt x="150" y="283" on="0"/>
        <pt x="164" y="302" on="0"/>
        <pt x="163" y="303" on="1"/>
        <pt x="128" y="346" on="0"/>
      </contour>
    </TTGlyph>
    <TTGlyph name="aogonek" xMin="1" yMin="-209" xMax="456" yMax="552">
      <contour>
        <pt x="442" y="-121" on="1"/>
        <pt x="462" y="-135" on="0"/>
        <pt x="450" y="-171" on="0"/>
        <pt x="404" y="-201" on="0"/>
        <pt x="333" y="-216" on="0"/>
        <pt x="293" y="-209" on="1"/>
        <pt x="256" y="-198" on="0"/>
        <pt x="216" y="-132" on="0"/>
        <pt x="218" y="-50" on="0"/>
        <pt x="240" y="-9" on="1"/>
        <pt x="261" y="29" on="0"/>
        <pt x="305" y="55" on="1"/>
        <pt x="303" y="70" on="0"/>
        <pt x="301" y="88" on="1"/>
        <pt x="298" y="125" on="0"/>
        <pt x="290" y="200" on="0"/>
        <pt x="279" y="266" on="0"/>
        <pt x="268" y="287" on="1"/>
        <pt x="217" y="183" on="0"/>
        <pt x="139" y="64" on="0"/>
        <pt x="80" y="13" on="0"/>
        <pt x="40" y="15" on="0"/>
        <pt x="14" y="49" on="0"/>
        <pt x="3" y="102" on="0"/>
        <pt x="1" y="125" on="1"/>
        <pt x="1" y="147" on="0"/>
        <pt x="21" y="227" on="0"/>
        <pt x="55" y="322" on="0"/>
        <pt x="102" y="420" on="0"/>
        <pt x="156" y="500" on="0"/>
        <pt x="214" y="552" on="0"/>
        <pt x="243" y="552" on="1"/>
        <pt x="286" y="559" on="0"/>
        <pt x="327" y="508" on="0"/>
        <pt x="314" y="448" on="1"/>
        <pt x="314" y="382" on="0"/>
        <pt x="325" y="288" on="0"/>
        <pt x="338" y="202" on="0"/>
        <pt x="349" y="108" on="0"/>
        <pt x="349" y="42" on="1"/>
        <pt x="349" y="30" on="0"/>
        <pt x="346" y="21" on="1"/>
        <pt x="345" y="15" on="0"/>
        <pt x="336" y="13" on="1"/>
        <pt x="335" y="13" on="1"/>
        <pt x="326" y="2" on="0"/>
        <pt x="313" y="2" on="1"/>
        <pt x="292" y="-24" on="0"/>
        <pt x="270" y="-77" on="0"/>
        <pt x="269" y="-122" on="0"/>
        <pt x="291" y="-152" on="0"/>
        <pt x="314" y="-156" on="1"/>
        <pt x="330" y="-156" on="0"/>
        <pt x="362" y="-145" on="0"/>
        <pt x="393" y="-131" on="0"/>
        <pt x="425" y="-121" on="0"/>
      </contour>
      <contour>
        <pt x="256" y="473" on="1"/>
        <pt x="245" y="489" on="0"/>
        <pt x="207" y="463" on="0"/>
        <pt x="165" y="403" on="0"/>
        <pt x="121" y="319" on="0"/>
        <pt x="83" y="233" on="0"/>
        <pt x="55" y="156" on="0"/>
        <pt x="50" y="131" on="1"/>
        <pt x="50" y="95" on="0"/>
        <pt x="72" y="86" on="0"/>
        <pt x="104" y="118" on="0"/>
        <pt x="145" y="178" on="0"/>
        <pt x="184" y="246" on="0"/>
        <pt x="219" y="310" on="0"/>
        <pt x="229" y="330" on="1"/>
        <pt x="238" y="351" on="0"/>
        <pt x="248" y="387" on="0"/>
        <pt x="255" y="420" on="0"/>
        <pt x="256" y="454" on="0"/>
      </contour>
    </TTGlyph>
    <TTGlyph name="aring" xMin="1" yMin="13" xMax="349" yMax="695">
      <contour>
        <pt x="92" y="592" on="1"/>
        <pt x="84" y="611" on="0"/>
        <pt x="95" y="647" on="0"/>
        <pt x="130" y="677" on="0"/>
        <pt x="184" y="695" on="0"/>
        <pt x="218" y="695" on="1"/>
        <pt x="240" y="695" on="0"/>
        <pt x="271" y="688" on="0"/>
        <pt x="292" y="678" on="0"/>
        <pt x="308" y="662" on="0"/>
        <pt x="315" y="653" on="1"/>
        <pt x="326" y="622" on="0"/>
        <pt x="327" y="571" on="0"/>
        <pt x="311" y="553" on="1"/>
        <pt x="306" y="546" on="0"/>
        <pt x="298" y="542" on="1"/>
        <pt x="302" y="538" on="0"/>
        <pt x="306" y="534" on="1"/>
        <pt x="327" y="508" on="0"/>
        <pt x="314" y="448" on="1"/>
        <pt x="314" y="382" on="0"/>
        <pt x="325" y="288" on="0"/>
        <pt x="338" y="202" on="0"/>
        <pt x="349" y="108" on="0"/>
        <pt x="349" y="42" on="1"/>
        <pt x="349" y="30" on="0"/>
        <pt x="344" y="13" on="0"/>
        <pt x="322" y="13" on="1"/>
        <pt x="319" y="13" on="0"/>
        <pt x="310" y="23" on="0"/>
        <pt x="310" y="26" on="1"/>
        <pt x="305" y="52" on="0"/>
        <pt x="298" y="125" on="0"/>
        <pt x="290" y="200" on="0"/>
        <pt x="279" y="266" on="0"/>
        <pt x="268" y="287" on="1"/>
        <pt x="217" y="183" on="0"/>
        <pt x="139" y="64" on="0"/>
        <pt x="80" y="13" on="0"/>
        <pt x="40" y="15" on="0"/>
        <pt x="14" y="49" on="0"/>
        <pt x="3" y="102" on="0"/>
        <pt x="1" y="125" on="1"/>
        <pt x="1" y="147" on="0"/>
        <pt x="21" y="227" on="0"/>
        <pt x="55" y="322" on="0"/>
        <pt x="102" y="420" on="0"/>
        <pt x="129" y="460" on="1"/>
        <pt x="152" y="495" on="0"/>
        <pt x="177" y="519" on="1"/>
        <pt x="173" y="519" on="0"/>
        <pt x="167" y="520" on="1"/>
        <pt x="145" y="520" on="0"/>
        <pt x="115" y="536" on="0"/>
        <pt x="98" y="560" on="0"/>
        <pt x="92" y="584" on="0"/>
      </contour>
      <contour>
        <pt x="256" y="473" on="1"/>
        <pt x="245" y="489" on="0"/>
        <pt x="207" y="463" on="0"/>
        <pt x="165" y="403" on="0"/>
        <pt x="121" y="319" on="0"/>
        <pt x="83" y="233" on="0"/>
        <pt x="55" y="156" on="0"/>
        <pt x="50" y="131" on="1"/>
        <pt x="50" y="95" on="0"/>
        <pt x="72" y="86" on="0"/>
        <pt x="104" y="118" on="0"/>
        <pt x="145" y="178" on="0"/>
        <pt x="184" y="246" on="0"/>
        <pt x="219" y="310" on="0"/>
        <pt x="229" y="330" on="1"/>
        <pt x="238" y="351" on="0"/>
        <pt x="248" y="387" on="0"/>
        <pt x="255" y="420" on="0"/>
        <pt x="256" y="454" on="0"/>
      </contour>
      <contour>
        <pt x="143" y="594" on="1"/>
        <pt x="143" y="583" on="0"/>
        <pt x="164" y="570" on="0"/>
        <pt x="175" y="560" on="1"/>
        <pt x="202" y="557" on="0"/>
        <pt x="231" y="556" on="0"/>
        <pt x="249" y="562" on="0"/>
        <pt x="262" y="580" on="0"/>
        <pt x="273" y="597" on="1"/>
        <pt x="274" y="614" on="0"/>
        <pt x="256" y="637" on="0"/>
        <pt x="227" y="649" on="0"/>
        <pt x="192" y="649" on="0"/>
        <pt x="162" y="637" on="0"/>
        <pt x="142" y="613" on="0"/>
      </contour>
    </TTGlyph>
    <TTGlyph name="asciicircum" xMin="28" yMin="679" xMax="384" yMax="955">
      <contour>
        <pt x="28" y="694" on="1"/>
        <pt x="28" y="696" on="0"/>
        <pt x="29" y="701" on="0"/>
        <pt x="29" y="702" on="1"/>
        <pt x="156" y="939" on="1"/>
        <pt x="157" y="943" on="0"/>
        <pt x="177" y="955" on="0"/>
        <pt x="188" y="955" on="1"/>
        <pt x="189" y="955" on="0"/>
        <pt x="193" y="954" on="0"/>
        <pt x="193" y="954" on="1"/>
        <pt x="357" y="763" on="1"/>
        <pt x="377" y="759" on="0"/>
        <pt x="384" y="747" on="0"/>
        <pt x="384" y="737" on="1"/>
        <pt x="384" y="733" on="0"/>
        <pt x="381" y="720" on="0"/>
        <pt x="373" y="709" on="0"/>
        <pt x="360" y="701" on="0"/>
        <pt x="350" y="701" on="1"/>
        <pt x="346" y="701" on="1"/>
        <pt x="345" y="701" on="0"/>
        <pt x="345" y="702" on="1"/>
        <pt x="205" y="877" on="1"/>
        <pt x="200" y="886" on="0"/>
        <pt x="186" y="886" on="1"/>
        <pt x="181" y="886" on="1"/>
        <pt x="67" y="687" on="1"/>
        <pt x="66" y="685" on="0"/>
        <pt x="56" y="679" on="0"/>
        <pt x="54" y="679" on="1"/>
        <pt x="36" y="679" on="0"/>
        <pt x="28" y="687" on="0"/>
      </contour>
    </TTGlyph>
    <TTGlyph name="asciitilde" xMin="38" yMin="567" xMax="421" yMax="731">
      <contour>
        <pt x="377" y="711" on="1"/>
        <pt x="391" y="715" on="0"/>
        <pt x="416" y="716" on="0"/>
        <pt x="421" y="698" on="1"/>
        <pt x="427" y="683" on="0"/>
        <pt x="408" y="646" on="0"/>
        <pt x="373" y="609" on="0"/>
        <pt x="332" y="578" on="0"/>
        <pt x="314" y="569" on="1"/>
        <pt x="299" y="565" on="0"/>
        <pt x="270" y="569" on="0"/>
        <pt x="245" y="580" on="0"/>
        <pt x="228" y="596" on="0"/>
        <pt x="225" y="605" on="1"/>
        <pt x="212" y="612" on="0"/>
        <pt x="201" y="640" on="0"/>
        <pt x="188" y="667" on="0"/>
        <pt x="170" y="686" on="0"/>
        <pt x="151" y="685" on="1"/>
        <pt x="130" y="685" on="0"/>
        <pt x="112" y="665" on="0"/>
        <pt x="100" y="637" on="0"/>
        <pt x="87" y="608" on="0"/>
        <pt x="74" y="598" on="1"/>
        <pt x="64" y="595" on="0"/>
        <pt x="51" y="598" on="0"/>
        <pt x="44" y="606" on="0"/>
        <pt x="40" y="619" on="0"/>
        <pt x="38" y="626" on="1"/>
        <pt x="40" y="657" on="0"/>
        <pt x="67" y="699" on="0"/>
        <pt x="106" y="724" on="0"/>
        <pt x="153" y="733" on="0"/>
        <pt x="196" y="729" on="0"/>
        <pt x="232" y="713" on="0"/>
        <pt x="240" y="699" on="1"/>
        <pt x="254" y="653" on="0"/>
        <pt x="281" y="622" on="0"/>
        <pt x="307" y="626" on="0"/>
        <pt x="331" y="657" on="0"/>
        <pt x="352" y="690" on="0"/>
        <pt x="370" y="715" on="0"/>
      </contour>
    </TTGlyph>
    <TTGlyph name="asterisk" xMin="16" yMin="63" xMax="470" yMax="567">
      <contour>
        <pt x="162" y="265" on="1"/>
        <pt x="119" y="258" on="0"/>
        <pt x="56" y="253" on="0"/>
        <pt x="43" y="243" on="1"/>
        <pt x="36" y="248" on="0"/>
        <pt x="16" y="265" on="0"/>
        <pt x="16" y="275" on="1"/>
        <pt x="16" y="289" on="0"/>
        <pt x="50" y="300" on="0"/>
        <pt x="98" y="304" on="0"/>
        <pt x="147" y="308" on="0"/>
        <pt x="162" y="314" on="1"/>
        <pt x="40" y="389" on="1"/>
        <pt x="30" y="395" on="0"/>
        <pt x="22" y="411" on="0"/>
        <pt x="27" y="418" on="1"/>
        <pt x="31" y="424" on="0"/>
        <pt x="41" y="431" on="0"/>
        <pt x="49" y="428" on="1"/>
        <pt x="178" y="379" on="1"/>
        <pt x="178" y="550" on="1"/>
        <pt x="178" y="555" on="0"/>
        <pt x="191" y="562" on="0"/>
        <pt x="207" y="566" on="0"/>
        <pt x="220" y="567" on="0"/>
        <pt x="222" y="567" on="1"/>
        <pt x="225" y="389" on="1"/>
        <pt x="237" y="399" on="0"/>
        <pt x="273" y="436" on="0"/>
        <pt x="306" y="478" on="0"/>
        <pt x="331" y="515" on="0"/>
        <pt x="333" y="525" on="1"/>
        <pt x="337" y="526" on="0"/>
        <pt x="345" y="521" on="0"/>
        <pt x="355" y="512" on="0"/>
        <pt x="364" y="502" on="0"/>
        <pt x="369" y="499" on="1"/>
        <pt x="378" y="494" on="0"/>
        <pt x="369" y="474" on="0"/>
        <pt x="346" y="449" on="0"/>
        <pt x="314" y="421" on="0"/>
        <pt x="285" y="394" on="0"/>
        <pt x="265" y="370" on="0"/>
        <pt x="265" y="361" on="1"/>
        <pt x="292" y="370" on="0"/>
        <pt x="341" y="383" on="0"/>
        <pt x="389" y="392" on="0"/>
        <pt x="440" y="398" on="0"/>
        <pt x="470" y="398" on="1"/>
        <pt x="470" y="389" on="0"/>
        <pt x="464" y="362" on="0"/>
        <pt x="453" y="358" on="1"/>
        <pt x="443" y="356" on="0"/>
        <pt x="396" y="346" on="0"/>
        <pt x="343" y="333" on="0"/>
        <pt x="295" y="322" on="0"/>
        <pt x="286" y="319" on="1"/>
        <pt x="283" y="319" on="0"/>
        <pt x="276" y="318" on="0"/>
        <pt x="272" y="316" on="1"/>
        <pt x="420" y="227" on="1"/>
        <pt x="425" y="224" on="0"/>
        <pt x="424" y="210" on="0"/>
        <pt x="418" y="194" on="0"/>
        <pt x="412" y="182" on="0"/>
        <pt x="411" y="181" on="1"/>
        <pt x="245" y="275" on="1"/>
        <pt x="268" y="89" on="1"/>
        <pt x="268" y="77" on="0"/>
        <pt x="256" y="65" on="0"/>
        <pt x="241" y="62" on="0"/>
        <pt x="229" y="68" on="0"/>
        <pt x="229" y="76" on="1"/>
        <pt x="206" y="255" on="1"/>
        <pt x="201" y="226" on="0"/>
        <pt x="169" y="176" on="0"/>
        <pt x="132" y="136" on="0"/>
        <pt x="113" y="120" on="1"/>
        <pt x="82" y="93" on="1"/>
        <pt x="75" y="98" on="0"/>
        <pt x="66" y="120" on="0"/>
        <pt x="57" y="129" on="1"/>
        <pt x="53" y="132" on="0"/>
        <pt x="68" y="157" on="0"/>
        <pt x="94" y="187" on="0"/>
        <pt x="124" y="220" on="0"/>
        <pt x="150" y="247" on="0"/>
        <pt x="165" y="265" on="0"/>
      </contour>
    </TTGlyph>
    <TTGlyph name="at" xMin="26" yMin="0" xMax="946" yMax="922">
      <contour>
        <pt x="26" y="294" on="1"/>
        <pt x="26" y="359" on="0"/>
        <pt x="70" y="503" on="0"/>
        <pt x="149" y="643" on="0"/>
        <pt x="256" y="769" on="0"/>
        <pt x="382" y="865" on="0"/>
        <pt x="519" y="922" on="0"/>
        <pt x="589" y="922" on="1"/>
        <pt x="648" y="922" on="0"/>
        <pt x="747" y="867" on="0"/>
        <pt x="818" y="779" on="0"/>
        <pt x="858" y="670" on="0"/>
        <pt x="858" y="616" on="1"/>
        <pt x="858" y="567" on="0"/>
        <pt x="841" y="470" on="0"/>
        <pt x="797" y="391" on="0"/>
        <pt x="722" y="343" on="0"/>
        <pt x="662" y="343" on="1"/>
        <pt x="613" y="343" on="0"/>
        <pt x="558" y="364" on="0"/>
        <pt x="531" y="398" on="0"/>
        <pt x="524" y="438" on="0"/>
        <pt x="517" y="476" on="0"/>
        <pt x="505" y="506" on="0"/>
        <pt x="487" y="512" on="1"/>
        <pt x="470" y="483" on="0"/>
        <pt x="419" y="408" on="0"/>
        <pt x="358" y="340" on="0"/>
        <pt x="287" y="293" on="0"/>
        <pt x="248" y="293" on="1"/>
        <pt x="225" y="293" on="0"/>
        <pt x="203" y="321" on="0"/>
        <pt x="203" y="345" on="1"/>
        <pt x="203" y="373" on="0"/>
        <pt x="232" y="447" on="0"/>
        <pt x="280" y="526" on="0"/>
        <pt x="343" y="605" on="0"/>
        <pt x="411" y="666" on="0"/>
        <pt x="481" y="704" on="0"/>
        <pt x="512" y="704" on="1"/>
        <pt x="553" y="704" on="0"/>
        <pt x="578" y="672" on="0"/>
        <pt x="578" y="638" on="1"/>
        <pt x="578" y="625" on="1"/>
        <pt x="578" y="618" on="0"/>
        <pt x="573" y="606" on="0"/>
        <pt x="562" y="598" on="0"/>
        <pt x="550" y="602" on="1"/>
        <pt x="550" y="589" on="1"/>
        <pt x="550" y="580" on="0"/>
        <pt x="549" y="560" on="0"/>
        <pt x="549" y="550" on="1"/>
        <pt x="549" y="537" on="1"/>
        <pt x="549" y="508" on="0"/>
        <pt x="558" y="452" on="0"/>
        <pt x="583" y="409" on="0"/>
        <pt x="626" y="382" on="0"/>
        <pt x="661" y="382" on="1"/>
        <pt x="711" y="382" on="0"/>
        <pt x="769" y="422" on="0"/>
        <pt x="800" y="486" on="0"/>
        <pt x="808" y="564" on="0"/>
        <pt x="808" y="602" on="1"/>
        <pt x="808" y="646" on="0"/>
        <pt x="784" y="742" on="0"/>
        <pt x="733" y="820" on="0"/>
        <pt x="655" y="871" on="0"/>
        <pt x="602" y="871" on="1"/>
        <pt x="536" y="871" on="0"/>
        <pt x="409" y="824" on="0"/>
        <pt x="295" y="742" on="0"/>
        <pt x="198" y="634" on="0"/>
        <pt x="128" y="511" on="0"/>
        <pt x="88" y="381" on="0"/>
        <pt x="88" y="318" on="1"/>
        <pt x="88" y="242" on="0"/>
        <pt x="129" y="139" on="0"/>
        <pt x="207" y="77" on="0"/>
        <pt x="321" y="50" on="0"/>
        <pt x="394" y="50" on="1"/>
        <pt x="515" y="50" on="0"/>
        <pt x="730" y="129" on="0"/>
        <pt x="832" y="192" on="1"/>
        <pt x="845" y="200" on="0"/>
        <pt x="859" y="222" on="0"/>
        <pt x="872" y="244" on="0"/>
        <pt x="890" y="258" on="0"/>
        <pt x="907" y="258" on="1"/>
        <pt x="940" y="258" on="0"/>
        <pt x="952" y="235" on="0"/>
        <pt x="934" y="204" on="1"/>
        <pt x="872" y="160" on="0"/>
        <pt x="739" y="85" on="0"/>
        <pt x="598" y="31" on="0"/>
        <pt x="448" y="0" on="0"/>
        <pt x="372" y="0" on="1"/>
        <pt x="301" y="0" on="0"/>
        <pt x="175" y="32" on="0"/>
        <pt x="81" y="103" on="0"/>
        <pt x="26" y="214" on="0"/>
      </contour>
      <contour>
        <pt x="512" y="652" on="1"/>
        <pt x="484" y="652" on="0"/>
        <pt x="425" y="621" on="0"/>
        <pt x="367" y="569" on="0"/>
        <pt x="317" y="502" on="0"/>
        <pt x="278" y="433" on="0"/>
        <pt x="256" y="366" on="0"/>
        <pt x="256" y="340" on="1"/>
        <pt x="274" y="340" on="0"/>
        <pt x="311" y="361" on="0"/>
        <pt x="346" y="391" on="0"/>
        <pt x="375" y="423" on="0"/>
        <pt x="384" y="435" on="1"/>
        <pt x="391" y="445" on="0"/>
        <pt x="426" y="495" on="0"/>
        <pt x="462" y="553" on="0"/>
        <pt x="494" y="604" on="0"/>
        <pt x="499" y="615" on="1"/>
        <pt x="545" y="615" on="1"/>
        <pt x="545" y="630" on="0"/>
        <pt x="529" y="652" on="0"/>
      </contour>
    </TTGlyph>
    <TTGlyph name="atilde" xMin="1" yMin="13" xMax="409" yMax="773">
      <component glyphName="a" x="0" y="0" flags="0x1204"/>
      <component glyphName="tilde" x="-12" y="42" flags="0x1004"/>
    </TTGlyph>
    <TTGlyph name="b" xMin="38" yMin="3" xMax="418" yMax="856">
      <contour>
        <pt x="42" y="7" on="1"/>
        <pt x="37" y="86" on="0"/>
        <pt x="40" y="264" on="0"/>
        <pt x="46" y="470" on="0"/>
        <pt x="51" y="711" on="0"/>
        <pt x="49" y="854" on="1"/>
        <pt x="60" y="854" on="0"/>
        <pt x="84" y="857" on="0"/>
        <pt x="103" y="855" on="0"/>
        <pt x="116" y="845" on="0"/>
        <pt x="116" y="832" on="1"/>
        <pt x="116" y="795" on="0"/>
        <pt x="111" y="698" on="0"/>
        <pt x="103" y="583" on="0"/>
        <pt x="98" y="451" on="0"/>
        <pt x="98" y="378" on="1"/>
        <pt x="133" y="424" on="0"/>
        <pt x="193" y="482" on="0"/>
        <pt x="247" y="517" on="0"/>
        <pt x="299" y="526" on="0"/>
        <pt x="324" y="524" on="1"/>
        <pt x="353" y="524" on="0"/>
        <pt x="390" y="492" on="0"/>
        <pt x="410" y="444" on="0"/>
        <pt x="418" y="385" on="0"/>
        <pt x="418" y="357" on="1"/>
        <pt x="418" y="337" on="0"/>
        <pt x="413" y="292" on="0"/>
        <pt x="395" y="238" on="0"/>
        <pt x="358" y="181" on="0"/>
        <pt x="292" y="117" on="0"/>
        <pt x="191" y="49" on="0"/>
        <pt x="119" y="13" on="1"/>
        <pt x="95" y="6" on="0"/>
        <pt x="66" y="3" on="0"/>
        <pt x="49" y="4" on="0"/>
        <pt x="42" y="6" on="0"/>
      </contour>
      <contour>
        <pt x="85" y="67" on="1"/>
        <pt x="90" y="70" on="0"/>
        <pt x="134" y="91" on="0"/>
        <pt x="194" y="125" on="0"/>
        <pt x="264" y="173" on="0"/>
        <pt x="323" y="237" on="0"/>
        <pt x="365" y="317" on="0"/>
        <pt x="369" y="365" on="1"/>
        <pt x="369" y="379" on="0"/>
        <pt x="361" y="411" on="0"/>
        <pt x="344" y="439" on="0"/>
        <pt x="318" y="458" on="0"/>
        <pt x="300" y="458" on="1"/>
        <pt x="263" y="458" on="0"/>
        <pt x="198" y="418" on="0"/>
        <pt x="144" y="358" on="0"/>
        <pt x="102" y="289" on="0"/>
        <pt x="89" y="260" on="1"/>
      </contour>
    </TTGlyph>
    <TTGlyph name="backslash" xMin="13" yMin="-1" xMax="551" yMax="1037">
      <contour>
        <pt x="13" y="998" on="1"/>
        <pt x="17" y="1008" on="0"/>
        <pt x="22" y="1017" on="1"/>
        <pt x="26" y="1024" on="0"/>
        <pt x="34" y="1037" on="0"/>
        <pt x="39" y="1037" on="1"/>
        <pt x="45" y="1037" on="0"/>
        <pt x="73" y="1019" on="0"/>
        <pt x="76" y="1011" on="1"/>
        <pt x="550" y="39" on="1"/>
        <pt x="551" y="37" on="0"/>
        <pt x="551" y="32" on="1"/>
        <pt x="551" y="26" on="1"/>
        <pt x="551" y="9" on="0"/>
        <pt x="535" y="-1" on="0"/>
        <pt x="519" y="-1" on="1"/>
        <pt x="508" y="-1" on="0"/>
        <pt x="492" y="1" on="0"/>
        <pt x="487" y="13" on="1"/>
        <pt x="103" y="858" on="1"/>
      </contour>
    </TTGlyph>
    <TTGlyph name="bar" xMin="22" yMin="19" xMax="112" yMax="871">
      <contour>
        <pt x="47" y="51" on="1"/>
        <pt x="54" y="97" on="0"/>
        <pt x="59" y="235" on="0"/>
        <pt x="58" y="391" on="0"/>
        <pt x="52" y="557" on="0"/>
        <pt x="42" y="706" on="0"/>
        <pt x="29" y="824" on="0"/>
        <pt x="22" y="858" on="1"/>
        <pt x="31" y="864" on="0"/>
        <pt x="44" y="871" on="0"/>
        <pt x="53" y="871" on="1"/>
        <pt x="60" y="871" on="0"/>
        <pt x="70" y="866" on="0"/>
        <pt x="73" y="858" on="1"/>
        <pt x="93" y="662" on="0"/>
        <pt x="108" y="264" on="0"/>
        <pt x="112" y="67" on="1"/>
        <pt x="112" y="58" on="0"/>
        <pt x="112" y="27" on="0"/>
        <pt x="111" y="26" on="1"/>
        <pt x="97" y="19" on="0"/>
        <pt x="75" y="20" on="0"/>
        <pt x="57" y="31" on="0"/>
        <pt x="47" y="45" on="0"/>
      </contour>
    </TTGlyph>
    <TTGlyph name="braceleft" xMin="11" yMin="-86" xMax="354" yMax="865">
      <contour>
        <pt x="276" y="-49" on="1"/>
        <pt x="280" y="-53" on="0"/>
        <pt x="277" y="-63" on="0"/>
        <pt x="268" y="-74" on="0"/>
        <pt x="256" y="-83" on="0"/>
        <pt x="253" y="-86" on="1"/>
        <pt x="228" y="-83" on="0"/>
        <pt x="155" y="-72" on="0"/>
        <pt x="82" y="-28" on="0"/>
        <pt x="22" y="66" on="0"/>
        <pt x="11" y="151" on="1"/>
        <pt x="11" y="212" on="0"/>
        <pt x="14" y="290" on="0"/>
        <pt x="32" y="333" on="0"/>
        <pt x="69" y="345" on="0"/>
        <pt x="103" y="340" on="1"/>
        <pt x="117" y="338" on="0"/>
        <pt x="117" y="366" on="0"/>
        <pt x="98" y="403" on="0"/>
        <pt x="68" y="437" on="0"/>
        <pt x="52" y="443" on="1"/>
        <pt x="25" y="462" on="0"/>
        <pt x="20" y="492" on="0"/>
        <pt x="42" y="509" on="0"/>
        <pt x="82" y="514" on="0"/>
        <pt x="101" y="508" on="1"/>
        <pt x="118" y="514" on="0"/>
        <pt x="139" y="526" on="0"/>
        <pt x="144" y="544" on="0"/>
        <pt x="132" y="574" on="0"/>
        <pt x="115" y="600" on="1"/>
        <pt x="84" y="648" on="0"/>
        <pt x="72" y="735" on="0"/>
        <pt x="99" y="806" on="0"/>
        <pt x="157" y="856" on="0"/>
        <pt x="231" y="874" on="0"/>
        <pt x="315" y="855" on="0"/>
        <pt x="354" y="823" on="1"/>
        <pt x="354" y="809" on="0"/>
        <pt x="335" y="786" on="0"/>
        <pt x="322" y="786" on="1"/>
        <pt x="321" y="786" on="0"/>
        <pt x="318" y="787" on="0"/>
        <pt x="317" y="787" on="1"/>
        <pt x="307" y="814" on="0"/>
        <pt x="259" y="832" on="0"/>
        <pt x="205" y="820" on="0"/>
        <pt x="154" y="781" on="0"/>
        <pt x="126" y="723" on="0"/>
        <pt x="132" y="650" on="0"/>
        <pt x="162" y="609" on="1"/>
        <pt x="199" y="560" on="0"/>
        <pt x="208" y="508" on="0"/>
        <pt x="182" y="498" on="1"/>
        <pt x="169" y="492" on="1"/>
        <pt x="157" y="488" on="0"/>
        <pt x="128" y="476" on="0"/>
        <pt x="115" y="471" on="1"/>
        <pt x="103" y="465" on="1"/>
        <pt x="106" y="454" on="0"/>
        <pt x="128" y="423" on="0"/>
        <pt x="152" y="395" on="0"/>
        <pt x="173" y="372" on="0"/>
        <pt x="175" y="368" on="1"/>
        <pt x="186" y="346" on="0"/>
        <pt x="175" y="319" on="0"/>
        <pt x="143" y="299" on="0"/>
        <pt x="103" y="279" on="0"/>
        <pt x="70" y="248" on="0"/>
        <pt x="53" y="200" on="0"/>
        <pt x="61" y="160" on="1"/>
        <pt x="61" y="121" on="0"/>
        <pt x="89" y="62" on="0"/>
        <pt x="131" y="21" on="0"/>
        <pt x="183" y="-7" on="0"/>
        <pt x="230" y="-27" on="0"/>
        <pt x="268" y="-41" on="0"/>
      </contour>
    </TTGlyph>
    <TTGlyph name="braceright" xMin="-7" yMin="-113" xMax="317" yMax="845">
      <contour>
        <pt x="66" y="-76" on="1"/>
        <pt x="73" y="-68" on="0"/>
        <pt x="109" y="-53" on="0"/>
        <pt x="154" y="-33" on="0"/>
        <pt x="203" y="-5" on="0"/>
        <pt x="244" y="37" on="0"/>
        <pt x="270" y="95" on="0"/>
        <pt x="270" y="136" on="1"/>
        <pt x="277" y="175" on="0"/>
        <pt x="261" y="225" on="0"/>
        <pt x="229" y="256" on="0"/>
        <pt x="192" y="275" on="0"/>
        <pt x="163" y="295" on="0"/>
        <pt x="150" y="321" on="0"/>
        <pt x="161" y="344" on="1"/>
        <pt x="163" y="348" on="0"/>
        <pt x="184" y="372" on="0"/>
        <pt x="207" y="400" on="0"/>
        <pt x="227" y="431" on="0"/>
        <pt x="229" y="443" on="1"/>
        <pt x="218" y="448" on="1"/>
        <pt x="206" y="454" on="0"/>
        <pt x="178" y="465" on="0"/>
        <pt x="166" y="470" on="1"/>
        <pt x="156" y="475" on="1"/>
        <pt x="131" y="485" on="0"/>
        <pt x="139" y="538" on="0"/>
        <pt x="175" y="587" on="1"/>
        <pt x="202" y="627" on="0"/>
        <pt x="208" y="702" on="0"/>
        <pt x="182" y="760" on="0"/>
        <pt x="133" y="801" on="0"/>
        <pt x="82" y="814" on="0"/>
        <pt x="37" y="795" on="0"/>
        <pt x="28" y="767" on="1"/>
        <pt x="27" y="767" on="0"/>
        <pt x="23" y="766" on="0"/>
        <pt x="22" y="766" on="1"/>
        <pt x="11" y="766" on="0"/>
        <pt x="-7" y="788" on="0"/>
        <pt x="-7" y="804" on="1"/>
        <pt x="30" y="835" on="0"/>
        <pt x="109" y="854" on="0"/>
        <pt x="179" y="835" on="0"/>
        <pt x="234" y="786" on="0"/>
        <pt x="259" y="715" on="0"/>
        <pt x="248" y="625" on="0"/>
        <pt x="219" y="578" on="1"/>
        <pt x="202" y="552" on="0"/>
        <pt x="191" y="521" on="0"/>
        <pt x="196" y="503" on="0"/>
        <pt x="216" y="492" on="0"/>
        <pt x="232" y="486" on="1"/>
        <pt x="249" y="492" on="0"/>
        <pt x="287" y="487" on="0"/>
        <pt x="308" y="469" on="0"/>
        <pt x="302" y="438" on="0"/>
        <pt x="277" y="419" on="1"/>
        <pt x="262" y="415" on="0"/>
        <pt x="234" y="380" on="0"/>
        <pt x="217" y="342" on="0"/>
        <pt x="216" y="314" on="0"/>
        <pt x="229" y="316" on="1"/>
        <pt x="261" y="321" on="0"/>
        <pt x="296" y="310" on="0"/>
        <pt x="313" y="266" on="0"/>
        <pt x="317" y="188" on="0"/>
        <pt x="317" y="126" on="1"/>
        <pt x="310" y="68" on="0"/>
        <pt x="279" y="-10" on="0"/>
        <pt x="239" y="-62" on="0"/>
        <pt x="193" y="-91" on="0"/>
        <pt x="146" y="-106" on="0"/>
        <pt x="103" y="-111" on="0"/>
        <pt x="88" y="-113" on="1"/>
        <pt x="85" y="-110" on="0"/>
        <pt x="74" y="-100" on="0"/>
        <pt x="65" y="-90" on="0"/>
        <pt x="61" y="-80" on="0"/>
      </contour>
    </TTGlyph>
    <TTGlyph name="bracketleft" xMin="25" yMin="-103" xMax="453" yMax="1140">
      <contour>
        <pt x="26" y="1063" on="1"/>
        <pt x="26" y="1067" on="1"/>
        <pt x="26" y="1072" on="0"/>
        <pt x="25" y="1081" on="0"/>
        <pt x="25" y="1085" on="1"/>
        <pt x="25" y="1092" on="1"/>
        <pt x="25" y="1099" on="0"/>
        <pt x="26" y="1116" on="0"/>
        <pt x="32" y="1129" on="0"/>
        <pt x="49" y="1132" on="0"/>
        <pt x="65" y="1126" on="1"/>
        <pt x="76" y="1127" on="0"/>
        <pt x="121" y="1129" on="0"/>
        <pt x="179" y="1131" on="0"/>
        <pt x="243" y="1134" on="0"/>
        <pt x="301" y="1137" on="0"/>
        <pt x="347" y="1138" on="0"/>
        <pt x="358" y="1139" on="1"/>
        <pt x="361" y="1139" on="0"/>
        <pt x="377" y="1140" on="0"/>
        <pt x="386" y="1140" on="1"/>
        <pt x="413" y="1140" on="1"/>
        <pt x="413" y="1125" on="0"/>
        <pt x="372" y="1105" on="0"/>
        <pt x="308" y="1093" on="0"/>
        <pt x="232" y="1088" on="0"/>
        <pt x="163" y="1086" on="0"/>
        <pt x="111" y="1087" on="0"/>
        <pt x="103" y="1088" on="1"/>
        <pt x="89" y="1075" on="1"/>
        <pt x="89" y="1074" on="0"/>
        <pt x="88" y="1056" on="0"/>
        <pt x="87" y="1032" on="0"/>
        <pt x="86" y="1010" on="0"/>
        <pt x="86" y="1003" on="1"/>
        <pt x="86" y="913" on="0"/>
        <pt x="101" y="733" on="0"/>
        <pt x="120" y="553" on="0"/>
        <pt x="138" y="372" on="0"/>
        <pt x="141" y="282" on="1"/>
        <pt x="142" y="261" on="0"/>
        <pt x="144" y="203" on="0"/>
        <pt x="147" y="141" on="0"/>
        <pt x="149" y="80" on="0"/>
        <pt x="152" y="31" on="0"/>
        <pt x="153" y="15" on="1"/>
        <pt x="154" y="0" on="1"/>
        <pt x="166" y="-26" on="1"/>
        <pt x="167" y="-27" on="0"/>
        <pt x="188" y="-28" on="0"/>
        <pt x="193" y="-28" on="1"/>
        <pt x="223" y="-28" on="0"/>
        <pt x="299" y="-14" on="0"/>
        <pt x="372" y="3" on="0"/>
        <pt x="432" y="21" on="0"/>
        <pt x="448" y="26" on="1"/>
        <pt x="461" y="-1" on="0"/>
        <pt x="445" y="-33" on="0"/>
        <pt x="423" y="-26" on="1"/>
        <pt x="141" y="-103" on="1"/>
        <pt x="134" y="-104" on="0"/>
        <pt x="121" y="-96" on="0"/>
        <pt x="110" y="-83" on="0"/>
        <pt x="103" y="-68" on="0"/>
        <pt x="103" y="-64" on="1"/>
        <pt x="103" y="192" on="1"/>
      </contour>
    </TTGlyph>
    <TTGlyph name="bracketright" xMin="0" yMin="-103" xMax="499" yMax="1203">
      <contour>
        <pt x="218" y="-64" on="1"/>
        <pt x="409" y="-13" on="1"/>
        <pt x="422" y="0" on="1"/>
        <pt x="422" y="1" on="0"/>
        <pt x="423" y="12" on="0"/>
        <pt x="424" y="27" on="0"/>
        <pt x="424" y="34" on="1"/>
        <pt x="424" y="46" on="1"/>
        <pt x="424" y="183" on="0"/>
        <pt x="409" y="455" on="0"/>
        <pt x="393" y="728" on="0"/>
        <pt x="382" y="1002" on="0"/>
        <pt x="384" y="1139" on="1"/>
        <pt x="366" y="1148" on="0"/>
        <pt x="349" y="1153" on="0"/>
        <pt x="335" y="1153" on="1"/>
        <pt x="301" y="1153" on="0"/>
        <pt x="234" y="1144" on="0"/>
        <pt x="169" y="1134" on="0"/>
        <pt x="103" y="1125" on="0"/>
        <pt x="70" y="1125" on="1"/>
        <pt x="59" y="1125" on="1"/>
        <pt x="51" y="1125" on="0"/>
        <pt x="32" y="1126" on="0"/>
        <pt x="24" y="1126" on="1"/>
        <pt x="13" y="1126" on="1"/>
        <pt x="10" y="1129" on="0"/>
        <pt x="0" y="1148" on="0"/>
        <pt x="0" y="1152" on="1"/>
        <pt x="0" y="1163" on="0"/>
        <pt x="25" y="1176" on="0"/>
        <pt x="66" y="1184" on="0"/>
        <pt x="113" y="1188" on="0"/>
        <pt x="159" y="1190" on="0"/>
        <pt x="196" y="1190" on="0"/>
        <pt x="204" y="1191" on="1"/>
        <pt x="219" y="1192" on="0"/>
        <pt x="269" y="1196" on="0"/>
        <pt x="328" y="1201" on="0"/>
        <pt x="389" y="1203" on="0"/>
        <pt x="413" y="1203" on="1"/>
        <pt x="427" y="1203" on="1"/>
        <pt x="436" y="1203" on="0"/>
        <pt x="452" y="1199" on="0"/>
        <pt x="462" y="1189" on="0"/>
        <pt x="462" y="1179" on="1"/>
        <pt x="454" y="1137" on="0"/>
        <pt x="446" y="1003" on="0"/>
        <pt x="446" y="836" on="0"/>
        <pt x="453" y="649" on="0"/>
        <pt x="462" y="458" on="0"/>
        <pt x="473" y="274" on="0"/>
        <pt x="485" y="116" on="0"/>
        <pt x="496" y="-6" on="0"/>
        <pt x="499" y="-40" on="1"/>
        <pt x="499" y="-49" on="0"/>
        <pt x="466" y="-65" on="0"/>
        <pt x="415" y="-78" on="0"/>
        <pt x="353" y="-90" on="0"/>
        <pt x="297" y="-98" on="0"/>
        <pt x="255" y="-103" on="0"/>
        <pt x="248" y="-103" on="1"/>
        <pt x="237" y="-103" on="0"/>
        <pt x="211" y="-86" on="0"/>
        <pt x="204" y="-77" on="1"/>
      </contour>
    </TTGlyph>
    <TTGlyph name="breve" xMin="68" yMin="613" xMax="318" yMax="758">
      <contour>
        <pt x="121" y="716" on="1"/>
        <pt x="125" y="714" on="0"/>
        <pt x="139" y="698" on="0"/>
        <pt x="158" y="682" on="0"/>
        <pt x="184" y="672" on="0"/>
        <pt x="215" y="680" on="0"/>
        <pt x="252" y="711" on="0"/>
        <pt x="273" y="744" on="1"/>
        <pt x="293" y="759" on="0"/>
        <pt x="315" y="756" on="0"/>
        <pt x="320" y="735" on="0"/>
        <pt x="315" y="706" on="0"/>
        <pt x="309" y="694" on="1"/>
        <pt x="278" y="654" on="0"/>
        <pt x="227" y="617" on="0"/>
        <pt x="183" y="609" on="0"/>
        <pt x="148" y="624" on="0"/>
        <pt x="120" y="648" on="0"/>
        <pt x="109" y="661" on="1"/>
        <pt x="91" y="684" on="1"/>
        <pt x="69" y="703" on="0"/>
        <pt x="67" y="734" on="0"/>
        <pt x="86" y="748" on="0"/>
        <pt x="114" y="739" on="0"/>
      </contour>
    </TTGlyph>
    <TTGlyph name="brokenbar" xMin="22" yMin="19" xMax="112" yMax="871">
      <contour>
        <pt x="53" y="533" on="1"/>
        <pt x="50" y="579" on="0"/>
        <pt x="43" y="677" on="0"/>
        <pt x="35" y="766" on="0"/>
        <pt x="26" y="838" on="0"/>
        <pt x="22" y="858" on="1"/>
        <pt x="31" y="864" on="0"/>
        <pt x="44" y="871" on="0"/>
        <pt x="53" y="871" on="1"/>
        <pt x="60" y="871" on="0"/>
        <pt x="70" y="866" on="0"/>
        <pt x="73" y="858" on="1"/>
        <pt x="76" y="823" on="0"/>
        <pt x="83" y="741" on="0"/>
        <pt x="90" y="654" on="0"/>
        <pt x="95" y="571" on="0"/>
        <pt x="97" y="535" on="1"/>
      </contour>
      <contour>
        <pt x="101" y="470" on="1"/>
        <pt x="104" y="405" on="0"/>
        <pt x="108" y="310" on="0"/>
        <pt x="110" y="223" on="0"/>
        <pt x="111" y="130" on="0"/>
        <pt x="112" y="67" on="1"/>
        <pt x="112" y="58" on="0"/>
        <pt x="112" y="27" on="0"/>
        <pt x="111" y="26" on="1"/>
        <pt x="97" y="19" on="0"/>
        <pt x="75" y="20" on="0"/>
        <pt x="57" y="31" on="0"/>
        <pt x="47" y="45" on="0"/>
        <pt x="47" y="51" on="1"/>
        <pt x="53" y="94" on="0"/>
        <pt x="60" y="182" on="0"/>
        <pt x="63" y="282" on="0"/>
        <pt x="60" y="399" on="0"/>
        <pt x="57" y="470" on="1"/>
      </contour>
    </TTGlyph>
    <TTGlyph name="bullet" xMin="40" yMin="234" xMax="167" yMax="373">
      <contour>
        <pt x="40" y="318" on="1"/>
        <pt x="51" y="334" on="0"/>
        <pt x="70" y="355" on="0"/>
        <pt x="89" y="367" on="0"/>
        <pt x="110" y="373" on="0"/>
        <pt x="123" y="373" on="1"/>
        <pt x="167" y="373" on="0"/>
        <pt x="167" y="318" on="1"/>
        <pt x="167" y="308" on="0"/>
        <pt x="156" y="276" on="0"/>
        <pt x="137" y="248" on="0"/>
        <pt x="114" y="233" on="0"/>
        <pt x="103" y="239" on="1"/>
        <pt x="93" y="230" on="0"/>
        <pt x="67" y="238" on="0"/>
        <pt x="47" y="262" on="0"/>
        <pt x="36" y="298" on="0"/>
      </contour>
    </TTGlyph>
    <TTGlyph name="c" xMin="26" yMin="0" xMax="365" yMax="604">
      <contour>
        <pt x="26" y="230" on="1"/>
        <pt x="29" y="266" on="0"/>
        <pt x="35" y="351" on="0"/>
        <pt x="48" y="435" on="0"/>
        <pt x="69" y="511" on="0"/>
        <pt x="104" y="570" on="0"/>
        <pt x="156" y="605" on="0"/>
        <pt x="193" y="604" on="1"/>
        <pt x="218" y="604" on="0"/>
        <pt x="245" y="562" on="0"/>
        <pt x="256" y="502" on="0"/>
        <pt x="257" y="439" on="0"/>
        <pt x="257" y="419" on="1"/>
        <pt x="237" y="419" on="0"/>
        <pt x="211" y="454" on="0"/>
        <pt x="197" y="500" on="0"/>
        <pt x="194" y="522" on="1"/>
        <pt x="191" y="551" on="1"/>
        <pt x="190" y="551" on="0"/>
        <pt x="185" y="552" on="0"/>
        <pt x="184" y="552" on="1"/>
        <pt x="167" y="552" on="0"/>
        <pt x="138" y="514" on="0"/>
        <pt x="113" y="455" on="0"/>
        <pt x="95" y="382" on="0"/>
        <pt x="83" y="312" on="0"/>
        <pt x="76" y="253" on="0"/>
        <pt x="76" y="237" on="1"/>
        <pt x="74" y="211" on="0"/>
        <pt x="78" y="149" on="0"/>
        <pt x="98" y="95" on="0"/>
        <pt x="134" y="56" on="0"/>
        <pt x="164" y="49" on="1"/>
        <pt x="201" y="49" on="0"/>
        <pt x="247" y="69" on="0"/>
        <pt x="276" y="103" on="0"/>
        <pt x="292" y="145" on="0"/>
        <pt x="307" y="190" on="0"/>
        <pt x="323" y="234" on="0"/>
        <pt x="338" y="253" on="1"/>
        <pt x="350" y="256" on="0"/>
        <pt x="361" y="249" on="0"/>
        <pt x="365" y="237" on="0"/>
        <pt x="365" y="229" on="1"/>
        <pt x="365" y="218" on="1"/>
        <pt x="365" y="176" on="0"/>
        <pt x="337" y="98" on="0"/>
        <pt x="283" y="37" on="0"/>
        <pt x="208" y="0" on="0"/>
        <pt x="160" y="0" on="1"/>
        <pt x="120" y="0" on="0"/>
        <pt x="67" y="51" on="0"/>
        <pt x="38" y="123" on="0"/>
        <pt x="26" y="202" on="0"/>
      </contour>
    </TTGlyph>
    <TTGlyph name="cacute" xMin="26" yMin="0" xMax="365" yMax="824">
      <component glyphName="c" x="0" y="0" flags="0x1204"/>
      <component glyphName="acute" x="114" y="82" flags="0x1004"/>
    </TTGlyph>
    <TTGlyph name="caron" xMin="55" yMin="630" xMax="396" yMax="820">
      <contour>
        <pt x="55" y="810" on="1"/>
        <pt x="55" y="814" on="0"/>
        <pt x="63" y="820" on="0"/>
        <pt x="80" y="820" on="1"/>
        <pt x="82" y="820" on="0"/>
        <pt x="91" y="816" on="0"/>
        <pt x="93" y="814" on="1"/>
        <pt x="202" y="678" on="1"/>
        <pt x="206" y="678" on="1"/>
        <pt x="220" y="678" on="0"/>
        <pt x="225" y="683" on="1"/>
        <pt x="358" y="805" on="1"/>
        <pt x="364" y="805" on="1"/>
        <pt x="382" y="805" on="0"/>
        <pt x="396" y="787" on="0"/>
        <pt x="396" y="780" on="1"/>
        <pt x="396" y="773" on="0"/>
        <pt x="389" y="766" on="0"/>
        <pt x="370" y="762" on="1"/>
        <pt x="213" y="631" on="1"/>
        <pt x="212" y="631" on="0"/>
        <pt x="209" y="630" on="0"/>
        <pt x="208" y="630" on="1"/>
        <pt x="198" y="630" on="0"/>
        <pt x="179" y="638" on="0"/>
        <pt x="177" y="641" on="1"/>
        <pt x="56" y="805" on="1"/>
        <pt x="55" y="806" on="0"/>
        <pt x="55" y="807" on="1"/>
      </contour>
    </TTGlyph>
    <TTGlyph name="ccaron" xMin="26" yMin="0" xMax="373" yMax="820">
      <component glyphName="c" x="0" y="0" flags="0x1204"/>
      <component glyphName="caron" x="-23" y="0" flags="0x1004"/>
    </TTGlyph>
    <TTGlyph name="ccedilla" xMin="26" yMin="-311" xMax="365" yMax="604">
      <contour>
        <pt x="110" y="-271" on="1"/>
        <pt x="110" y="-267" on="0"/>
        <pt x="151" y="-259" on="0"/>
        <pt x="204" y="-248" on="0"/>
        <pt x="254" y="-230" on="0"/>
        <pt x="270" y="-206" on="0"/>
        <pt x="238" y="-174" on="0"/>
        <pt x="184" y="-151" on="1"/>
        <pt x="139" y="-151" on="0"/>
        <pt x="107" y="-96" on="0"/>
        <pt x="107" y="-49" on="1"/>
        <pt x="111" y="-12" on="0"/>
        <pt x="116" y="9" on="1"/>
        <pt x="103" y="15" on="0"/>
        <pt x="94" y="25" on="1"/>
        <pt x="67" y="51" on="0"/>
        <pt x="38" y="123" on="0"/>
        <pt x="26" y="202" on="0"/>
        <pt x="26" y="230" on="1"/>
        <pt x="29" y="266" on="0"/>
        <pt x="35" y="351" on="0"/>
        <pt x="48" y="435" on="0"/>
        <pt x="69" y="511" on="0"/>
        <pt x="104" y="570" on="0"/>
        <pt x="156" y="605" on="0"/>
        <pt x="193" y="604" on="1"/>
        <pt x="218" y="604" on="0"/>
        <pt x="245" y="562" on="0"/>
        <pt x="256" y="502" on="0"/>
        <pt x="257" y="439" on="0"/>
        <pt x="257" y="419" on="1"/>
        <pt x="237" y="419" on="0"/>
        <pt x="211" y="454" on="0"/>
        <pt x="197" y="500" on="0"/>
        <pt x="194" y="522" on="1"/>
        <pt x="191" y="551" on="1"/>
        <pt x="190" y="551" on="0"/>
        <pt x="185" y="552" on="0"/>
        <pt x="184" y="552" on="1"/>
        <pt x="167" y="552" on="0"/>
        <pt x="138" y="514" on="0"/>
        <pt x="113" y="455" on="0"/>
        <pt x="95" y="382" on="0"/>
        <pt x="83" y="312" on="0"/>
        <pt x="76" y="253" on="0"/>
        <pt x="76" y="237" on="1"/>
        <pt x="74" y="211" on="0"/>
        <pt x="78" y="149" on="0"/>
        <pt x="98" y="95" on="0"/>
        <pt x="134" y="56" on="0"/>
        <pt x="164" y="49" on="1"/>
        <pt x="201" y="49" on="0"/>
        <pt x="247" y="69" on="0"/>
        <pt x="276" y="103" on="0"/>
        <pt x="292" y="145" on="0"/>
        <pt x="307" y="190" on="0"/>
        <pt x="323" y="234" on="0"/>
        <pt x="338" y="253" on="1"/>
        <pt x="350" y="256" on="0"/>
        <pt x="361" y="249" on="0"/>
        <pt x="365" y="237" on="0"/>
        <pt x="365" y="229" on="1"/>
        <pt x="365" y="218" on="1"/>
        <pt x="365" y="176" on="0"/>
        <pt x="337" y="98" on="0"/>
        <pt x="283" y="37" on="0"/>
        <pt x="208" y="0" on="0"/>
        <pt x="161" y="0" on="1"/>
        <pt x="162" y="-9" on="0"/>
        <pt x="162" y="-19" on="1"/>
        <pt x="163" y="-40" on="0"/>
        <pt x="157" y="-58" on="1"/>
        <pt x="203" y="-90" on="0"/>
        <pt x="272" y="-123" on="0"/>
        <pt x="319" y="-156" on="0"/>
        <pt x="342" y="-201" on="0"/>
        <pt x="342" y="-244" on="1"/>
        <pt x="335" y="-265" on="0"/>
        <pt x="287" y="-291" on="0"/>
        <pt x="225" y="-306" on="0"/>
        <pt x="160" y="-311" on="0"/>
        <pt x="137" y="-311" on="1"/>
        <pt x="116" y="-311" on="0"/>
        <pt x="110" y="-286" on="0"/>
      </contour>
    </TTGlyph>
    <TTGlyph name="ccircumflex" xMin="24" yMin="0" xMax="380" yMax="955">
      <component glyphName="c" x="0" y="0" flags="0x1204"/>
      <component glyphName="circumflex" x="-4" y="0" flags="0x1004"/>
    </TTGlyph>
    <TTGlyph name="cdotaccent" xMin="24" yMin="0" xMax="363" yMax="703">
      <component glyphName="c" x="-2" y="0" flags="0x1204"/>
      <component glyphName="dotaccent" x="110" y="115" scalex="0.760864257812" scaley="0.940490722656" flags="0x1004"/>
    </TTGlyph>
    <TTGlyph name="cedilla" xMin="63" yMin="-307" xMax="298" yMax="47">
      <contour>
        <pt x="66" y="-267" on="1"/>
        <pt x="66" y="-264" on="0"/>
        <pt x="107" y="-256" on="0"/>
        <pt x="160" y="-244" on="0"/>
        <pt x="210" y="-227" on="0"/>
        <pt x="226" y="-203" on="0"/>
        <pt x="194" y="-170" on="0"/>
        <pt x="139" y="-148" on="1"/>
        <pt x="95" y="-148" on="0"/>
        <pt x="63" y="-93" on="0"/>
        <pt x="63" y="-45" on="1"/>
        <pt x="67" y="-1" on="0"/>
        <pt x="81" y="42" on="0"/>
        <pt x="96" y="52" on="0"/>
        <pt x="110" y="36" on="0"/>
        <pt x="118" y="4" on="0"/>
        <pt x="119" y="-36" on="0"/>
        <pt x="113" y="-54" on="1"/>
        <pt x="159" y="-86" on="0"/>
        <pt x="228" y="-120" on="0"/>
        <pt x="274" y="-152" on="0"/>
        <pt x="298" y="-197" on="0"/>
        <pt x="298" y="-240" on="1"/>
        <pt x="291" y="-261" on="0"/>
        <pt x="243" y="-287" on="0"/>
        <pt x="181" y="-302" on="0"/>
        <pt x="116" y="-308" on="0"/>
        <pt x="93" y="-307" on="1"/>
        <pt x="72" y="-307" on="0"/>
        <pt x="66" y="-283" on="0"/>
      </contour>
    </TTGlyph>
    <TTGlyph name="cent" xMin="26" yMin="-70" xMax="365" yMax="716">
      <contour>
        <pt x="182" y="-59" on="1"/>
        <pt x="184" y="-45" on="0"/>
        <pt x="186" y="-14" on="0"/>
        <pt x="188" y="2" on="1"/>
        <pt x="181" y="0" on="0"/>
        <pt x="174" y="0" on="1"/>
        <pt x="160" y="0" on="1"/>
        <pt x="120" y="0" on="0"/>
        <pt x="67" y="51" on="0"/>
        <pt x="38" y="123" on="0"/>
        <pt x="26" y="202" on="0"/>
        <pt x="26" y="230" on="1"/>
        <pt x="30" y="282" on="0"/>
        <pt x="40" y="403" on="0"/>
        <pt x="68" y="512" on="0"/>
        <pt x="121" y="592" on="0"/>
        <pt x="166" y="601" on="1"/>
        <pt x="159" y="664" on="0"/>
        <pt x="150" y="703" on="1"/>
        <pt x="159" y="709" on="0"/>
        <pt x="173" y="716" on="0"/>
        <pt x="182" y="716" on="1"/>
        <pt x="189" y="716" on="0"/>
        <pt x="199" y="711" on="0"/>
        <pt x="202" y="703" on="1"/>
        <pt x="204" y="674" on="0"/>
        <pt x="210" y="620" on="0"/>
        <pt x="211" y="595" on="1"/>
        <pt x="231" y="585" on="0"/>
        <pt x="278" y="553" on="0"/>
        <pt x="311" y="513" on="0"/>
        <pt x="320" y="472" on="0"/>
        <pt x="303" y="454" on="1"/>
        <pt x="291" y="454" on="0"/>
        <pt x="266" y="472" on="0"/>
        <pt x="242" y="499" on="0"/>
        <pt x="221" y="526" on="0"/>
        <pt x="213" y="535" on="1"/>
        <pt x="216" y="482" on="0"/>
        <pt x="220" y="376" on="0"/>
        <pt x="224" y="262" on="0"/>
        <pt x="226" y="139" on="0"/>
        <pt x="228" y="70" on="1"/>
        <pt x="228" y="60" on="1"/>
        <pt x="256" y="73" on="0"/>
        <pt x="283" y="119" on="0"/>
        <pt x="301" y="174" on="0"/>
        <pt x="319" y="229" on="0"/>
        <pt x="338" y="253" on="1"/>
        <pt x="350" y="256" on="0"/>
        <pt x="361" y="249" on="0"/>
        <pt x="365" y="237" on="0"/>
        <pt x="365" y="229" on="1"/>
        <pt x="365" y="218" on="1"/>
        <pt x="365" y="185" on="0"/>
        <pt x="347" y="121" on="0"/>
        <pt x="313" y="67" on="0"/>
        <pt x="264" y="25" on="0"/>
        <pt x="233" y="13" on="1"/>
        <pt x="236" y="-11" on="0"/>
        <pt x="240" y="-52" on="0"/>
        <pt x="240" y="-53" on="1"/>
        <pt x="214" y="-68" on="0"/>
        <pt x="182" y="-71" on="0"/>
      </contour>
      <contour>
        <pt x="164" y="49" on="1"/>
        <pt x="171" y="49" on="0"/>
        <pt x="184" y="50" on="0"/>
        <pt x="191" y="51" on="1"/>
        <pt x="193" y="106" on="0"/>
        <pt x="192" y="235" on="0"/>
        <pt x="186" y="365" on="0"/>
        <pt x="177" y="493" on="0"/>
        <pt x="172" y="549" on="1"/>
        <pt x="157" y="543" on="0"/>
        <pt x="130" y="499" on="0"/>
        <pt x="109" y="440" on="0"/>
        <pt x="93" y="372" on="0"/>
        <pt x="82" y="306" on="0"/>
        <pt x="76" y="252" on="0"/>
        <pt x="76" y="237" on="1"/>
        <pt x="74" y="211" on="0"/>
        <pt x="78" y="149" on="0"/>
        <pt x="98" y="95" on="0"/>
        <pt x="134" y="56" on="0"/>
      </contour>
    </TTGlyph>
    <TTGlyph name="circumflex" xMin="28" yMin="679" xMax="384" yMax="955">
      <contour>
        <pt x="28" y="694" on="1"/>
        <pt x="28" y="696" on="0"/>
        <pt x="29" y="701" on="0"/>
        <pt x="29" y="702" on="1"/>
        <pt x="156" y="939" on="1"/>
        <pt x="157" y="943" on="0"/>
        <pt x="177" y="955" on="0"/>
        <pt x="188" y="955" on="1"/>
        <pt x="189" y="955" on="0"/>
        <pt x="193" y="954" on="0"/>
        <pt x="193" y="954" on="1"/>
        <pt x="357" y="763" on="1"/>
        <pt x="377" y="759" on="0"/>
        <pt x="384" y="747" on="0"/>
        <pt x="384" y="737" on="1"/>
        <pt x="384" y="733" on="0"/>
        <pt x="381" y="720" on="0"/>
        <pt x="373" y="709" on="0"/>
        <pt x="360" y="701" on="0"/>
        <pt x="350" y="701" on="1"/>
        <pt x="346" y="701" on="1"/>
        <pt x="345" y="701" on="0"/>
        <pt x="345" y="702" on="1"/>
        <pt x="205" y="877" on="1"/>
        <pt x="200" y="886" on="0"/>
        <pt x="186" y="886" on="1"/>
        <pt x="181" y="886" on="1"/>
        <pt x="67" y="687" on="1"/>
        <pt x="66" y="685" on="0"/>
        <pt x="56" y="679" on="0"/>
        <pt x="54" y="679" on="1"/>
        <pt x="36" y="679" on="0"/>
        <pt x="28" y="687" on="0"/>
      </contour>
    </TTGlyph>
    <TTGlyph name="colon" xMin="24" yMin="114" xMax="91" yMax="435">
      <contour>
        <pt x="38" y="148" on="1"/>
        <pt x="38" y="163" on="0"/>
        <pt x="48" y="180" on="0"/>
        <pt x="65" y="180" on="1"/>
        <pt x="91" y="180" on="0"/>
        <pt x="91" y="153" on="1"/>
        <pt x="91" y="140" on="0"/>
        <pt x="73" y="114" on="0"/>
        <pt x="58" y="114" on="1"/>
        <pt x="43" y="114" on="0"/>
        <pt x="38" y="136" on="0"/>
      </contour>
      <contour>
        <pt x="24" y="404" on="1"/>
        <pt x="24" y="417" on="0"/>
        <pt x="31" y="435" on="0"/>
        <pt x="51" y="435" on="1"/>
        <pt x="72" y="435" on="0"/>
        <pt x="78" y="418" on="0"/>
        <pt x="78" y="405" on="1"/>
        <pt x="78" y="394" on="0"/>
        <pt x="73" y="371" on="0"/>
        <pt x="58" y="371" on="1"/>
        <pt x="24" y="371" on="0"/>
      </contour>
    </TTGlyph>
    <TTGlyph name="comma" xMin="29" yMin="-114" xMax="105" yMax="121">
      <contour>
        <pt x="35" y="-114" on="1"/>
        <pt x="36" y="-103" on="0"/>
        <pt x="38" y="-63" on="0"/>
        <pt x="39" y="-20" on="0"/>
        <pt x="40" y="20" on="0"/>
        <pt x="41" y="31" on="1"/>
        <pt x="40" y="33" on="0"/>
        <pt x="36" y="44" on="0"/>
        <pt x="31" y="57" on="0"/>
        <pt x="29" y="67" on="0"/>
        <pt x="29" y="70" on="1"/>
        <pt x="29" y="99" on="0"/>
        <pt x="58" y="121" on="0"/>
        <pt x="85" y="121" on="1"/>
        <pt x="94" y="107" on="0"/>
        <pt x="105" y="78" on="0"/>
        <pt x="105" y="31" on="0"/>
        <pt x="90" y="-42" on="0"/>
        <pt x="74" y="-102" on="1"/>
      </contour>
    </TTGlyph>
    <TTGlyph name="commaaccent" xMin="174" yMin="-332" xMax="250" yMax="-97">
      <contour>
        <pt x="180" y="-332" on="1"/>
        <pt x="181" y="-320" on="0"/>
        <pt x="183" y="-281" on="0"/>
        <pt x="184" y="-238" on="0"/>
        <pt x="184" y="-198" on="0"/>
        <pt x="186" y="-186" on="1"/>
        <pt x="184" y="-185" on="0"/>
        <pt x="181" y="-174" on="0"/>
        <pt x="176" y="-161" on="0"/>
        <pt x="174" y="-150" on="0"/>
        <pt x="174" y="-148" on="1"/>
        <pt x="174" y="-119" on="0"/>
        <pt x="202" y="-97" on="0"/>
        <pt x="230" y="-97" on="1"/>
        <pt x="239" y="-111" on="0"/>
        <pt x="250" y="-140" on="0"/>
        <pt x="250" y="-186" on="0"/>
        <pt x="235" y="-260" on="0"/>
        <pt x="219" y="-320" on="1"/>
      </contour>
    </TTGlyph>
    <TTGlyph name="copyright" xMin="15" yMin="-1" xMax="480" yMax="690">
      <contour>
        <pt x="15" y="214" on="1"/>
        <pt x="23" y="330" on="0"/>
        <pt x="76" y="505" on="0"/>
        <pt x="150" y="624" on="0"/>
        <pt x="239" y="686" on="0"/>
        <pt x="328" y="693" on="0"/>
        <pt x="409" y="644" on="0"/>
        <pt x="439" y="594" on="1"/>
        <pt x="472" y="532" on="0"/>
        <pt x="488" y="396" on="0"/>
        <pt x="462" y="265" on="0"/>
        <pt x="400" y="146" on="0"/>
        <pt x="312" y="55" on="0"/>
        <pt x="204" y="0" on="0"/>
        <pt x="145" y="-1" on="1"/>
        <pt x="108" y="-1" on="0"/>
        <pt x="58" y="45" on="0"/>
        <pt x="28" y="112" on="0"/>
        <pt x="15" y="185" on="0"/>
      </contour>
      <contour>
        <pt x="138" y="317" on="1"/>
        <pt x="141" y="349" on="0"/>
        <pt x="150" y="426" on="0"/>
        <pt x="177" y="491" on="0"/>
        <pt x="229" y="535" on="0"/>
        <pt x="274" y="535" on="1"/>
        <pt x="295" y="535" on="0"/>
        <pt x="317" y="509" on="0"/>
        <pt x="327" y="475" on="0"/>
        <pt x="328" y="439" on="0"/>
        <pt x="328" y="427" on="1"/>
        <pt x="308" y="423" on="0"/>
        <pt x="282" y="442" on="0"/>
        <pt x="266" y="467" on="0"/>
        <pt x="264" y="478" on="1"/>
        <pt x="262" y="489" on="0"/>
        <pt x="263" y="490" on="1"/>
        <pt x="242" y="489" on="0"/>
        <pt x="229" y="469" on="1"/>
        <pt x="215" y="448" on="0"/>
        <pt x="200" y="392" on="0"/>
        <pt x="194" y="337" on="0"/>
        <pt x="194" y="322" on="1"/>
        <pt x="193" y="307" on="0"/>
        <pt x="192" y="271" on="0"/>
        <pt x="202" y="238" on="0"/>
        <pt x="227" y="215" on="0"/>
        <pt x="251" y="211" on="1"/>
        <pt x="288" y="222" on="0"/>
        <pt x="325" y="254" on="0"/>
        <pt x="348" y="287" on="0"/>
        <pt x="371" y="319" on="0"/>
        <pt x="393" y="330" on="1"/>
        <pt x="405" y="332" on="0"/>
        <pt x="414" y="325" on="0"/>
        <pt x="415" y="320" on="1"/>
        <pt x="423" y="418" on="0"/>
        <pt x="402" y="547" on="0"/>
        <pt x="357" y="619" on="0"/>
        <pt x="293" y="638" on="0"/>
        <pt x="224" y="609" on="0"/>
        <pt x="156" y="539" on="0"/>
        <pt x="102" y="435" on="0"/>
        <pt x="68" y="299" on="0"/>
        <pt x="68" y="220" on="1"/>
        <pt x="68" y="195" on="0"/>
        <pt x="73" y="141" on="0"/>
        <pt x="91" y="97" on="0"/>
        <pt x="128" y="67" on="0"/>
        <pt x="159" y="67" on="1"/>
        <pt x="197" y="66" on="0"/>
        <pt x="263" y="91" on="0"/>
        <pt x="319" y="136" on="0"/>
        <pt x="365" y="198" on="0"/>
        <pt x="382" y="233" on="1"/>
        <pt x="372" y="222" on="0"/>
        <pt x="343" y="197" on="0"/>
        <pt x="308" y="176" on="0"/>
        <pt x="267" y="163" on="0"/>
        <pt x="245" y="163" on="1"/>
        <pt x="211" y="163" on="0"/>
        <pt x="169" y="199" on="0"/>
        <pt x="146" y="248" on="0"/>
        <pt x="138" y="301" on="0"/>
      </contour>
    </TTGlyph>
    <TTGlyph name="currency" xMin="39" yMin="86" xMax="434" yMax="672">
      <contour>
        <pt x="84" y="89" on="1"/>
        <pt x="66" y="81" on="0"/>
        <pt x="44" y="91" on="0"/>
        <pt x="36" y="114" on="0"/>
        <pt x="42" y="143" on="0"/>
        <pt x="54" y="155" on="1"/>
        <pt x="145" y="289" on="1"/>
        <pt x="131" y="342" on="0"/>
        <pt x="126" y="434" on="0"/>
        <pt x="146" y="482" on="1"/>
        <pt x="130" y="514" on="0"/>
        <pt x="112" y="574" on="0"/>
        <pt x="114" y="598" on="1"/>
        <pt x="124" y="623" on="0"/>
        <pt x="148" y="613" on="1"/>
        <pt x="173" y="608" on="0"/>
        <pt x="185" y="572" on="0"/>
        <pt x="189" y="546" on="1"/>
        <pt x="217" y="573" on="0"/>
        <pt x="262" y="584" on="1"/>
        <pt x="304" y="576" on="0"/>
        <pt x="328" y="554" on="1"/>
        <pt x="343" y="588" on="0"/>
        <pt x="368" y="649" on="0"/>
        <pt x="376" y="670" on="1"/>
        <pt x="381" y="673" on="0"/>
        <pt x="400" y="670" on="0"/>
        <pt x="420" y="662" on="0"/>
        <pt x="435" y="650" on="0"/>
        <pt x="434" y="643" on="1"/>
        <pt x="424" y="600" on="0"/>
        <pt x="383" y="528" on="0"/>
        <pt x="360" y="493" on="1"/>
        <pt x="367" y="465" on="0"/>
        <pt x="370" y="402" on="0"/>
        <pt x="373" y="371" on="1"/>
        <pt x="373" y="341" on="0"/>
        <pt x="369" y="267" on="0"/>
        <pt x="350" y="224" on="1"/>
        <pt x="382" y="149" on="1"/>
        <pt x="382" y="148" on="0"/>
        <pt x="382" y="135" on="0"/>
        <pt x="380" y="131" on="1"/>
        <pt x="378" y="126" on="0"/>
        <pt x="372" y="115" on="0"/>
        <pt x="362" y="107" on="0"/>
        <pt x="349" y="105" on="0"/>
        <pt x="341" y="111" on="1"/>
        <pt x="335" y="124" on="0"/>
        <pt x="319" y="163" on="0"/>
        <pt x="309" y="186" on="1"/>
        <pt x="296" y="175" on="0"/>
        <pt x="265" y="163" on="0"/>
        <pt x="244" y="163" on="1"/>
        <pt x="202" y="145" on="0"/>
        <pt x="168" y="220" on="1"/>
        <pt x="153" y="196" on="0"/>
        <pt x="112" y="132" on="0"/>
      </contour>
      <contour>
        <pt x="180" y="404" on="1"/>
        <pt x="181" y="336" on="0"/>
        <pt x="196" y="258" on="0"/>
        <pt x="220" y="225" on="0"/>
        <pt x="249" y="228" on="0"/>
        <pt x="278" y="251" on="0"/>
        <pt x="304" y="289" on="0"/>
        <pt x="322" y="327" on="0"/>
        <pt x="328" y="355" on="0"/>
        <pt x="324" y="357" on="1"/>
        <pt x="324" y="386" on="0"/>
        <pt x="323" y="436" on="0"/>
        <pt x="313" y="476" on="0"/>
        <pt x="291" y="507" on="0"/>
        <pt x="269" y="517" on="1"/>
        <pt x="251" y="517" on="0"/>
        <pt x="218" y="496" on="0"/>
        <pt x="193" y="463" on="0"/>
        <pt x="179" y="427" on="0"/>
        <pt x="179" y="410" on="1"/>
        <pt x="179" y="407" on="1"/>
        <pt x="179" y="405" on="0"/>
      </contour>
    </TTGlyph>
</ttFont>
